<svg width="234" height="458" viewBox="0 0 234 458" fill="none" xmlns="http://www.w3.org/2000/svg">
<g opacity="0.08">
<mask id="mask0_7481_9944" style="mask-type:alpha" maskUnits="userSpaceOnUse" x="0" y="0" width="233" height="233">
<rect x="230.172" y="230.128" width="227.628" height="227.628" transform="rotate(180 230.172 230.128)" fill="#D9D9D9" stroke="black" stroke-width="5"/>
</mask>
<g mask="url(#mask0_7481_9944)">
<rect x="167.047" y="254.628" width="251" height="5" transform="rotate(-90 167.047 254.628)" fill="#1F605D"/>
<rect x="127.695" y="71.0421" width="285.157" height="5" transform="rotate(180 127.695 71.0421)" fill="#1F605D"/>
<rect x="123.047" y="254.628" width="251" height="5" transform="rotate(-90 123.047 254.628)" fill="#1F605D"/>
<rect x="127.695" y="123.571" width="285.157" height="5" transform="rotate(180 127.695 123.571)" fill="#1F605D"/>
<rect x="127.695" y="172.349" width="285.157" height="5" transform="rotate(180 127.695 172.349)" fill="#1F605D"/>
</g>
<rect x="2.54297" y="227.128" width="222" height="228" transform="rotate(-90 2.54297 227.128)" stroke="#1F605D" stroke-width="5"/>
<rect x="2.5" y="455.128" width="228" height="228" transform="rotate(-90 2.5 455.128)" stroke="#1F605D" stroke-width="5"/>
<mask id="mask1_7481_9944" style="mask-type:alpha" maskUnits="userSpaceOnUse" x="0" y="224" width="233" height="231">
<rect x="2.5" y="452.13" width="225" height="228" transform="rotate(-90 2.5 452.13)" fill="#D9D9D9" stroke="black" stroke-width="5"/>
</mask>
<g mask="url(#mask1_7481_9944)">
<rect x="230.5" y="452.13" width="603" height="397" rx="198.5" transform="rotate(180 230.5 452.13)" stroke="#1F605D" stroke-width="5"/>
<rect x="170.219" y="402.478" width="482.769" height="310.174" rx="155.087" transform="rotate(180 170.219 402.478)" stroke="#1F605D" stroke-width="5"/>
<rect x="125.195" y="342.444" width="362.702" height="212.62" rx="106.31" transform="rotate(180 125.195 342.444)" stroke="#1F605D" stroke-width="5"/>
</g>
</g>
</svg>
