<svg width="55" height="39" viewBox="0 0 55 39" fill="none" xmlns="http://www.w3.org/2000/svg">
<path d="M40.0776 33.1543C45.8469 41.2313 54.9592 35.2661 52.7701 27.385C49.4823 15.549 47.6933 8.95908 46.7629 5.47989C46.2155 3.43393 44.3612 2 42.2432 2H12.5269C10.4091 2 8.56331 3.44189 8.04834 5.4962C6.11135 13.2236 4.3831 20.004 2.3328 27.385C0.143575 35.2661 9.25597 41.2313 15.0253 33.1543" stroke="#09A144" stroke-width="2.5" stroke-linecap="round" stroke-linejoin="round"/>
<path d="M36.6161 2V6.61545C36.6161 9.1645 34.5498 11.2309 32.0007 11.2309H22.7697C20.2207 11.2309 18.1543 9.1645 18.1543 6.61545V2" stroke="#09A144" stroke-width="2.5" stroke-linecap="round" stroke-linejoin="round"/>
<path d="M18.1545 29.6927C20.7036 29.6927 22.77 27.6264 22.77 25.0772C22.77 22.5281 20.7036 20.4618 18.1545 20.4618C15.6055 20.4618 13.5391 22.5281 13.5391 25.0772C13.5391 27.6264 15.6055 29.6927 18.1545 29.6927Z" stroke="#09A144" stroke-width="2.5" stroke-linecap="round" stroke-linejoin="round"/>
<path d="M36.6155 29.6927C39.1646 29.6927 41.2309 27.6264 41.2309 25.0772C41.2309 22.5281 39.1646 20.4618 36.6155 20.4618C34.0663 20.4618 32 22.5281 32 25.0772C32 27.6264 34.0663 29.6927 36.6155 29.6927Z" stroke="#09A144" stroke-width="2.5" stroke-linecap="round" stroke-linejoin="round"/>
</svg>
