<svg width="41" height="39" viewBox="0 0 41 39" fill="none" xmlns="http://www.w3.org/2000/svg">
<path d="M34.308 10.0766H7.38466C4.41079 10.0766 2 12.4874 2 15.4613V31.6152C2 34.5891 4.41079 36.9999 7.38466 36.9999H34.308C37.2818 36.9999 39.6926 34.5891 39.6926 31.6152V15.4613C39.6926 12.4874 37.2818 10.0766 34.308 10.0766Z" stroke="#09A144" stroke-width="2.5" stroke-linecap="round" stroke-linejoin="round"/>
<path d="M12.7715 10.077V4.69233C12.7715 3.97828 13.0551 3.29348 13.56 2.78857C14.065 2.28366 14.7498 2 15.4638 2H26.2331C26.9472 2 27.632 2.28366 28.1369 2.78857C28.6418 3.29348 28.9255 3.97828 28.9255 4.69233V10.077" stroke="#09A144" stroke-width="2.5" stroke-linecap="round" stroke-linejoin="round"/>
<path d="M20.8438 18.1199V28.8892" stroke="#09A144" stroke-width="2.5" stroke-linecap="round" stroke-linejoin="round"/>
<path d="M15.457 23.5044H26.2264" stroke="#09A144" stroke-width="2.5" stroke-linecap="round" stroke-linejoin="round"/>
</svg>
