<svg width="49" height="50" viewBox="0 0 49 50" fill="none" xmlns="http://www.w3.org/2000/svg">
<mask id="mask0_7600_14453" style="mask-type:alpha" maskUnits="userSpaceOnUse" x="2" y="1" width="46" height="49">
<rect x="-1.5" y="1.5" width="43" height="46" transform="matrix(-1 -8.74228e-08 -8.74228e-08 1 45 1)" fill="#D9D9D9" stroke="black" stroke-width="3"/>
</mask>
<g mask="url(#mask0_7600_14453)">
<rect width="54.9777" height="2.5" transform="matrix(-4.36115e-08 1 1 4.3811e-08 35.7998 -4.81882)" fill="white"/>
<rect width="62.6019" height="2.5" transform="matrix(-1 -8.74228e-08 -8.74228e-08 1 26.2998 35.3932)" fill="white"/>
<rect width="54.9777" height="2.5" transform="matrix(-4.36115e-08 1 1 4.3811e-08 26.1406 -4.81882)" fill="white"/>
<rect width="62.6019" height="2.5" transform="matrix(-1 -8.74228e-08 -8.74228e-08 1 26.2998 23.8871)" fill="white"/>
<rect width="62.6019" height="2.5" transform="matrix(-1 -8.74228e-08 -8.74228e-08 1 26.2998 13.2029)" fill="white"/>
</g>
<rect x="1.25" y="1.25" width="47.5" height="46.2805" transform="matrix(-4.37114e-08 1 1 4.37114e-08 -5.46392e-08 5.46392e-08)" stroke="white" stroke-width="2.5"/>
</svg>
