<svg width="142" height="30" viewBox="0 0 142 30" fill="none" xmlns="http://www.w3.org/2000/svg">
<g clip-path="url(#clip0_7846_10382)">
<g opacity="0.8">
<path d="M43.5291 5.12139L48.6354 20.5651H48.8366L53.9334 5.12139H57.8423L50.9252 24.7422H46.5373L39.6298 5.12139H43.5291ZM65.2073 25.0296C63.7319 25.0296 62.4577 24.723 61.3846 24.1099C60.318 23.4903 59.4973 22.6153 58.9225 21.4848C58.3476 20.3479 58.0602 19.0099 58.0602 17.4706C58.0602 15.9569 58.3476 14.6284 58.9225 13.4851C59.5037 12.3355 60.3148 11.4413 61.3559 10.8026C62.397 10.1575 63.6201 9.83498 65.0252 9.83498C65.9322 9.83498 66.788 9.98188 67.5928 10.2757C68.4039 10.5631 69.1193 11.0102 69.7388 11.6169C70.3647 12.2237 70.8565 12.9965 71.2142 13.9354C71.5719 14.8679 71.7507 15.9793 71.7507 17.2694V18.3329H59.6889V15.9952H68.4263C68.4199 15.331 68.2762 14.7402 67.9952 14.2228C67.7141 13.6991 67.3213 13.2871 66.8168 12.987C66.3186 12.6868 65.7374 12.5367 65.0731 12.5367C64.3642 12.5367 63.7414 12.7091 63.2049 13.054C62.6684 13.3925 62.2501 13.8396 61.9499 14.3953C61.6561 14.9446 61.506 15.5481 61.4996 16.206V18.2466C61.4996 19.1025 61.6561 19.837 61.9691 20.4501C62.282 21.0569 62.7195 21.5232 63.2816 21.8489C63.8436 22.1682 64.5015 22.3279 65.2552 22.3279C65.7597 22.3279 66.2164 22.2577 66.6252 22.1171C67.0339 21.9702 67.3884 21.7563 67.6886 21.4752C67.9888 21.1942 68.2155 20.8461 68.3688 20.431L71.607 20.795C71.4026 21.6509 71.013 22.3982 70.4382 23.0369C69.8697 23.6692 69.1416 24.161 68.2538 24.5123C67.3661 24.8572 66.3505 25.0296 65.2073 25.0296ZM78.1529 16.1198V24.7422H74.6847V10.0266H77.9996V12.5271H78.172C78.5105 11.7032 79.0502 11.0485 79.7911 10.5631C80.5384 10.0777 81.4613 9.83498 82.5599 9.83498C83.5754 9.83498 84.46 10.0521 85.2137 10.4865C85.9737 10.9208 86.5613 11.5499 86.9765 12.3738C87.398 13.1977 87.6056 14.1973 87.5992 15.3725V24.7422H84.1311V15.909C84.1311 14.9254 83.8756 14.1558 83.3646 13.6001C82.8601 13.0444 82.1607 12.7666 81.2665 12.7666C80.6597 12.7666 80.12 12.9007 79.6474 13.169C79.1812 13.4308 78.8139 13.8109 78.5457 14.3091C78.2838 14.8072 78.1529 15.4108 78.1529 16.1198ZM98.473 10.0266V12.7091H90.0135V10.0266H98.473ZM92.102 6.50098H95.5701V20.316C95.5701 20.7823 95.6404 21.1399 95.7809 21.389C95.9278 21.6317 96.1194 21.7978 96.3557 21.8872C96.5921 21.9766 96.8539 22.0213 97.1413 22.0213C97.3585 22.0213 97.5565 22.0054 97.7353 21.9734C97.9206 21.9415 98.0611 21.9128 98.1569 21.8872L98.7413 24.5985C98.5561 24.6624 98.291 24.7326 97.9461 24.8093C97.6076 24.8859 97.1924 24.9306 96.7006 24.9434C95.832 24.9689 95.0496 24.838 94.3534 24.5506C93.6572 24.2568 93.1048 23.8033 92.696 23.1902C92.2936 22.577 92.0956 21.8106 92.102 20.8908V6.50098ZM110.753 18.5532V10.0266H114.221V24.7422H110.858V22.1267H110.705C110.373 22.9506 109.827 23.6245 109.067 24.1482C108.313 24.6719 107.384 24.9338 106.279 24.9338C105.314 24.9338 104.462 24.7198 103.721 24.2919C102.986 23.8576 102.411 23.2285 101.996 22.4046C101.581 21.5742 101.374 20.5715 101.374 19.3963V10.0266H104.842V18.8598C104.842 19.7923 105.097 20.5332 105.608 21.0824C106.119 21.6317 106.79 21.9064 107.62 21.9064C108.131 21.9064 108.626 21.7818 109.105 21.5327C109.584 21.2836 109.977 20.9132 110.283 20.4214C110.596 19.9232 110.753 19.3005 110.753 18.5532ZM117.787 24.7422V10.0266H121.15V12.4792H121.303C121.572 11.6297 122.031 10.9751 122.683 10.5152C123.341 10.0489 124.091 9.81582 124.934 9.81582C125.126 9.81582 125.34 9.8254 125.576 9.84456C125.819 9.85734 126.02 9.87969 126.18 9.91162V13.1019C126.033 13.0508 125.8 13.0061 125.48 12.9678C125.167 12.9231 124.864 12.9007 124.57 12.9007C123.938 12.9007 123.369 13.0381 122.865 13.3127C122.367 13.5809 121.974 13.9546 121.686 14.4336C121.399 14.9126 121.255 15.4651 121.255 16.091V24.7422H117.787ZM134.393 25.0296C132.917 25.0296 131.643 24.723 130.57 24.1099C129.503 23.4903 128.683 22.6153 128.108 21.4848C127.533 20.3479 127.246 19.0099 127.246 17.4706C127.246 15.9569 127.533 14.6284 128.108 13.4851C128.689 12.3355 129.5 11.4413 130.541 10.8026C131.582 10.1575 132.805 9.83498 134.211 9.83498C135.118 9.83498 135.973 9.98188 136.778 10.2757C137.589 10.5631 138.305 11.0102 138.924 11.6169C139.55 12.2237 140.042 12.9965 140.4 13.9354C140.757 14.8679 140.936 15.9793 140.936 17.2694V18.3329H128.874V15.9952H137.612C137.605 15.331 137.462 14.7402 137.181 14.2228C136.899 13.6991 136.507 13.2871 136.002 12.987C135.504 12.6868 134.923 12.5367 134.258 12.5367C133.55 12.5367 132.927 12.7091 132.39 13.054C131.854 13.3925 131.435 13.8396 131.135 14.3953C130.841 14.9446 130.691 15.5481 130.685 16.206V18.2466C130.685 19.1025 130.841 19.837 131.154 20.4501C131.467 21.0569 131.905 21.5232 132.467 21.8489C133.029 22.1682 133.687 22.3279 134.44 22.3279C134.945 22.3279 135.402 22.2577 135.811 22.1171C136.219 21.9702 136.574 21.7563 136.874 21.4752C137.174 21.1942 137.401 20.8461 137.554 20.431L140.792 20.795C140.588 21.6509 140.198 22.3982 139.624 23.0369C139.055 23.6692 138.327 24.161 137.439 24.5123C136.551 24.8572 135.536 25.0296 134.393 25.0296Z" fill="white"/>
<path fill-rule="evenodd" clip-rule="evenodd" d="M10.9437 -0.233398C10.4182 -0.233398 9.9921 0.19266 9.9921 0.718229V9.7587H9.99207C4.4736 9.7587 0 14.2323 0 19.7508C0 25.2692 4.47361 29.7428 9.99207 29.7428H19.0325C19.5581 29.7428 19.9841 29.3168 19.9841 28.7912V19.7507H19.9842C25.5026 19.7507 29.9762 15.2771 29.9762 9.75867C29.9762 4.24021 25.5026 -0.233398 19.9842 -0.233398H10.9437ZM19.9841 19.7507V10.7103C19.9841 10.1848 19.5581 9.7587 19.0325 9.7587H9.9921V18.7991C9.9921 19.3247 10.4182 19.7507 10.9437 19.7507H19.9841Z" fill="white"/>
<path d="M10.8366 -0.233398C10.3702 -0.233398 9.99219 0.144652 9.99219 0.611001L9.99219 9.75867H19.1399C19.6062 9.75867 19.9843 10.1367 19.9843 10.6031L19.9843 19.7507C25.5027 19.7507 29.9763 15.2771 29.9763 9.75867C29.9763 4.2402 25.5027 -0.233398 19.9843 -0.233398H10.8366Z" fill="white"/>
</g>
</g>
<defs>
<clipPath id="clip0_7846_10382">
<rect width="142" height="30" fill="white"/>
</clipPath>
</defs>
</svg>
