<svg width="122" height="26" viewBox="0 0 122 26" fill="none" xmlns="http://www.w3.org/2000/svg">
<path d="M37.0144 4.31617L41.3564 17.4482H41.5275L45.8614 4.31617H49.1851L43.3034 21H39.5724L33.6988 4.31617H37.0144ZM55.4477 21.2444C54.1931 21.2444 53.1097 20.9837 52.1973 20.4623C51.2903 19.9355 50.5924 19.1915 50.1036 18.2302C49.6149 17.2635 49.3705 16.1257 49.3705 14.8169C49.3705 13.5298 49.6149 12.4001 50.1036 11.428C50.5979 10.4504 51.2876 9.69008 52.1728 9.14699C53.0581 8.59846 54.0981 8.3242 55.2929 8.3242C56.0641 8.3242 56.7918 8.44911 57.4761 8.69893C58.1659 8.94333 58.7741 9.32349 59.3009 9.83943C59.8332 10.3554 60.2513 11.0125 60.5555 11.8109C60.8596 12.6038 61.0117 13.5488 61.0117 14.6458V15.5501H50.7553V13.5623H58.1849C58.1794 12.9975 58.0572 12.4952 57.8183 12.0553C57.5793 11.6099 57.2453 11.2596 56.8163 11.0044C56.3927 10.7491 55.8984 10.6215 55.3336 10.6215C54.7308 10.6215 54.2013 10.7681 53.7451 11.0614C53.2889 11.3492 52.9332 11.7294 52.6779 12.2019C52.4281 12.6689 52.3004 13.1822 52.295 13.7416V15.4767C52.295 16.2045 52.4281 16.829 52.6942 17.3504C52.9603 17.8664 53.3323 18.2628 53.8102 18.5398C54.2882 18.8113 54.8476 18.9471 55.4884 18.9471C55.9175 18.9471 56.3058 18.8874 56.6533 18.7679C57.0009 18.643 57.3023 18.461 57.5576 18.2221C57.8128 17.9831 58.0056 17.6871 58.136 17.3341L60.8895 17.6437C60.7157 18.3714 60.3844 19.0068 59.8956 19.5499C59.4123 20.0876 58.7931 20.5058 58.0382 20.8045C57.2833 21.0978 56.4198 21.2444 55.4477 21.2444ZM66.4555 13.6682V21H63.5065V8.48713H66.3252V10.6133H66.4718C66.7596 9.91275 67.2185 9.35608 67.8485 8.94333C68.484 8.53058 69.2687 8.3242 70.2028 8.3242C71.0664 8.3242 71.8185 8.50885 72.4594 8.87815C73.1057 9.24746 73.6053 9.78241 73.9583 10.483C74.3168 11.1836 74.4933 12.0335 74.4879 13.0328V21H71.5389V13.489C71.5389 12.6527 71.3216 11.9982 70.8871 11.5257C70.4581 11.0532 69.8634 10.817 69.1031 10.817C68.5871 10.817 68.1282 10.931 67.7263 11.1591C67.3299 11.3818 67.0176 11.705 66.7895 12.1286C66.5668 12.5522 66.4555 13.0654 66.4555 13.6682ZM83.734 8.48713V10.7681H76.5407V8.48713H83.734ZM78.3167 5.48925H81.2657V17.2364C81.2657 17.6328 81.3254 17.937 81.4449 18.1488C81.5698 18.3551 81.7327 18.4963 81.9337 18.5724C82.1346 18.6484 82.3573 18.6864 82.6017 18.6864C82.7863 18.6864 82.9547 18.6728 83.1067 18.6457C83.2642 18.6185 83.3837 18.5941 83.4652 18.5724L83.9621 20.8778C83.8046 20.9321 83.5792 20.9919 83.286 21.057C82.9981 21.1222 82.6451 21.1602 82.2269 21.1711C81.4883 21.1928 80.823 21.0815 80.2311 20.8371C79.6391 20.5872 79.1693 20.2017 78.8217 19.6803C78.4796 19.1589 78.3112 18.5072 78.3167 17.7251V5.48925ZM94.1757 15.7374V8.48713H97.1247V21H94.2653V18.776H94.1349C93.8525 19.4766 93.3882 20.0496 92.7419 20.4949C92.101 20.9403 91.3108 21.1629 90.3713 21.1629C89.5512 21.1629 88.8262 20.981 88.1962 20.6171C87.5716 20.2478 87.0829 19.7129 86.7299 19.0123C86.3768 18.3063 86.2003 17.4536 86.2003 16.4543V8.48713H89.1493V15.9981C89.1493 16.791 89.3666 17.421 89.801 17.8881C90.2355 18.3551 90.8058 18.5887 91.5118 18.5887C91.9463 18.5887 92.3672 18.4828 92.7745 18.271C93.1818 18.0591 93.5158 17.7442 93.7765 17.326C94.0426 16.9024 94.1757 16.3728 94.1757 15.7374ZM100.157 21V8.48713H103.017V10.5726H103.147C103.375 9.85029 103.766 9.29362 104.32 8.90259C104.879 8.50614 105.517 8.30791 106.234 8.30791C106.397 8.30791 106.579 8.31605 106.78 8.33235C106.987 8.34321 107.158 8.36222 107.293 8.38937V11.1021C107.168 11.0587 106.97 11.0207 106.699 10.9881C106.433 10.9501 106.175 10.931 105.925 10.931C105.387 10.931 104.904 11.0478 104.475 11.2813C104.051 11.5094 103.717 11.8272 103.473 12.2345C103.228 12.6418 103.106 13.1116 103.106 13.6438V21H100.157ZM114.277 21.2444C113.022 21.2444 111.939 20.9837 111.026 20.4623C110.12 19.9355 109.422 19.1915 108.933 18.2302C108.444 17.2635 108.2 16.1257 108.2 14.8169C108.2 13.5298 108.444 12.4001 108.933 11.428C109.427 10.4504 110.117 9.69008 111.002 9.14699C111.887 8.59846 112.927 8.3242 114.122 8.3242C114.893 8.3242 115.621 8.44911 116.305 8.69893C116.995 8.94333 117.603 9.32349 118.13 9.83943C118.662 10.3554 119.081 11.0125 119.385 11.8109C119.689 12.6038 119.841 13.5488 119.841 14.6458V15.5501H109.585V13.5623H117.014C117.009 12.9975 116.886 12.4952 116.648 12.0553C116.409 11.6099 116.075 11.2596 115.646 11.0044C115.222 10.7491 114.728 10.6215 114.163 10.6215C113.56 10.6215 113.031 10.7681 112.574 11.0614C112.118 11.3492 111.762 11.7294 111.507 12.2019C111.257 12.6689 111.13 13.1822 111.124 13.7416V15.4767C111.124 16.2045 111.257 16.829 111.523 17.3504C111.79 17.8664 112.162 18.2628 112.639 18.5398C113.117 18.8113 113.677 18.9471 114.318 18.9471C114.747 18.9471 115.135 18.8874 115.483 18.7679C115.83 18.643 116.132 18.461 116.387 18.2221C116.642 17.9831 116.835 17.6871 116.965 17.3341L119.719 17.6437C119.545 18.3714 119.214 19.0068 118.725 19.5499C118.241 20.0876 117.622 20.5058 116.867 20.8045C116.113 21.0978 115.249 21.2444 114.277 21.2444Z" fill="#83908A"/>
<path fill-rule="evenodd" clip-rule="evenodd" d="M9.30598 0.0205078C8.85908 0.0205078 8.4968 0.38279 8.4968 0.829688V8.51692H8.4964C3.80397 8.51692 0 12.3209 0 17.0133C0 21.7058 3.80396 25.5097 8.49639 25.5097H16.1836C16.6305 25.5097 16.9928 25.1474 16.9928 24.7005V17.0133H16.9932C21.6856 17.0133 25.4896 13.2093 25.4896 8.5169C25.4896 3.82447 21.6856 0.0205078 16.9932 0.0205078H9.30598ZM16.9928 17.0133V9.3261C16.9928 8.87921 16.6305 8.51692 16.1836 8.51692H8.4968V16.2041C8.4968 16.651 8.85908 17.0133 9.30598 17.0133H16.9928Z" fill="#83908A"/>
<path d="M9.2141 0.0205078C8.81756 0.0205078 8.49609 0.341969 8.49609 0.738513L8.4961 8.5169H16.2745C16.671 8.5169 16.9925 8.83837 16.9925 9.23491L16.9925 17.0133C21.6849 17.0133 25.4889 13.2093 25.4889 8.5169C25.4889 3.82447 21.6849 0.0205078 16.9925 0.0205078H9.2141Z" fill="#83908A"/>
</svg>
