<svg width="147" height="25" viewBox="0 0 147 25" fill="none" xmlns="http://www.w3.org/2000/svg">
<path d="M36.2235 19.0572H33.3137L38.6116 4.00847H41.977L47.2822 19.0572H44.3724L40.3531 7.09464H40.2355L36.2235 19.0572ZM36.319 13.1567H44.2548V15.3465H36.319V13.1567ZM49.1468 23.2897V7.77065H51.7627V9.63705H51.917C52.0542 9.36272 52.2477 9.07125 52.4975 8.76264C52.7473 8.44912 53.0853 8.18214 53.5115 7.9617C53.9377 7.73636 54.4814 7.62369 55.1428 7.62369C56.0147 7.62369 56.801 7.84658 57.5015 8.29236C58.2069 8.73324 58.7653 9.38722 59.1768 10.2543C59.5932 11.1165 59.8014 12.1746 59.8014 13.4286C59.8014 14.668 59.5981 15.7212 59.1915 16.5883C58.7849 17.4553 58.2314 18.1167 57.5309 18.5722C56.8304 19.0278 56.0368 19.2556 55.1501 19.2556C54.5035 19.2556 53.9671 19.1478 53.5409 18.9323C53.1147 18.7167 52.7718 18.4571 52.5122 18.1534C52.2574 17.8448 52.0591 17.5533 51.917 17.279H51.8068V23.2897H49.1468ZM51.7553 13.4139C51.7553 14.1438 51.8582 14.7831 52.0639 15.3318C52.2746 15.8804 52.5759 16.309 52.9678 16.6177C53.3645 16.9214 53.8446 17.0732 54.408 17.0732C54.9958 17.0732 55.4881 16.9165 55.8849 16.603C56.2817 16.2846 56.5805 15.851 56.7814 15.3024C56.9871 14.7488 57.09 14.1193 57.09 13.4139C57.09 12.7134 56.9896 12.0913 56.7887 11.5475C56.5879 11.0038 56.2891 10.5776 55.8923 10.269C55.4955 9.96036 55.0007 9.80605 54.408 9.80605C53.8397 9.80605 53.3572 9.95546 52.9604 10.2543C52.5636 10.5531 52.2623 10.9719 52.0566 11.5108C51.8558 12.0496 51.7553 12.684 51.7553 13.4139ZM62.0793 23.2897V7.77065H64.6952V9.63705H64.8495C64.9867 9.36272 65.1802 9.07125 65.43 8.76264C65.6798 8.44912 66.0178 8.18214 66.444 7.9617C66.8702 7.73636 67.414 7.62369 68.0753 7.62369C68.9472 7.62369 69.7335 7.84658 70.434 8.29236C71.1394 8.73324 71.6978 9.38722 72.1093 10.2543C72.5257 11.1165 72.7339 12.1746 72.7339 13.4286C72.7339 14.668 72.5306 15.7212 72.124 16.5883C71.7174 17.4553 71.1639 18.1167 70.4634 18.5722C69.7629 19.0278 68.9693 19.2556 68.0826 19.2556C67.436 19.2556 66.8996 19.1478 66.4734 18.9323C66.0472 18.7167 65.7043 18.4571 65.4447 18.1534C65.19 17.8448 64.9916 17.5533 64.8495 17.279H64.7393V23.2897H62.0793ZM64.6878 13.4139C64.6878 14.1438 64.7907 14.7831 64.9965 15.3318C65.2071 15.8804 65.5084 16.309 65.9003 16.6177C66.2971 16.9214 66.7771 17.0732 67.3405 17.0732C67.9283 17.0732 68.4206 16.9165 68.8174 16.603C69.2142 16.2846 69.513 15.851 69.7139 15.3024C69.9196 14.7488 70.0225 14.1193 70.0225 13.4139C70.0225 12.7134 69.9221 12.0913 69.7212 11.5475C69.5204 11.0038 69.2216 10.5776 68.8248 10.269C68.428 9.96036 67.9332 9.80605 67.3405 9.80605C66.7722 9.80605 66.2897 9.95546 65.8929 10.2543C65.4961 10.5531 65.1949 10.9719 64.9891 11.5108C64.7883 12.0496 64.6878 12.684 64.6878 13.4139ZM77.6718 4.00847V19.0572H75.0118V4.00847H77.6718ZM80.4071 19.0572V7.77065H83.0671V19.0572H80.4071ZM81.7444 6.16879C81.3231 6.16879 80.9606 6.02918 80.6569 5.74995C80.3532 5.46583 80.2013 5.12537 80.2013 4.72858C80.2013 4.32688 80.3532 3.98643 80.6569 3.7072C80.9606 3.42308 81.3231 3.28102 81.7444 3.28102C82.1706 3.28102 82.5331 3.42308 82.8319 3.7072C83.1356 3.98643 83.2875 4.32688 83.2875 4.72858C83.2875 5.12537 83.1356 5.46583 82.8319 5.74995C82.5331 6.02918 82.1706 6.16879 81.7444 6.16879ZM90.7255 19.2776C89.5988 19.2776 88.6313 19.0303 87.8231 18.5355C87.0197 18.0407 86.4 17.3574 85.964 16.4854C85.5329 15.6085 85.3174 14.5994 85.3174 13.458C85.3174 12.3117 85.5378 11.3002 85.9787 10.4233C86.4196 9.54153 87.0417 8.85571 87.8451 8.36584C88.6534 7.87108 89.6086 7.62369 90.7108 7.62369C91.6269 7.62369 92.4376 7.7927 93.143 8.13071C93.8533 8.46382 94.4191 8.93654 94.8404 9.54887C95.2617 10.1563 95.5017 10.8666 95.5605 11.6798H93.0181C92.9152 11.136 92.6703 10.6829 92.2833 10.3204C91.9012 9.95301 91.3893 9.76931 90.7476 9.76931C90.2038 9.76931 89.7262 9.91627 89.3147 10.2102C88.9032 10.4992 88.5824 10.9156 88.3521 11.4594C88.1268 12.0031 88.0141 12.6546 88.0141 13.4139C88.0141 14.183 88.1268 14.8443 88.3521 15.3979C88.5775 15.9465 88.8934 16.3703 89.3 16.6691C89.7115 16.963 90.194 17.11 90.7476 17.11C91.1395 17.11 91.4897 17.0365 91.7983 16.8895C92.1119 16.7377 92.3739 16.5197 92.5846 16.2356C92.7952 15.9514 92.9397 15.6061 93.0181 15.1995H95.5605C95.4968 15.998 95.2617 16.7058 94.8551 17.3231C94.4485 17.9354 93.895 18.4155 93.1945 18.7633C92.4939 19.1062 91.671 19.2776 90.7255 19.2776ZM100.993 19.285C100.277 19.285 99.6332 19.1576 99.06 18.9029C98.4918 18.6433 98.0411 18.2612 97.708 17.7566C97.3798 17.252 97.2157 16.6299 97.2157 15.8902C97.2157 15.2534 97.3332 14.7268 97.5684 14.3104C97.8035 13.894 98.1244 13.5609 98.531 13.3111C98.9375 13.0612 99.3956 12.8726 99.905 12.7453C100.419 12.613 100.951 12.5175 101.5 12.4587C102.161 12.3901 102.697 12.3289 103.109 12.275C103.52 12.2162 103.819 12.128 104.005 12.0105C104.196 11.888 104.292 11.6994 104.292 11.4447V11.4006C104.292 10.847 104.128 10.4184 103.799 10.1147C103.471 9.81095 102.999 9.65909 102.381 9.65909C101.73 9.65909 101.213 9.80116 100.831 10.0853C100.454 10.3694 100.199 10.705 100.067 11.092L97.5831 10.7393C97.779 10.0534 98.1023 9.48029 98.553 9.01982C99.0037 8.55444 99.5548 8.20664 100.206 7.9764C100.858 7.74126 101.578 7.62369 102.367 7.62369C102.91 7.62369 103.452 7.68738 103.991 7.81474C104.529 7.94211 105.022 8.15275 105.467 8.44667C105.913 8.73569 106.271 9.13004 106.54 9.6297C106.815 10.1294 106.952 10.7539 106.952 11.5034V19.0572H104.395V17.5068H104.306C104.145 17.8203 103.917 18.1142 103.623 18.3885C103.334 18.658 102.969 18.876 102.528 19.0425C102.092 19.2042 101.58 19.285 100.993 19.285ZM101.683 17.3304C102.217 17.3304 102.68 17.2251 103.072 17.0145C103.464 16.7989 103.765 16.5148 103.976 16.1621C104.191 15.8094 104.299 15.4248 104.299 15.0084V13.6785C104.216 13.747 104.074 13.8107 103.873 13.8695C103.677 13.9283 103.457 13.9797 103.212 14.0238C102.967 14.0679 102.724 14.1071 102.484 14.1414C102.244 14.1757 102.036 14.2051 101.86 14.2296C101.463 14.2834 101.108 14.3716 100.794 14.4941C100.481 14.6166 100.233 14.788 100.052 15.0084C99.8707 15.224 99.7801 15.5032 99.7801 15.8461C99.7801 16.336 99.9589 16.7058 100.317 16.9557C100.674 17.2055 101.13 17.3304 101.683 17.3304ZM115.262 7.77065V9.8281H108.774V7.77065H115.262ZM110.376 5.06659H113.036V15.6624C113.036 16.02 113.09 16.2944 113.198 16.4854C113.31 16.6715 113.457 16.7989 113.638 16.8675C113.82 16.9361 114.021 16.9704 114.241 16.9704C114.408 16.9704 114.559 16.9581 114.697 16.9336C114.839 16.9091 114.946 16.8871 115.02 16.8675L115.468 18.947C115.326 18.996 115.123 19.0499 114.858 19.1086C114.599 19.1674 114.28 19.2017 113.903 19.2115C113.237 19.2311 112.637 19.1307 112.103 18.9102C111.569 18.6849 111.145 18.3371 110.832 17.8668C110.523 17.3966 110.371 16.8087 110.376 16.1033V5.06659ZM117.487 19.0572V7.77065H120.147V19.0572H117.487ZM118.824 6.16879C118.403 6.16879 118.041 6.02918 117.737 5.74995C117.433 5.46583 117.281 5.12537 117.281 4.72858C117.281 4.32688 117.433 3.98643 117.737 3.7072C118.041 3.42308 118.403 3.28102 118.824 3.28102C119.251 3.28102 119.613 3.42308 119.912 3.7072C120.216 3.98643 120.367 4.32688 120.367 4.72858C120.367 5.12537 120.216 5.46583 119.912 5.74995C119.613 6.02918 119.251 6.16879 118.824 6.16879ZM127.805 19.2776C126.703 19.2776 125.748 19.0352 124.94 18.5502C124.131 18.0652 123.504 17.3868 123.059 16.5148C122.618 15.6428 122.397 14.6239 122.397 13.458C122.397 12.2921 122.618 11.2708 123.059 10.3939C123.504 9.51703 124.131 8.83612 124.94 8.35115C125.748 7.86618 126.703 7.62369 127.805 7.62369C128.908 7.62369 129.863 7.86618 130.671 8.35115C131.479 8.83612 132.104 9.51703 132.545 10.3939C132.991 11.2708 133.214 12.2921 133.214 13.458C133.214 14.6239 132.991 15.6428 132.545 16.5148C132.104 17.3868 131.479 18.0652 130.671 18.5502C129.863 19.0352 128.908 19.2776 127.805 19.2776ZM127.82 17.1467C128.418 17.1467 128.917 16.9826 129.319 16.6544C129.721 16.3213 130.02 15.8755 130.216 15.3171C130.416 14.7586 130.517 14.1365 130.517 13.4507C130.517 12.76 130.416 12.1354 130.216 11.5769C130.02 11.0136 129.721 10.5653 129.319 10.2322C128.917 9.89913 128.418 9.73257 127.82 9.73257C127.208 9.73257 126.698 9.89913 126.292 10.2322C125.89 10.5653 125.589 11.0136 125.388 11.5769C125.192 12.1354 125.094 12.76 125.094 13.4507C125.094 14.1365 125.192 14.7586 125.388 15.3171C125.589 15.8755 125.89 16.3213 126.292 16.6544C126.698 16.9826 127.208 17.1467 127.82 17.1467ZM138.131 12.444V19.0572H135.471V7.77065H138.014V9.68849H138.146C138.406 9.05656 138.82 8.55444 139.388 8.18214C139.961 7.80984 140.669 7.62369 141.511 7.62369C142.29 7.62369 142.969 7.79025 143.547 8.12336C144.13 8.45647 144.58 8.93899 144.899 9.57092C145.222 10.2028 145.381 10.9695 145.376 11.8708V19.0572H142.716V12.2823C142.716 11.5279 142.52 10.9376 142.129 10.5115C141.742 10.0853 141.205 9.87219 140.519 9.87219C140.054 9.87219 139.64 9.97506 139.278 10.1808C138.92 10.3816 138.638 10.6731 138.433 11.0552C138.232 11.4373 138.131 11.9002 138.131 12.444Z" fill="white"/>
<path fill-rule="evenodd" clip-rule="evenodd" d="M10.7006 20.0192L5.52144 20.0192C2.47203 20.0192 0 17.5472 0 14.4978C0 11.8085 2.04964 9.59791 4.67202 9.34294C4.85691 6.65042 7.09963 4.52362 9.83909 4.52362H10.0101C11.4837 4.52362 12.8182 5.11935 13.7858 6.08312C15.0831 5.10412 16.698 4.52362 18.4485 4.52362H18.8375C22.9016 4.52362 26.1963 7.81827 26.1963 11.8824C26.1963 16.3763 22.5533 20.0192 18.0594 20.0192L10.7008 20.0192L10.7006 20.0192Z" fill="white"/>
</svg>
