<svg width="49" height="50" viewBox="0 0 49 50" fill="none" xmlns="http://www.w3.org/2000/svg">
<mask id="mask0_7600_14445" style="mask-type:alpha" maskUnits="userSpaceOnUse" x="0" y="0" width="49" height="50">
<rect x="-1.25" y="-1.25" width="46.6956" height="46.2805" transform="matrix(4.37114e-08 -1 -1 -4.37114e-08 46.2803 47.5)" fill="#D9D9D9" stroke="black" stroke-width="2.5"/>
</mask>
<g mask="url(#mask0_7600_14445)">
<rect x="1.25" y="-1.25" width="128.44" height="84.7934" rx="42.3967" transform="matrix(1 8.74228e-08 8.74228e-08 -1 -1.11328 48.4179)" stroke="#1F605D" stroke-width="2.5"/>
<rect x="1.25" y="-1.25" width="102.575" height="65.3949" rx="32.6974" transform="matrix(1 8.74228e-08 8.74228e-08 -1 10.2031 37.1025)" stroke="#1F605D" stroke-width="2.5"/>
<rect x="1.25" y="-1.25" width="76.7107" height="44.3798" rx="22.1899" transform="matrix(1 8.74228e-08 8.74228e-08 -1 21.5186 24.1699)" stroke="#1F605D" stroke-width="2.5"/>
</g>
<rect x="1.25" y="1.25" width="47.5" height="46.2805" transform="matrix(-4.37114e-08 1 1 4.37114e-08 -5.46392e-08 5.46392e-08)" stroke="#1F605D" stroke-width="2.5"/>
</svg>
