<svg width="472" height="701" viewBox="0 0 472 701" fill="none" xmlns="http://www.w3.org/2000/svg">
<g opacity="0.08">
<mask id="mask0_7481_10166" style="mask-type:alpha" maskUnits="userSpaceOnUse" x="0" y="228" width="239" height="243">
<rect x="1.5" y="468.867" width="238.419" height="236" transform="rotate(-90 1.5 468.867)" fill="#D9D9D9" stroke="black" stroke-width="3"/>
</mask>
<g mask="url(#mask0_7481_10166)">
<rect x="-23" y="414" width="292.968" height="3" fill="white"/>
<rect x="-23" y="350" width="292.968" height="3" fill="white"/>
<rect x="-23.1289" y="291.25" width="292.968" height="3" fill="white"/>
</g>
<mask id="mask1_7481_10166" style="mask-type:alpha" maskUnits="userSpaceOnUse" x="238" y="0" width="237" height="232">
<rect x="473.5" y="230.5" width="234" height="229" transform="rotate(180 473.5 230.5)" fill="#D9D9D9" stroke="black" stroke-width="3"/>
</mask>
<g mask="url(#mask1_7481_10166)">
<rect x="409.113" y="254.359" width="255.096" height="2.94465" transform="rotate(-90 409.113 254.359)" fill="white"/>
<rect x="365.031" y="67.7754" width="290.473" height="2.93794" transform="rotate(180 365.031 67.7754)" fill="white"/>
<rect x="364.293" y="254.359" width="255.096" height="2.94465" transform="rotate(-90 364.293 254.359)" fill="white"/>
<rect x="365.031" y="121.164" width="290.473" height="2.93794" transform="rotate(180 365.031 121.164)" fill="white"/>
<rect x="365.031" y="170.738" width="290.473" height="2.93794" transform="rotate(180 365.031 170.738)" fill="white"/>
</g>
<mask id="mask2_7481_10166" style="mask-type:alpha" maskUnits="userSpaceOnUse" x="0" y="467" width="241" height="238">
<rect x="1.5" y="702.501" width="234" height="238" transform="rotate(-90 1.5 702.501)" fill="#D9D9D9" stroke="black" stroke-width="3"/>
</mask>
<g mask="url(#mask2_7481_10166)">
<rect x="-49.7812" y="830.886" width="295.933" height="3" transform="rotate(-45 -49.7812 830.886)" fill="white"/>
<rect x="-93.8477" y="786.835" width="295.933" height="3" transform="rotate(-45 -93.8477 786.835)" fill="white"/>
<rect x="-132.391" y="748.274" width="295.933" height="3" transform="rotate(-45 -132.391 748.274)" fill="white"/>
<rect x="-15.5156" y="438.821" width="434.616" height="3" transform="rotate(46.2156 -15.5156 438.821)" fill="white"/>
<rect x="72.4453" y="440.587" width="372.811" height="3" transform="rotate(46.2156 72.4453 440.587)" fill="white"/>
<rect x="111.812" y="402.849" width="351.132" height="3" transform="rotate(46.2156 111.812 402.849)" fill="white"/>
</g>
<rect x="1.5" y="702.5" width="234" height="238" transform="rotate(-90 1.5 702.5)" stroke="white" stroke-width="3"/>
<rect x="1.5" y="468.5" width="238" height="238" transform="rotate(-90 1.5 468.5)" stroke="white" stroke-width="3"/>
<rect x="239.5" y="230.5" width="229" height="234" transform="rotate(-90 239.5 230.5)" stroke="white" stroke-width="3"/>
<rect x="239.5" y="468.5" width="238" height="234" transform="rotate(-90 239.5 468.5)" stroke="white" stroke-width="3"/>
<rect x="239.5" y="702.5" width="234" height="234" transform="rotate(-90 239.5 702.5)" stroke="white" stroke-width="3"/>
<mask id="mask3_7481_10166" style="mask-type:alpha" maskUnits="userSpaceOnUse" x="238" y="229" width="237" height="241">
<rect x="239.5" y="468.5" width="238" height="234" transform="rotate(-90 239.5 468.5)" fill="#D9D9D9" stroke="black" stroke-width="3"/>
</mask>
<g mask="url(#mask3_7481_10166)">
<rect x="473.809" y="474.066" width="616.243" height="428.515" rx="214.258" transform="rotate(180 473.809 474.066)" stroke="white" stroke-width="3"/>
<rect x="412.414" y="415.768" width="493.788" height="335.314" rx="167.657" transform="rotate(180 412.414 415.768)" stroke="white" stroke-width="3"/>
<rect x="366.555" y="351.328" width="371.502" height="230.598" rx="115.299" transform="rotate(180 366.555 351.328)" stroke="white" stroke-width="3"/>
</g>
<mask id="mask4_7481_10166" style="mask-type:alpha" maskUnits="userSpaceOnUse" x="239" y="467" width="235" height="238">
<rect x="472.5" y="468.501" width="234" height="232" transform="rotate(90 472.5 468.501)" fill="#D9D9D9" stroke="black" stroke-width="3"/>
</mask>
<g mask="url(#mask4_7481_10166)">
<rect x="235.133" y="464.079" width="627.804" height="417.536" rx="208.768" stroke="white" stroke-width="3"/>
<rect x="289.648" y="518.591" width="503.201" height="324.084" rx="162.042" stroke="white" stroke-width="3"/>
<rect x="344.164" y="580.894" width="378.597" height="222.843" rx="111.422" stroke="white" stroke-width="3"/>
</g>
</g>
</svg>
