<svg width="820" height="275" viewBox="0 0 820 275" fill="none" xmlns="http://www.w3.org/2000/svg">
<g clip-path="url(#clip0_7607_14846)">
<mask id="mask0_7607_14846" style="mask-type:alpha" maskUnits="userSpaceOnUse" x="0" y="-1" width="820" height="277">
<rect x="0.5" y="0.42041" width="819" height="275" fill="#FA7353" stroke="#B6AFAA"/>
</mask>
<g mask="url(#mask0_7607_14846)">
<rect x="0.5" y="0.42041" width="819" height="275" fill="#02413E" stroke="#02413E"/>
</g>
<g opacity="0.08">
<mask id="mask1_7607_14846" style="mask-type:alpha" maskUnits="userSpaceOnUse" x="96" y="54" width="98" height="100">
<rect x="192.474" y="55.676" width="96.6764" height="94.7108" transform="rotate(90 192.474 55.676)" fill="#D9D9D9" stroke="black" stroke-width="2.12356"/>
</mask>
<g mask="url(#mask1_7607_14846)">
<rect x="202.907" y="79.2615" width="118.7" height="2.12356" transform="rotate(-180 202.907 79.2615)" fill="white"/>
<rect x="202.907" y="104.758" width="118.7" height="2.12356" transform="rotate(-180 202.907 104.758)" fill="white"/>
<rect x="202.907" y="127.917" width="118.7" height="2.12356" transform="rotate(-180 202.907 127.917)" fill="white"/>
</g>
<mask id="mask2_7607_14846" style="mask-type:alpha" maskUnits="userSpaceOnUse" x="-1" y="245" width="99" height="100">
<rect x="96.8599" y="246.901" width="96.6764" height="96.6764" transform="rotate(90 96.8599 246.901)" fill="#D9D9D9" stroke="black" stroke-width="2.12356"/>
</mask>
<g mask="url(#mask2_7607_14846)">
<rect x="107.483" y="271.336" width="121.11" height="2.12356" transform="rotate(180 107.483 271.336)" fill="white"/>
</g>
<mask id="mask3_7607_14846" style="mask-type:alpha" maskUnits="userSpaceOnUse" x="-1" y="150" width="99" height="99">
<rect x="0.220472" y="151.182" width="96.6764" height="96.6764" fill="#D9D9D9" stroke="black" stroke-width="2.12356"/>
</mask>
<g mask="url(#mask3_7607_14846)">
<rect x="27.0317" y="140.777" width="106.603" height="2.12356" transform="rotate(90 27.0317 140.777)" fill="white"/>
<rect x="43.7427" y="218.748" width="121.11" height="2.12356" fill="white"/>
<rect x="45.7183" y="140.777" width="106.603" height="2.12356" transform="rotate(90 45.7183 140.777)" fill="white"/>
<rect x="43.7427" y="196.438" width="121.11" height="2.12356" fill="white"/>
<rect x="43.7427" y="175.722" width="121.11" height="2.12356" fill="white"/>
</g>
<mask id="mask4_7607_14846" style="mask-type:alpha" maskUnits="userSpaceOnUse" x="96" y="-41" width="98" height="99">
<rect x="192.474" y="-39.938" width="96.8343" height="95.1355" transform="rotate(90 192.474 -39.938)" fill="#D9D9D9" stroke="black" stroke-width="2.12356"/>
</mask>
<g mask="url(#mask4_7607_14846)">
<rect x="231.943" y="-74.8992" width="121.11" height="2.12356" transform="rotate(135 231.943 -74.8992)" fill="white"/>
<rect x="247.717" y="-59.1199" width="121.11" height="2.12356" transform="rotate(135 247.717 -59.1199)" fill="white"/>
<rect x="199.885" y="67.5237" width="177.865" height="2.12356" transform="rotate(-133.784 199.885 67.5237)" fill="white"/>
<rect x="163.886" y="66.8" width="152.572" height="2.12356" transform="rotate(-133.784 163.886 66.8)" fill="white"/>
<rect x="147.777" y="82.2463" width="143.7" height="2.12356" transform="rotate(-133.784 147.777 82.2463)" fill="white"/>
</g>
<rect x="192.474" y="-39.937" width="96.8343" height="95.5602" transform="rotate(90 192.474 -39.937)" stroke="white" stroke-width="2.12356"/>
<rect x="192.474" y="56.897" width="95.5602" height="95.5602" transform="rotate(90 192.474 56.897)" stroke="white" stroke-width="2.12356"/>
<rect x="96.8606" y="246.901" width="96.6764" height="96.6764" transform="rotate(90 96.8606 246.901)" stroke="white" stroke-width="2.12356"/>
<rect x="96.896" y="152.457" width="94.2861" height="96.8343" transform="rotate(90 96.896 152.457)" stroke="white" stroke-width="2.12356"/>
<rect x="96.9136" y="55.6226" width="96.8343" height="96.8343" transform="rotate(90 96.9136 55.6226)" stroke="white" stroke-width="2.12356"/>
<rect x="96.9136" y="-39.937" width="95.5602" height="96.8343" transform="rotate(90 96.9136 -39.937)" stroke="white" stroke-width="2.12356"/>
<mask id="mask5_7607_14846" style="mask-type:alpha" maskUnits="userSpaceOnUse" x="-1" y="55" width="99" height="99">
<rect x="96.9136" y="56.897" width="95.5602" height="96.8343" transform="rotate(90 96.9136 56.897)" fill="#D9D9D9" stroke="black" stroke-width="2.12356"/>
</mask>
<g mask="url(#mask5_7607_14846)">
<rect x="0.0800907" y="56.897" width="256.101" height="168.611" rx="84.3054" stroke="white" stroke-width="2.12356"/>
<rect x="25.6817" y="77.9849" width="205.038" height="131.734" rx="65.8672" stroke="white" stroke-width="2.12356"/>
<rect x="44.8047" y="103.482" width="154.044" height="90.3022" rx="45.1511" stroke="white" stroke-width="2.12356"/>
</g>
<mask id="mask6_7607_14846" style="mask-type:alpha" maskUnits="userSpaceOnUse" x="-1" y="-41" width="98" height="97">
<rect x="0.504163" y="54.7734" width="94.7108" height="95.1355" transform="rotate(-90 0.504163 54.7734)" fill="#D9D9D9" stroke="black" stroke-width="2.12356"/>
</mask>
<g mask="url(#mask6_7607_14846)">
<rect x="102.305" y="56.7392" width="270.307" height="169.98" rx="84.9898" transform="rotate(180 102.305 56.7392)" stroke="white" stroke-width="2.12356"/>
<rect x="78.7624" y="34.4297" width="216.494" height="131.734" rx="65.8672" transform="rotate(180 78.7624 34.4297)" stroke="white" stroke-width="2.12356"/>
<rect x="55.2185" y="8.93358" width="162.68" height="90.3022" rx="45.1511" transform="rotate(180 55.2185 8.93358)" stroke="white" stroke-width="2.12356"/>
</g>
</g>
<g opacity="0.08">
<mask id="mask7_7607_14846" style="mask-type:alpha" maskUnits="userSpaceOnUse" x="628" y="58" width="100" height="97">
<rect x="-1.06178" y="1.06178" width="96.6764" height="94.7108" transform="matrix(-1 0 0 1 724.901 58)" fill="#D9D9D9" stroke="black" stroke-width="2.12356"/>
</mask>
<g mask="url(#mask7_7607_14846)">
<rect width="118.7" height="2.12356" transform="matrix(4.45987e-08 1 1 -4.28418e-08 702.377 48.6289)" fill="white"/>
<rect width="118.7" height="2.12356" transform="matrix(4.45987e-08 1 1 -4.28418e-08 676.881 48.6289)" fill="white"/>
<rect width="118.7" height="2.12356" transform="matrix(4.45987e-08 1 1 -4.28418e-08 653.722 48.6289)" fill="white"/>
</g>
<mask id="mask8_7607_14846" style="mask-type:alpha" maskUnits="userSpaceOnUse" x="436" y="153" width="100" height="100">
<rect x="-1.06178" y="1.06178" width="96.6764" height="96.6764" transform="matrix(-1 0 0 1 533.676 153.614)" fill="#D9D9D9" stroke="black" stroke-width="2.12356"/>
</mask>
<g mask="url(#mask8_7607_14846)">
<rect width="121.11" height="2.12356" transform="matrix(0.707107 0.707107 0.707107 -0.707107 400.099 92.126)" fill="white"/>
<rect width="145.747" height="2.12356" transform="matrix(0.707107 0.707107 0.707107 -0.707107 382.072 110.152)" fill="white"/>
<rect width="168.517" height="2.12356" transform="matrix(0.707107 0.707107 0.707107 -0.707107 366.298 125.933)" fill="white"/>
<rect width="168.517" height="2.12356" transform="matrix(0.707107 0.707107 0.707107 -0.707107 344.268 136.745)" fill="white"/>
<rect width="121.11" height="2.12356" transform="matrix(4.37114e-08 1 1 -4.37114e-08 510.302 144.052)" fill="white"/>
<rect width="121.11" height="2.12356" transform="matrix(4.37114e-08 1 1 -4.37114e-08 484.806 144.053)" fill="white"/>
</g>
<mask id="mask9_7607_14846" style="mask-type:alpha" maskUnits="userSpaceOnUse" x="532" y="153" width="100" height="100">
<rect x="-1.06178" y="-1.06178" width="96.6764" height="96.6764" transform="matrix(4.37114e-08 -1 -1 -4.37114e-08 629.395 250.254)" fill="#D9D9D9" stroke="black" stroke-width="2.12356"/>
</mask>
<g mask="url(#mask9_7607_14846)">
<rect width="106.603" height="2.12356" transform="matrix(-1 0 0 1 640.862 224.504)" fill="white"/>
<rect width="121.11" height="2.12356" transform="matrix(4.37114e-08 -1 -1 -4.37114e-08 562.891 207.793)" fill="white"/>
<rect width="106.603" height="2.12356" transform="matrix(-1 0 0 1 640.862 205.818)" fill="white"/>
<rect width="121.11" height="2.12356" transform="matrix(4.37114e-08 -1 -1 -4.37114e-08 585.201 207.793)" fill="white"/>
<rect width="121.11" height="2.12356" transform="matrix(4.37114e-08 -1 -1 -4.37114e-08 605.917 207.793)" fill="white"/>
</g>
<mask id="mask10_7607_14846" style="mask-type:alpha" maskUnits="userSpaceOnUse" x="723" y="58" width="100" height="98">
<rect x="-1.06178" y="1.06178" width="96.8343" height="95.1355" transform="matrix(-1 0 0 1 820.515 58)" fill="#D9D9D9" stroke="black" stroke-width="2.12356"/>
</mask>
<g mask="url(#mask10_7607_14846)">
<rect width="121.11" height="2.12356" transform="matrix(-0.707107 0.707107 0.707107 0.707107 874.566 37.626)" fill="white"/>
<rect width="121.11" height="2.12356" transform="matrix(-0.707107 0.707107 0.707107 0.707107 856.538 19.5928)" fill="white"/>
<rect width="121.11" height="2.12356" transform="matrix(-0.707107 0.707107 0.707107 0.707107 840.759 3.81934)" fill="white"/>
<rect width="177.865" height="2.12356" transform="matrix(0.721949 0.691947 0.691947 -0.721949 714.115 51.6514)" fill="white"/>
<rect width="152.572" height="2.12356" transform="matrix(0.721949 0.691947 0.691947 -0.721949 714.839 87.6494)" fill="white"/>
<rect width="143.7" height="2.12356" transform="matrix(0.721949 0.691947 0.691947 -0.721949 699.393 103.759)" fill="white"/>
</g>
<rect x="-1.06178" y="1.06178" width="96.8343" height="95.5602" transform="matrix(-1 0 0 1 820.514 58)" stroke="white" stroke-width="2.12356"/>
<rect x="-1.06178" y="1.06178" width="95.5602" height="95.5602" transform="matrix(-1 0 0 1 723.68 58)" stroke="white" stroke-width="2.12356"/>
<rect x="-1.06178" y="1.06178" width="96.6764" height="96.6764" transform="matrix(-1 0 0 1 533.676 153.614)" stroke="white" stroke-width="2.12356"/>
<rect x="-1.06178" y="1.06178" width="94.2861" height="96.8343" transform="matrix(-1 0 0 1 628.12 153.578)" stroke="white" stroke-width="2.12356"/>
<rect x="-1.06178" y="1.06178" width="96.8343" height="96.8343" transform="matrix(-1 0 0 1 724.955 153.561)" stroke="white" stroke-width="2.12356"/>
<rect x="-1.06178" y="1.06178" width="95.5602" height="96.8343" transform="matrix(-1 0 0 1 820.514 153.561)" stroke="white" stroke-width="2.12356"/>
<mask id="mask11_7607_14846" style="mask-type:alpha" maskUnits="userSpaceOnUse" x="628" y="153" width="98" height="100">
<rect x="-1.06178" y="1.06178" width="95.5602" height="96.8343" transform="matrix(-1 0 0 1 723.68 153.561)" fill="#D9D9D9" stroke="black" stroke-width="2.12356"/>
</mask>
<g mask="url(#mask11_7607_14846)">
<rect x="-1.06178" y="-1.06178" width="256.101" height="168.611" rx="84.3054" transform="matrix(4.37114e-08 -1 -1 -4.37114e-08 723.68 250.394)" stroke="white" stroke-width="2.12356"/>
<rect x="-1.06178" y="-1.06178" width="205.038" height="131.734" rx="65.8672" transform="matrix(4.37114e-08 -1 -1 -4.37114e-08 702.592 224.792)" stroke="white" stroke-width="2.12356"/>
<rect x="-1.06178" y="-1.06178" width="154.044" height="90.3022" rx="45.1511" transform="matrix(4.37114e-08 -1 -1 -4.37114e-08 677.095 205.669)" stroke="white" stroke-width="2.12356"/>
</g>
<mask id="mask12_7607_14846" style="mask-type:alpha" maskUnits="userSpaceOnUse" x="725" y="154" width="98" height="99">
<rect x="1.06178" y="-1.06178" width="94.7108" height="95.1355" transform="matrix(1 0 0 -1 725.804 249.97)" fill="#D9D9D9" stroke="black" stroke-width="2.12356"/>
</mask>
<g mask="url(#mask12_7607_14846)">
<rect x="1.06178" y="1.06178" width="270.307" height="169.98" rx="84.9898" transform="matrix(-4.14208e-08 1 1 4.61286e-08 723.838 148.169)" stroke="white" stroke-width="2.12356"/>
<rect x="1.06178" y="1.06178" width="216.494" height="131.734" rx="65.8672" transform="matrix(-4.14208e-08 1 1 4.61286e-08 746.147 171.712)" stroke="white" stroke-width="2.12356"/>
<rect x="1.06178" y="1.06178" width="162.68" height="90.3022" rx="45.1511" transform="matrix(-4.14208e-08 1 1 4.61286e-08 771.644 195.256)" stroke="white" stroke-width="2.12356"/>
</g>
</g>
</g>
<defs>
<clipPath id="clip0_7607_14846">
<rect width="820" height="275" fill="white"/>
</clipPath>
</defs>
</svg>
