<svg width="475" height="562" viewBox="0 0 475 562" fill="none" xmlns="http://www.w3.org/2000/svg">
<g clip-path="url(#clip0_7786_16662)">
<g opacity="0.08">
<mask id="mask0_7786_16662" style="mask-type:alpha" maskUnits="userSpaceOnUse" x="236" y="228" width="239" height="243">
<rect x="-1.5" y="-1.5" width="238.419" height="236" transform="matrix(4.37114e-08 -1 -1 -4.37114e-08 472 467.296)" fill="#D9D9D9" stroke="black" stroke-width="3"/>
</mask>
<g mask="url(#mask0_7786_16662)">
<rect width="292.968" height="3" transform="matrix(-1 4.42384e-10 -4.3795e-10 1 498 413.928)" fill="white"/>
<rect width="292.968" height="3" transform="matrix(-1 4.42384e-10 -4.3795e-10 1 498 349.928)" fill="white"/>
<rect width="292.968" height="3" transform="matrix(-1 4.42384e-10 -4.3795e-10 1 498.129 291.178)" fill="white"/>
</g>
<mask id="mask1_7786_16662" style="mask-type:alpha" maskUnits="userSpaceOnUse" x="0" y="-1" width="237" height="233">
<rect x="1.5" y="-1.5" width="234" height="229" transform="matrix(1 8.74228e-08 8.74228e-08 -1 1.31134e-07 228.928)" fill="#D9D9D9" stroke="black" stroke-width="3"/>
</mask>
<g mask="url(#mask1_7786_16662)">
<rect width="255.096" height="2.94465" transform="matrix(4.36115e-08 -1 -1 -4.3811e-08 65.8867 254.288)" fill="white"/>
<rect width="290.473" height="2.93794" transform="matrix(1 8.74228e-08 8.74228e-08 -1 109.967 67.7037)" fill="white"/>
<rect width="255.096" height="2.94465" transform="matrix(4.36115e-08 -1 -1 -4.3811e-08 110.707 254.288)" fill="white"/>
<rect width="290.473" height="2.93794" transform="matrix(1 8.74228e-08 8.74228e-08 -1 109.967 121.092)" fill="white"/>
<rect width="290.473" height="2.93794" transform="matrix(1 8.74228e-08 8.74228e-08 -1 109.967 170.667)" fill="white"/>
</g>
<mask id="mask2_7786_16662" style="mask-type:alpha" maskUnits="userSpaceOnUse" x="234" y="466" width="241" height="238">
<rect x="-1.5" y="-1.5" width="234" height="238" transform="matrix(4.37114e-08 -1 -1 -4.37114e-08 472 700.929)" fill="#D9D9D9" stroke="black" stroke-width="3"/>
</mask>
<g mask="url(#mask2_7786_16662)">
<rect width="295.933" height="3" transform="matrix(-0.707107 -0.707107 -0.707107 0.707107 607.391 748.203)" fill="white"/>
<rect width="434.616" height="3" transform="matrix(-0.691947 0.721949 0.721949 0.691947 490.516 438.75)" fill="white"/>
<rect width="372.811" height="3" transform="matrix(-0.691947 0.721949 0.721949 0.691947 402.553 440.515)" fill="white"/>
<rect width="351.132" height="3" transform="matrix(-0.691947 0.721949 0.721949 0.691947 363.189 402.777)" fill="white"/>
</g>
<rect x="-1.5" y="-1.5" width="234" height="238" transform="matrix(4.37114e-08 -1 -1 -4.37114e-08 472 700.928)" stroke="white" stroke-width="3"/>
<rect x="-1.5" y="-1.5" width="238" height="238" transform="matrix(4.37114e-08 -1 -1 -4.37114e-08 472 466.928)" stroke="white" stroke-width="3"/>
<rect x="-1.5" y="-1.5" width="229" height="234" transform="matrix(4.37114e-08 -1 -1 -4.37114e-08 234 228.928)" stroke="white" stroke-width="3"/>
<rect x="-1.5" y="-1.5" width="238" height="234" transform="matrix(4.37114e-08 -1 -1 -4.37114e-08 234 466.928)" stroke="white" stroke-width="3"/>
<rect x="-1.5" y="-1.5" width="234" height="234" transform="matrix(4.37114e-08 -1 -1 -4.37114e-08 234 700.928)" stroke="white" stroke-width="3"/>
<mask id="mask3_7786_16662" style="mask-type:alpha" maskUnits="userSpaceOnUse" x="0" y="228" width="237" height="242">
<rect x="-1.5" y="-1.5" width="238" height="234" transform="matrix(4.37114e-08 -1 -1 -4.37114e-08 234 466.928)" fill="#D9D9D9" stroke="black" stroke-width="3"/>
</mask>
<g mask="url(#mask3_7786_16662)">
<rect x="1.5" y="-1.5" width="616.243" height="428.515" rx="214.258" transform="matrix(1 8.97802e-08 8.5186e-08 -1 -0.308594 472.495)" stroke="white" stroke-width="3"/>
<rect x="1.5" y="-1.5" width="493.788" height="335.314" rx="167.657" transform="matrix(1 8.97802e-08 8.5186e-08 -1 61.0859 414.196)" stroke="white" stroke-width="3"/>
<rect x="1.5" y="-1.5" width="371.502" height="230.598" rx="115.299" transform="matrix(1 8.97802e-08 8.5186e-08 -1 106.943 349.756)" stroke="white" stroke-width="3"/>
</g>
<mask id="mask4_7786_16662" style="mask-type:alpha" maskUnits="userSpaceOnUse" x="1" y="466" width="235" height="238">
<rect x="1.5" y="1.5" width="234" height="232" transform="matrix(-4.37114e-08 1 1 4.37114e-08 1 466.929)" fill="#D9D9D9" stroke="black" stroke-width="3"/>
</mask>
<g mask="url(#mask4_7786_16662)">
<rect x="-1.5" y="1.5" width="627.804" height="417.536" rx="208.768" transform="matrix(-1 -8.74228e-08 -8.74228e-08 1 238.365 462.507)" stroke="white" stroke-width="3"/>
<rect x="-1.5" y="1.5" width="503.201" height="324.084" rx="162.042" transform="matrix(-1 -8.74228e-08 -8.74228e-08 1 183.85 517.019)" stroke="white" stroke-width="3"/>
</g>
</g>
</g>
<defs>
<clipPath id="clip0_7786_16662">
<rect width="475" height="562" fill="white"/>
</clipPath>
</defs>
</svg>
