<svg width="472" height="701" viewBox="0 0 472 701" fill="none" xmlns="http://www.w3.org/2000/svg">
<g opacity="0.08">
<mask id="mask0_7481_10128" style="mask-type:alpha" maskUnits="userSpaceOnUse" x="-3" y="230" width="239" height="243">
<rect x="1.5" y="1.5" width="238.419" height="236" transform="matrix(-4.37114e-08 1 1 4.37114e-08 -3 230.634)" fill="#D9D9D9" stroke="black" stroke-width="3"/>
</mask>
<g mask="url(#mask0_7481_10128)">
<rect width="292.968" height="3" transform="matrix(1 -4.42384e-10 4.3795e-10 -1 -26 287.001)" fill="white"/>
<rect width="292.968" height="3" transform="matrix(1 -4.42384e-10 4.3795e-10 -1 -26 351.001)" fill="white"/>
<rect width="292.968" height="3" transform="matrix(1 -4.42384e-10 4.3795e-10 -1 -26.1289 409.751)" fill="white"/>
</g>
<mask id="mask1_7481_10128" style="mask-type:alpha" maskUnits="userSpaceOnUse" x="235" y="469" width="237" height="233">
<rect x="-1.5" y="1.5" width="234" height="229" transform="matrix(-1 -8.74228e-08 -8.74228e-08 1 469 469.001)" fill="#D9D9D9" stroke="black" stroke-width="3"/>
</mask>
<g mask="url(#mask1_7481_10128)">
<rect width="255.096" height="2.94465" transform="matrix(-4.36115e-08 1 1 4.3811e-08 406.113 446.642)" fill="white"/>
<rect width="290.473" height="2.93794" transform="matrix(-1 -8.74228e-08 -8.74228e-08 1 362.031 633.226)" fill="white"/>
<rect width="255.096" height="2.94465" transform="matrix(-4.36115e-08 1 1 4.3811e-08 361.293 446.642)" fill="white"/>
<rect width="290.473" height="2.93794" transform="matrix(-1 -8.74228e-08 -8.74228e-08 1 362.031 579.837)" fill="white"/>
<rect width="290.473" height="2.93794" transform="matrix(-1 -8.74228e-08 -8.74228e-08 1 362.031 530.263)" fill="white"/>
</g>
<mask id="mask2_7481_10128" style="mask-type:alpha" maskUnits="userSpaceOnUse" x="-3" y="-3" width="241" height="237">
<rect x="1.5" y="1.5" width="234" height="238" transform="matrix(-4.37114e-08 1 1 4.37114e-08 -3 -3)" fill="#D9D9D9" stroke="black" stroke-width="3"/>
</mask>
<g mask="url(#mask2_7481_10128)">
<rect width="295.933" height="3" transform="matrix(0.707107 0.707107 0.707107 -0.707107 -52.7812 -129.885)" fill="white"/>
<rect width="295.933" height="3" transform="matrix(0.707107 0.707107 0.707107 -0.707107 -96.8477 -85.834)" fill="white"/>
<rect width="295.933" height="3" transform="matrix(0.707107 0.707107 0.707107 -0.707107 -135.391 -47.2734)" fill="white"/>
<rect width="434.616" height="3" transform="matrix(0.691947 -0.721949 -0.721949 -0.691947 -18.5156 262.18)" fill="white"/>
<rect width="372.811" height="3" transform="matrix(0.691947 -0.721949 -0.721949 -0.691947 69.4453 260.414)" fill="white"/>
<rect width="351.132" height="3" transform="matrix(0.691947 -0.721949 -0.721949 -0.691947 108.812 298.152)" fill="white"/>
</g>
<rect x="1.5" y="1.5" width="234" height="238" transform="matrix(-4.37114e-08 1 1 4.37114e-08 -3 -2.99902)" stroke="white" stroke-width="3"/>
<rect x="1.5" y="1.5" width="238" height="238" transform="matrix(-4.37114e-08 1 1 4.37114e-08 -3 231.001)" stroke="white" stroke-width="3"/>
<rect x="1.5" y="1.5" width="229" height="234" transform="matrix(-4.37114e-08 1 1 4.37114e-08 235 469.001)" stroke="white" stroke-width="3"/>
<rect x="1.5" y="1.5" width="238" height="234" transform="matrix(-4.37114e-08 1 1 4.37114e-08 235 231.001)" stroke="white" stroke-width="3"/>
<rect x="1.5" y="1.5" width="234" height="234" transform="matrix(-4.37114e-08 1 1 4.37114e-08 235 -2.99902)" stroke="white" stroke-width="3"/>
<mask id="mask3_7481_10128" style="mask-type:alpha" maskUnits="userSpaceOnUse" x="235" y="231" width="237" height="242">
<rect x="1.5" y="1.5" width="238" height="234" transform="matrix(-4.37114e-08 1 1 4.37114e-08 235 231.001)" fill="#D9D9D9" stroke="black" stroke-width="3"/>
</mask>
<g mask="url(#mask3_7481_10128)">
<rect x="-1.5" y="1.5" width="616.243" height="428.515" rx="214.258" transform="matrix(-1 -8.97802e-08 -8.5186e-08 1 469.309 225.435)" stroke="white" stroke-width="3"/>
<rect x="-1.5" y="1.5" width="493.788" height="335.314" rx="167.657" transform="matrix(-1 -8.97802e-08 -8.5186e-08 1 407.914 283.733)" stroke="white" stroke-width="3"/>
<rect x="-1.5" y="1.5" width="371.502" height="230.598" rx="115.299" transform="matrix(-1 -8.97802e-08 -8.5186e-08 1 362.055 348.173)" stroke="white" stroke-width="3"/>
</g>
<mask id="mask4_7481_10128" style="mask-type:alpha" maskUnits="userSpaceOnUse" x="236" y="-3" width="235" height="237">
<rect x="-1.5" y="-1.5" width="234" height="232" transform="matrix(4.37114e-08 -1 -1 -4.37114e-08 468 231)" fill="#D9D9D9" stroke="black" stroke-width="3"/>
</mask>
<g mask="url(#mask4_7481_10128)">
<rect x="1.5" y="-1.5" width="627.804" height="417.536" rx="208.768" transform="matrix(1 8.74228e-08 8.74228e-08 -1 230.633 235.422)" stroke="white" stroke-width="3"/>
<rect x="1.5" y="-1.5" width="503.201" height="324.084" rx="162.042" transform="matrix(1 8.74228e-08 8.74228e-08 -1 285.148 180.91)" stroke="white" stroke-width="3"/>
<rect x="1.5" y="-1.5" width="378.597" height="222.843" rx="111.422" transform="matrix(1 8.74228e-08 8.74228e-08 -1 339.664 118.607)" stroke="white" stroke-width="3"/>
</g>
</g>
</svg>
