<svg width="460" height="678" viewBox="0 0 460 678" fill="none" xmlns="http://www.w3.org/2000/svg">
<g clip-path="url(#clip0_7868_33458)">
<g opacity="0.08">
<mask id="mask0_7868_33458" style="mask-type:alpha" maskUnits="userSpaceOnUse" x="2" y="226" width="228" height="234">
<rect x="2.5" y="2.5" width="227.628" height="223" transform="matrix(-4.37114e-08 1 1 4.37114e-08 2.00001 226.497)" fill="#D9D9D9" stroke="black" stroke-width="5"/>
</mask>
<g mask="url(#mask0_7868_33458)">
<rect width="279.484" height="5" transform="matrix(1 -8.87287e-10 8.69633e-10 -1 -20.0644 284.53)" fill="white"/>
<rect width="279.484" height="5" transform="matrix(1 -8.87287e-10 8.69633e-10 -1 -20.0644 344.563)" fill="white"/>
<rect width="279.484" height="5" transform="matrix(1 -8.87287e-10 8.69633e-10 -1 -20.0645 399.091)" fill="white"/>
</g>
<mask id="mask1_7868_33458" style="mask-type:alpha" maskUnits="userSpaceOnUse" x="227" y="451" width="233" height="233">
<rect x="-2.5" y="2.5" width="227.628" height="227.628" transform="matrix(-1 -8.74228e-08 -8.74228e-08 1 454.67 451.372)" fill="#D9D9D9" stroke="black" stroke-width="5"/>
</mask>
<g mask="url(#mask1_7868_33458)">
<rect width="251" height="5" transform="matrix(-4.37114e-08 1 1 4.37114e-08 394.043 429.372)" fill="white"/>
<rect width="285.157" height="5" transform="matrix(-1 -8.74228e-08 -8.74228e-08 1 354.695 612.958)" fill="white"/>
<rect width="251" height="5" transform="matrix(-4.37114e-08 1 1 4.37114e-08 350.043 429.372)" fill="white"/>
<rect width="285.157" height="5" transform="matrix(-1 -8.74228e-08 -8.74228e-08 1 354.695 560.429)" fill="white"/>
<rect width="285.157" height="5" transform="matrix(-1 -8.74228e-08 -8.74228e-08 1 354.695 511.651)" fill="white"/>
</g>
<mask id="mask2_7868_33458" style="mask-type:alpha" maskUnits="userSpaceOnUse" x="2" y="1" width="229" height="234">
<rect x="2.5" y="2.5" width="228" height="224" transform="matrix(-4.37114e-08 1 1 4.37114e-08 2.00001 1.37189)" fill="#D9D9D9" stroke="black" stroke-width="5"/>
</mask>
<g mask="url(#mask2_7868_33458)">
<rect width="285.157" height="5" transform="matrix(0.707107 0.707107 0.707107 -0.707107 -45.9707 -120.894)" fill="white"/>
<rect width="285.157" height="5" transform="matrix(0.707107 0.707107 0.707107 -0.707107 -88.4297 -78.4464)" fill="white"/>
<rect width="285.157" height="5" transform="matrix(0.707107 0.707107 0.707107 -0.707107 -125.57 -41.2922)" fill="white"/>
<rect width="418.791" height="5" transform="matrix(0.691947 -0.721949 -0.721949 -0.691947 -12.9492 256.893)" fill="white"/>
<rect width="359.236" height="5" transform="matrix(0.691947 -0.721949 -0.721949 -0.691947 71.8086 255.192)" fill="white"/>
<rect width="338.346" height="5" transform="matrix(0.691947 -0.721949 -0.721949 -0.691947 109.74 291.557)" fill="white"/>
</g>
<rect x="2.5" y="2.5" width="228" height="225" transform="matrix(-4.37114e-08 1 1 4.37114e-08 2.00001 1.37189)" stroke="white" stroke-width="5"/>
<rect x="2.5" y="2.5" width="225" height="225" transform="matrix(-4.37114e-08 1 1 4.37114e-08 2.00001 229.372)" stroke="white" stroke-width="5"/>
<rect x="2.5" y="2.5" width="222" height="228" transform="matrix(-4.37114e-08 1 1 4.37114e-08 227.043 454.372)" stroke="white" stroke-width="5"/>
<rect x="2.5" y="2.5" width="228" height="228" transform="matrix(-4.37114e-08 1 1 4.37114e-08 227 226.372)" stroke="white" stroke-width="5"/>
<rect x="2.5" y="2.5" width="225" height="228" transform="matrix(-4.37114e-08 1 1 4.37114e-08 227 1.37189)" stroke="white" stroke-width="5"/>
<mask id="mask3_7868_33458" style="mask-type:alpha" maskUnits="userSpaceOnUse" x="227" y="229" width="233" height="231">
<rect x="2.5" y="2.5" width="225" height="228" transform="matrix(-4.37114e-08 1 1 4.37114e-08 227 229.37)" fill="#D9D9D9" stroke="black" stroke-width="5"/>
</mask>
<g mask="url(#mask3_7868_33458)">
<rect x="-2.5" y="2.5" width="603" height="397" rx="198.5" transform="matrix(-1 -8.74228e-08 -8.74228e-08 1 455 229.37)" stroke="white" stroke-width="5"/>
<rect x="-2.5" y="2.5" width="482.769" height="310.174" rx="155.087" transform="matrix(-1 -8.74228e-08 -8.74228e-08 1 394.721 279.022)" stroke="white" stroke-width="5"/>
<rect x="-2.5" y="2.5" width="362.702" height="212.62" rx="106.31" transform="matrix(-1 -8.74228e-08 -8.74228e-08 1 349.695 339.055)" stroke="white" stroke-width="5"/>
</g>
<mask id="mask4_7868_33458" style="mask-type:alpha" maskUnits="userSpaceOnUse" x="230" y="1" width="229" height="229">
<rect x="-2.5" y="-2.5" width="223" height="224" transform="matrix(4.37114e-08 -1 -1 -4.37114e-08 454 224.372)" fill="#D9D9D9" stroke="black" stroke-width="5"/>
</mask>
<g mask="url(#mask4_7868_33458)">
<rect x="2.5" y="-2.5" width="636.448" height="400.223" rx="200.112" transform="matrix(1 8.51322e-08 8.984e-08 -1 214.304 229.001)" stroke="white" stroke-width="5"/>
<rect x="2.5" y="-2.5" width="509.742" height="310.174" rx="155.087" transform="matrix(1 8.51322e-08 8.984e-08 -1 269.738 176.473)" stroke="white" stroke-width="5"/>
<rect x="2.5" y="-2.5" width="383.036" height="212.62" rx="106.31" transform="matrix(1 8.51322e-08 8.984e-08 -1 325.172 116.44)" stroke="white" stroke-width="5"/>
</g>
</g>
</g>
<defs>
<clipPath id="clip0_7868_33458">
<rect width="460" height="678" fill="white"/>
</clipPath>
</defs>
</svg>
