<svg width="48" height="48" viewBox="0 0 48 48" fill="none" xmlns="http://www.w3.org/2000/svg">
<rect x="0.769231" y="0.769231" width="46.4615" height="46.4615" rx="11.5385" fill="#F1F3F7" stroke="#353E5C" stroke-width="1.53846"/>
<mask id="mask0_5462_57797" style="mask-type:alpha" maskUnits="userSpaceOnUse" x="1" y="1" width="46" height="46">
<rect x="1.68079" y="1.84967" width="44.6131" height="44.6024" rx="10.7692" fill="#E1E4ED"/>
</mask>
<g mask="url(#mask0_5462_57797)">
<line x1="32.8077" y1="6.10133e-05" x2="32.8077" y2="50.0481" stroke="#B4B9C9"/>
<line x1="41.1155" y1="6.10133e-05" x2="41.1155" y2="50.0481" stroke="#B4B9C9"/>
<line x1="24.5" y1="6.10133e-05" x2="24.5" y2="50.0481" stroke="#B4B9C9"/>
<line x1="7.88464" y1="6.10133e-05" x2="7.88465" y2="50.0481" stroke="#B4B9C9"/>
<line x1="16.1924" y1="6.10133e-05" x2="16.1924" y2="50.0481" stroke="#B4B9C9"/>
<line x1="-1.02405" y1="16.2164" x2="49.024" y2="16.2164" stroke="#B4B9C9"/>
<line x1="-1.02405" y1="7.90863" x2="49.024" y2="7.90863" stroke="#B4B9C9"/>
<line x1="-1.02405" y1="24.524" x2="49.024" y2="24.524" stroke="#B4B9C9"/>
<line x1="-1.02405" y1="41.1394" x2="49.024" y2="41.1394" stroke="#B4B9C9"/>
<line x1="-1.02405" y1="32.8318" x2="49.024" y2="32.8318" stroke="#B4B9C9"/>
<rect x="1.41187" y="1.53467" width="45.0024" height="44.9916" rx="10.7692" fill="url(#paint0_radial_5462_57797)"/>
<rect x="13.7393" y="16.1887" width="20.3778" height="18.0419" fill="white"/>
<path d="M12.8015 30.3294L17.0433 24.9335C18.2462 23.4034 20.5471 23.3534 21.8153 24.8297L25.5447 29.1709M22.3241 25.4221C23.9262 23.3843 26.1584 20.4971 26.3037 20.3093C26.3088 20.3026 26.3137 20.2962 26.319 20.2896C27.5241 18.7694 29.8176 18.7228 31.0831 20.1958L34.8124 24.537M15.8908 35.3494H32.1093C33.8155 35.3494 35.1986 33.9663 35.1986 32.2601V16.0416C35.1986 14.3354 33.8155 12.9523 32.1093 12.9523H15.8908C14.1846 12.9523 12.8015 14.3354 12.8015 16.0416V32.2601C12.8015 33.9663 14.1846 35.3494 15.8908 35.3494Z" fill="white"/>
<path d="M12.8015 30.3294L17.0433 24.9335C18.2462 23.4034 20.5471 23.3534 21.8153 24.8297L25.5447 29.1709M22.3241 25.4221C23.9262 23.3843 26.1584 20.4971 26.3037 20.3093C26.3088 20.3026 26.3137 20.2962 26.319 20.2896C27.5241 18.7694 29.8176 18.7228 31.0831 20.1958L34.8124 24.537M15.8908 35.3494H32.1093C33.8155 35.3494 35.1986 33.9663 35.1986 32.2601V16.0416C35.1986 14.3354 33.8155 12.9523 32.1093 12.9523H15.8908C14.1846 12.9523 12.8015 14.3354 12.8015 16.0416V32.2601C12.8015 33.9663 14.1846 35.3494 15.8908 35.3494Z" stroke="#353E5C" stroke-width="1.23077" stroke-linecap="round" stroke-linejoin="round"/>
<path d="M32.6158 34.7284H15.7568H15.3597C14.2552 34.7284 13.3597 33.8329 13.3597 32.7284V30.514L17.6237 25.2436C18.566 24.079 20.3333 24.0527 21.3097 25.1889L25.0844 29.581C25.2359 29.7573 25.4741 29.8325 25.6994 29.7753C26.1414 29.6629 26.3097 29.124 26.0101 28.78L23.0951 25.4334L27.1288 20.2425C27.8987 19.2517 29.3803 19.2064 30.2094 20.1484L34.6158 25.1551V32.7284C34.6158 33.8329 33.7204 34.7284 32.6158 34.7284Z" fill="#E1E4ED"/>
</g>
<defs>
<radialGradient id="paint0_radial_5462_57797" cx="0" cy="0" r="1" gradientUnits="userSpaceOnUse" gradientTransform="translate(23.9131 24.0305) rotate(90) scale(22.4958 22.5012)">
<stop stop-color="#F6FAFD" stop-opacity="0.28"/>
<stop offset="1" stop-color="#F6FAFD"/>
</radialGradient>
</defs>
</svg>
