<svg width="143" height="30" viewBox="0 0 143 30" fill="none" xmlns="http://www.w3.org/2000/svg">
<path d="M43.5291 5.3792L48.6354 20.8229H48.8366L53.9334 5.3792H57.8423L50.9252 25H46.5373L39.6298 5.3792H43.5291ZM65.2073 25.2874C63.7319 25.2874 62.4577 24.9808 61.3846 24.3677C60.318 23.7482 59.4973 22.8731 58.9225 21.7426C58.3476 20.6058 58.0602 19.2677 58.0602 17.7284C58.0602 16.2147 58.3476 14.8862 58.9225 13.743C59.5037 12.5933 60.3148 11.6991 61.3559 11.0604C62.397 10.4153 63.6201 10.0928 65.0252 10.0928C65.9322 10.0928 66.788 10.2397 67.5928 10.5335C68.4039 10.8209 69.1193 11.268 69.7388 11.8748C70.3647 12.4815 70.8565 13.2543 71.2142 14.1932C71.5719 15.1257 71.7507 16.2371 71.7507 17.5272V18.5907H59.6889V16.253H68.4263C68.4199 15.5888 68.2762 14.998 67.9952 14.4806C67.7141 13.9569 67.3213 13.545 66.8168 13.2448C66.3186 12.9446 65.7374 12.7945 65.0731 12.7945C64.3642 12.7945 63.7414 12.9669 63.2049 13.3118C62.6684 13.6503 62.2501 14.0974 61.9499 14.6531C61.6561 15.2024 61.506 15.8059 61.4996 16.4638V18.5044C61.4996 19.3603 61.6561 20.0948 61.9691 20.708C62.282 21.3147 62.7195 21.781 63.2816 22.1067C63.8436 22.426 64.5015 22.5857 65.2552 22.5857C65.7597 22.5857 66.2164 22.5155 66.6252 22.375C67.0339 22.2281 67.3884 22.0141 67.6886 21.7331C67.9888 21.452 68.2155 21.1039 68.3688 20.6888L71.607 21.0528C71.4026 21.9087 71.013 22.656 70.4382 23.2947C69.8697 23.927 69.1416 24.4188 68.2538 24.7701C67.3661 25.115 66.3505 25.2874 65.2073 25.2874ZM78.1529 16.3776V25H74.6847V10.2844H77.9996V12.7849H78.172C78.5105 11.961 79.0502 11.3063 79.7911 10.8209C80.5384 10.3355 81.4613 10.0928 82.5599 10.0928C83.5754 10.0928 84.46 10.31 85.2137 10.7443C85.9737 11.1786 86.5613 11.8077 86.9765 12.6316C87.398 13.4555 87.6056 14.4551 87.5992 15.6303V25H84.1311V16.1668C84.1311 15.1832 83.8756 14.4136 83.3646 13.8579C82.8601 13.3022 82.1607 13.0244 81.2665 13.0244C80.6597 13.0244 80.12 13.1585 79.6474 13.4268C79.1812 13.6887 78.8139 14.0687 78.5457 14.5669C78.2838 15.0651 78.1529 15.6686 78.1529 16.3776ZM98.473 10.2844V12.9669H90.0135V10.2844H98.473ZM92.102 6.75879H95.5701V20.5738C95.5701 21.0401 95.6404 21.3977 95.7809 21.6468C95.9278 21.8895 96.1194 22.0556 96.3557 22.145C96.5921 22.2344 96.8539 22.2791 97.1413 22.2791C97.3585 22.2791 97.5565 22.2632 97.7353 22.2312C97.9206 22.1993 98.0611 22.1706 98.1569 22.145L98.7413 24.8563C98.5561 24.9202 98.291 24.9904 97.9461 25.0671C97.6076 25.1437 97.1924 25.1884 96.7006 25.2012C95.832 25.2267 95.0496 25.0958 94.3534 24.8084C93.6572 24.5146 93.1048 24.0611 92.696 23.448C92.2936 22.8348 92.0956 22.0684 92.102 21.1487V6.75879ZM110.753 18.811V10.2844H114.221V25H110.858V22.3845H110.705C110.373 23.2085 109.827 23.8823 109.067 24.406C108.313 24.9297 107.384 25.1916 106.279 25.1916C105.314 25.1916 104.462 24.9776 103.721 24.5497C102.986 24.1154 102.411 23.4863 101.996 22.6624C101.581 21.8321 101.374 20.8293 101.374 19.6541V10.2844H104.842V19.1176C104.842 20.0501 105.097 20.791 105.608 21.3403C106.119 21.8895 106.79 22.1642 107.62 22.1642C108.131 22.1642 108.626 22.0396 109.105 21.7905C109.584 21.5415 109.977 21.171 110.283 20.6792C110.596 20.181 110.753 19.5583 110.753 18.811ZM117.787 25V10.2844H121.15V12.737H121.303C121.572 11.8875 122.031 11.2329 122.683 10.773C123.341 10.3068 124.091 10.0736 124.934 10.0736C125.126 10.0736 125.34 10.0832 125.576 10.1024C125.819 10.1151 126.02 10.1375 126.18 10.1694V13.3597C126.033 13.3086 125.8 13.2639 125.48 13.2256C125.167 13.1809 124.864 13.1585 124.57 13.1585C123.938 13.1585 123.369 13.2959 122.865 13.5705C122.367 13.8388 121.974 14.2124 121.686 14.6914C121.399 15.1704 121.255 15.7229 121.255 16.3488V25H117.787ZM134.393 25.2874C132.917 25.2874 131.643 24.9808 130.57 24.3677C129.503 23.7482 128.683 22.8731 128.108 21.7426C127.533 20.6058 127.246 19.2677 127.246 17.7284C127.246 16.2147 127.533 14.8862 128.108 13.743C128.689 12.5933 129.5 11.6991 130.541 11.0604C131.582 10.4153 132.805 10.0928 134.211 10.0928C135.118 10.0928 135.973 10.2397 136.778 10.5335C137.589 10.8209 138.305 11.268 138.924 11.8748C139.55 12.4815 140.042 13.2543 140.4 14.1932C140.757 15.1257 140.936 16.2371 140.936 17.5272V18.5907H128.874V16.253H137.612C137.605 15.5888 137.462 14.998 137.181 14.4806C136.899 13.9569 136.507 13.545 136.002 13.2448C135.504 12.9446 134.923 12.7945 134.258 12.7945C133.55 12.7945 132.927 12.9669 132.39 13.3118C131.854 13.6503 131.435 14.0974 131.135 14.6531C130.841 15.2024 130.691 15.8059 130.685 16.4638V18.5044C130.685 19.3603 130.841 20.0948 131.154 20.708C131.467 21.3147 131.905 21.781 132.467 22.1067C133.029 22.426 133.687 22.5857 134.44 22.5857C134.945 22.5857 135.402 22.5155 135.811 22.375C136.219 22.2281 136.574 22.0141 136.874 21.7331C137.174 21.452 137.401 21.1039 137.554 20.6888L140.792 21.0528C140.588 21.9087 140.198 22.656 139.624 23.2947C139.055 23.927 138.327 24.4188 137.439 24.7701C136.551 25.115 135.536 25.2874 134.393 25.2874Z" fill="white"/>
<path fill-rule="evenodd" clip-rule="evenodd" d="M10.9436 0.0245972C10.418 0.0245972 9.99195 0.450656 9.99195 0.976224V10.0167C4.47354 10.0168 0 14.4903 0 20.0088C0 25.5272 4.47361 30.0008 9.99207 30.0008H19.0325C19.5581 30.0008 19.9841 29.5748 19.9841 29.0492V20.0087C25.5026 20.0087 29.9761 15.5351 29.9761 10.0167C29.9761 4.4982 25.5025 0.0245972 19.984 0.0245972H10.9436ZM19.9841 20.0087V10.9683C19.9841 10.4428 19.5581 10.0167 19.0325 10.0167H9.99207C9.99203 10.0167 9.99199 10.0167 9.99195 10.0167V19.0571C9.99195 19.5827 10.418 20.0087 10.9436 20.0087H19.984C19.9841 20.0087 19.9841 20.0087 19.9841 20.0087Z" fill="white"/>
<path d="M10.8366 0.0245972C10.3702 0.0245972 9.99219 0.402648 9.99219 0.868997L9.99219 10.0167H19.1399C19.6062 10.0167 19.9843 10.3947 19.9843 10.8611L19.9843 20.0087C25.5027 20.0087 29.9763 15.5351 29.9763 10.0167C29.9763 4.4982 25.5027 0.0245972 19.9843 0.0245972H10.8366Z" fill="white"/>
</svg>
