<svg width="106" height="24" viewBox="0 0 106 24" fill="none" xmlns="http://www.w3.org/2000/svg">
<path d="M33.16 19H30.2626L35.5378 4.01587H38.8888L44.1713 19H41.2739L37.2718 7.08879H37.1548L33.16 19ZM33.2551 13.1249H41.1569V15.3052H33.2551V13.1249ZM50.5732 23.4484C49.622 23.4484 48.805 23.3192 48.1222 23.0606C47.4393 22.807 46.8905 22.4656 46.4759 22.0363C46.0613 21.6071 45.7736 21.1315 45.6126 20.6096L47.9978 20.0316C48.1051 20.2511 48.2612 20.4682 48.466 20.6828C48.6709 20.9023 48.9465 21.0828 49.2928 21.2242C49.644 21.3705 50.0854 21.4437 50.6171 21.4437C51.3682 21.4437 51.9901 21.2608 52.4828 20.895C52.9754 20.534 53.2217 19.9389 53.2217 19.1097V16.9807H53.09C52.9535 17.2538 52.7535 17.5343 52.4901 17.822C52.2316 18.1098 51.8877 18.3513 51.4585 18.5464C51.0341 18.7415 50.5 18.839 49.8562 18.839C48.9928 18.839 48.21 18.6366 47.5076 18.2318C46.8101 17.822 46.254 17.2123 45.8394 16.4027C45.4297 15.5881 45.2248 14.5687 45.2248 13.3444C45.2248 12.1103 45.4297 11.0689 45.8394 10.2202C46.254 9.36665 46.8125 8.72036 47.5149 8.28137C48.2173 7.83751 49.0001 7.61557 49.8635 7.61557C50.522 7.61557 51.0634 7.72776 51.4877 7.95213C51.917 8.17162 52.2584 8.43746 52.512 8.74963C52.7657 9.05692 52.9583 9.34714 53.09 9.62029H53.2364V7.7619H55.8483V19.1829C55.8483 20.1438 55.6191 20.9389 55.1606 21.5681C54.7021 22.1973 54.0753 22.668 53.2803 22.9802C52.4852 23.2923 51.5828 23.4484 50.5732 23.4484ZM50.5951 16.7612C51.156 16.7612 51.6341 16.6246 52.0291 16.3514C52.4242 16.0783 52.7242 15.6856 52.9291 15.1735C53.1339 14.6613 53.2364 14.0467 53.2364 13.3297C53.2364 12.6225 53.1339 12.003 52.9291 11.4714C52.7291 10.9397 52.4316 10.5275 52.0365 10.2349C51.6463 9.93733 51.1658 9.78856 50.5951 9.78856C50.0049 9.78856 49.5123 9.94221 49.1172 10.2495C48.7221 10.5568 48.4246 10.9787 48.2246 11.5153C48.0246 12.0469 47.9246 12.6517 47.9246 13.3297C47.9246 14.0175 48.0246 14.6199 48.2246 15.1369C48.4294 15.6491 48.7294 16.049 49.1245 16.3368C49.5245 16.6197 50.0147 16.7612 50.5951 16.7612ZM63.538 19.2195C62.4112 19.2195 61.4381 18.9854 60.6187 18.5171C59.8041 18.044 59.1773 17.3757 58.7384 16.5124C58.2994 15.6442 58.0799 14.6223 58.0799 13.4468C58.0799 12.2908 58.2994 11.2762 58.7384 10.4031C59.1822 9.52517 59.8017 8.8423 60.5967 8.35454C61.3918 7.86189 62.3259 7.61557 63.3989 7.61557C64.0916 7.61557 64.7452 7.72776 65.3598 7.95213C65.9792 8.17162 66.5255 8.51306 66.9986 8.97644C67.4767 9.43981 67.8522 10.03 68.1254 10.747C68.3985 11.4592 68.5351 12.3079 68.5351 13.2932V14.1053H59.3237V12.3201H65.9963C65.9914 11.8128 65.8817 11.3616 65.667 10.9665C65.4524 10.5665 65.1525 10.2519 64.7671 10.0227C64.3867 9.79344 63.9428 9.67882 63.4355 9.67882C62.8941 9.67882 62.4185 9.81051 62.0088 10.0739C61.5991 10.3324 61.2796 10.6739 61.0504 11.0982C60.826 11.5177 60.7114 11.9786 60.7065 12.481V14.0394C60.7065 14.693 60.826 15.254 61.065 15.7222C61.304 16.1856 61.6381 16.5417 62.0673 16.7904C62.4966 17.0343 62.999 17.1562 63.5745 17.1562C63.9599 17.1562 64.3086 17.1026 64.6208 16.9953C64.933 16.8831 65.2037 16.7197 65.4329 16.5051C65.6622 16.2905 65.8353 16.0246 65.9524 15.7076L68.4254 15.9856C68.2693 16.6392 67.9717 17.2099 67.5327 17.6977C67.0986 18.1806 66.5426 18.5561 65.8646 18.8244C65.1866 19.0878 64.4111 19.2195 63.538 19.2195ZM73.4243 12.4152V19H70.7758V7.7619H73.3073V9.6715H73.439C73.6975 9.04228 74.1096 8.54233 74.6755 8.17162C75.2461 7.80092 75.951 7.61557 76.7899 7.61557C77.5655 7.61557 78.241 7.78141 78.8166 8.11309C79.397 8.44477 79.8458 8.92522 80.1628 9.55444C80.4847 10.1837 80.6433 10.947 80.6384 11.8445V19H77.9898V12.2542C77.9898 11.5031 77.7947 10.9153 77.4045 10.4909C77.0192 10.0666 76.4851 9.85441 75.8022 9.85441C75.3388 9.85441 74.9267 9.95684 74.5657 10.1617C74.2096 10.3617 73.9292 10.6519 73.7243 11.0324C73.5243 11.4128 73.4243 11.8738 73.4243 12.4152ZM88.2329 19.2195C87.111 19.2195 86.1477 18.9732 85.3429 18.4805C84.5429 17.9879 83.9259 17.3075 83.4918 16.4392C83.0626 15.5661 82.8479 14.5613 82.8479 13.4248C82.8479 12.2835 83.0674 11.2762 83.5064 10.4031C83.9454 9.52517 84.5649 8.8423 85.3648 8.35454C86.1696 7.86189 87.1208 7.61557 88.2182 7.61557C89.1304 7.61557 89.9376 7.78385 90.64 8.12041C91.3472 8.45209 91.9106 8.92278 92.3301 9.53249C92.7496 10.1373 92.9886 10.8446 93.0471 11.6543H90.5156C90.4132 11.1128 90.1693 10.6617 89.784 10.3007C89.4035 9.93489 88.8938 9.75198 88.2548 9.75198C87.7134 9.75198 87.2378 9.89831 86.8281 10.191C86.4184 10.4788 86.0989 10.8934 85.8696 11.4348C85.6453 11.9762 85.5331 12.6249 85.5331 13.381C85.5331 14.1467 85.6453 14.8052 85.8696 15.3564C86.094 15.9027 86.4086 16.3246 86.8135 16.6221C87.2232 16.9148 87.7036 17.0611 88.2548 17.0611C88.645 17.0611 88.9938 16.988 89.3011 16.8416C89.6132 16.6904 89.8742 16.4734 90.0839 16.1905C90.2937 15.9076 90.4376 15.5637 90.5156 15.1589H93.0471C92.9837 15.9539 92.7496 16.6587 92.3447 17.2733C91.9399 17.883 91.3887 18.361 90.6912 18.7073C89.9937 19.0488 89.1743 19.2195 88.2329 19.2195ZM96.8681 23.2143C96.5072 23.2143 96.1731 23.185 95.8658 23.1265C95.5634 23.0728 95.3219 23.0094 95.1415 22.9363L95.756 20.873C96.1414 20.9852 96.4852 21.0389 96.7877 21.034C97.0901 21.0291 97.3559 20.934 97.5852 20.7486C97.8193 20.5682 98.0168 20.2657 98.1778 19.8414L98.4046 19.2341L94.3293 7.7619H97.1388L99.7289 16.249H99.8459L102.443 7.7619H105.26L100.761 20.3609C100.551 20.9559 100.273 21.4657 99.9264 21.89C99.5801 22.3192 99.1558 22.646 98.6534 22.8704C98.1558 23.0997 97.5608 23.2143 96.8681 23.2143Z" fill="white"/>
<path d="M22.8924 11.8311C22.8924 14.095 22.2211 16.308 20.9634 18.1903C19.7057 20.0726 17.918 21.5397 15.8265 22.4061C13.735 23.2724 11.4335 23.4991 9.21317 23.0574C6.99282 22.6158 4.9533 21.5256 3.35252 19.9248C1.75174 18.324 0.66159 16.2845 0.219936 14.0642C-0.221719 11.8438 0.00495433 9.54238 0.871291 7.45085C1.73763 5.35933 3.20472 3.57168 5.08704 2.31395C6.96936 1.05623 9.18237 0.384918 11.4462 0.384918V6.10802C10.3143 6.10802 9.20778 6.44368 8.26662 7.07254C7.32546 7.7014 6.59192 8.59523 6.15875 9.64099C5.72558 10.6868 5.61225 11.8375 5.83307 12.9477C6.0539 14.0578 6.59897 15.0776 7.39936 15.878C8.19976 16.6784 9.21952 17.2234 10.3297 17.4443C11.4399 17.6651 12.5906 17.5518 13.6363 17.1186C14.6821 16.6854 15.5759 15.9519 16.2048 15.0107C16.8337 14.0696 17.1693 12.9631 17.1693 11.8311H22.8924Z" fill="white"/>
<path fill-rule="evenodd" clip-rule="evenodd" d="M17.1675 0.384644H12.4844V6.10774H17.1675V10.7901H22.8906V1.43159C22.8906 1.41985 22.8904 1.40816 22.89 1.39652V0.384644H21.8437H17.1675Z" fill="white"/>
</svg>
