<svg width="454" height="679" viewBox="0 0 454 679" fill="none" xmlns="http://www.w3.org/2000/svg">
<g opacity="0.08">
<mask id="mask0_7481_9963" style="mask-type:alpha" maskUnits="userSpaceOnUse" x="0" y="221" width="228" height="234">
<rect x="2.5" y="2.5" width="227.628" height="223" transform="matrix(-4.37114e-08 1 1 4.37114e-08 -1.09278e-07 221.496)" fill="#D9D9D9" stroke="black" stroke-width="5"/>
</mask>
<g mask="url(#mask0_7481_9963)">
<rect width="279.484" height="5" transform="matrix(1 -8.87287e-10 8.69633e-10 -1 -22.0664 279.529)" fill="white"/>
<rect width="279.484" height="5" transform="matrix(1 -8.87287e-10 8.69633e-10 -1 -22.0664 339.562)" fill="white"/>
<rect width="279.484" height="5" transform="matrix(1 -8.87287e-10 8.69633e-10 -1 -22.0664 394.09)" fill="white"/>
</g>
<mask id="mask1_7481_9963" style="mask-type:alpha" maskUnits="userSpaceOnUse" x="225" y="446" width="233" height="234">
<rect x="-2.5" y="2.5" width="227.628" height="227.628" transform="matrix(-1 -8.74228e-08 -8.74228e-08 1 452.672 446.372)" fill="#D9D9D9" stroke="black" stroke-width="5"/>
</mask>
<g mask="url(#mask1_7481_9963)">
<rect width="251" height="5" transform="matrix(-4.37114e-08 1 1 4.37114e-08 392.047 424.372)" fill="white"/>
<rect width="285.157" height="5" transform="matrix(-1 -8.74228e-08 -8.74228e-08 1 352.695 607.958)" fill="white"/>
<rect width="251" height="5" transform="matrix(-4.37114e-08 1 1 4.37114e-08 348.047 424.372)" fill="white"/>
<rect width="285.157" height="5" transform="matrix(-1 -8.74228e-08 -8.74228e-08 1 352.695 555.429)" fill="white"/>
<rect width="285.157" height="5" transform="matrix(-1 -8.74228e-08 -8.74228e-08 1 352.695 506.651)" fill="white"/>
</g>
<mask id="mask2_7481_9963" style="mask-type:alpha" maskUnits="userSpaceOnUse" x="0" y="-4" width="229" height="234">
<rect x="2.5" y="2.5" width="228" height="224" transform="matrix(-4.37114e-08 1 1 4.37114e-08 -1.09278e-07 -3.62891)" fill="#D9D9D9" stroke="black" stroke-width="5"/>
</mask>
<g mask="url(#mask2_7481_9963)">
<rect width="285.157" height="5" transform="matrix(0.707107 0.707107 0.707107 -0.707107 -47.9688 -125.895)" fill="white"/>
<rect width="285.157" height="5" transform="matrix(0.707107 0.707107 0.707107 -0.707107 -90.4297 -83.4473)" fill="white"/>
<rect width="285.157" height="5" transform="matrix(0.707107 0.707107 0.707107 -0.707107 -127.57 -46.293)" fill="white"/>
<rect width="418.791" height="5" transform="matrix(0.691947 -0.721949 -0.721949 -0.691947 -14.9492 251.893)" fill="white"/>
<rect width="359.236" height="5" transform="matrix(0.691947 -0.721949 -0.721949 -0.691947 69.8086 250.191)" fill="white"/>
<rect width="338.346" height="5" transform="matrix(0.691947 -0.721949 -0.721949 -0.691947 107.738 286.557)" fill="white"/>
</g>
<rect x="2.5" y="2.5" width="228" height="225" transform="matrix(-4.37114e-08 1 1 4.37114e-08 -1.09278e-07 -3.62891)" stroke="white" stroke-width="5"/>
<rect x="2.5" y="2.5" width="225" height="225" transform="matrix(-4.37114e-08 1 1 4.37114e-08 -1.09278e-07 224.371)" stroke="white" stroke-width="5"/>
<rect x="2.5" y="2.5" width="222" height="228" transform="matrix(-4.37114e-08 1 1 4.37114e-08 225.043 449.371)" stroke="white" stroke-width="5"/>
<rect x="2.5" y="2.5" width="228" height="228" transform="matrix(-4.37114e-08 1 1 4.37114e-08 225 221.371)" stroke="white" stroke-width="5"/>
<rect x="2.5" y="2.5" width="225" height="228" transform="matrix(-4.37114e-08 1 1 4.37114e-08 225 -3.62891)" stroke="white" stroke-width="5"/>
<mask id="mask3_7481_9963" style="mask-type:alpha" maskUnits="userSpaceOnUse" x="225" y="224" width="233" height="231">
<rect x="2.5" y="2.5" width="225" height="228" transform="matrix(-4.37114e-08 1 1 4.37114e-08 225 224.37)" fill="#D9D9D9" stroke="black" stroke-width="5"/>
</mask>
<g mask="url(#mask3_7481_9963)">
<rect x="-2.5" y="2.5" width="603" height="397" rx="198.5" transform="matrix(-1 -8.74228e-08 -8.74228e-08 1 453 224.37)" stroke="white" stroke-width="5"/>
<rect x="-2.5" y="2.5" width="482.769" height="310.174" rx="155.087" transform="matrix(-1 -8.74228e-08 -8.74228e-08 1 392.719 274.023)" stroke="white" stroke-width="5"/>
<rect x="-2.5" y="2.5" width="362.702" height="212.62" rx="106.31" transform="matrix(-1 -8.74228e-08 -8.74228e-08 1 347.695 334.057)" stroke="white" stroke-width="5"/>
</g>
<mask id="mask4_7481_9963" style="mask-type:alpha" maskUnits="userSpaceOnUse" x="228" y="-4" width="229" height="229">
<rect x="-2.5" y="-2.5" width="223" height="224" transform="matrix(4.37114e-08 -1 -1 -4.37114e-08 452 219.371)" fill="#D9D9D9" stroke="black" stroke-width="5"/>
</mask>
<g mask="url(#mask4_7481_9963)">
<rect x="2.5" y="-2.5" width="636.448" height="400.223" rx="200.112" transform="matrix(1 8.51322e-08 8.984e-08 -1 212.305 224)" stroke="white" stroke-width="5"/>
<rect x="2.5" y="-2.5" width="509.742" height="310.174" rx="155.087" transform="matrix(1 8.51322e-08 8.984e-08 -1 267.738 171.473)" stroke="white" stroke-width="5"/>
<rect x="2.5" y="-2.5" width="383.036" height="212.62" rx="106.31" transform="matrix(1 8.51322e-08 8.984e-08 -1 323.172 111.439)" stroke="white" stroke-width="5"/>
</g>
</g>
</svg>
