<svg width="459" height="683" viewBox="0 0 459 683" fill="none" xmlns="http://www.w3.org/2000/svg">
<g opacity="0.08">
<mask id="mask0_7782_16151" style="mask-type:alpha" maskUnits="userSpaceOnUse" x="230" y="224" width="229" height="234">
<rect x="-2.5" y="-2.5" width="227.628" height="223" transform="matrix(1.31134e-07 -1 -1 -1.31134e-07 453.043 452.504)" fill="#D9D9D9" stroke="black" stroke-width="5"/>
</mask>
<g mask="url(#mask0_7782_16151)">
<rect width="279.484" height="5" transform="matrix(-1 -8.65355e-08 -8.82924e-08 1 480.107 399.471)" fill="white"/>
<rect width="279.484" height="5" transform="matrix(-1 -8.65355e-08 -8.82924e-08 1 480.107 339.438)" fill="white"/>
<rect width="279.484" height="5" transform="matrix(-1 -8.65355e-08 -8.82924e-08 1 480.107 284.91)" fill="white"/>
</g>
<mask id="mask1_7782_16151" style="mask-type:alpha" maskUnits="userSpaceOnUse" x="0" y="-1" width="234" height="234">
<rect x="2.5" y="-2.5" width="227.628" height="227.628" transform="matrix(1 1.74846e-07 1.74846e-07 -1 0.373047 227.628)" fill="#D9D9D9" stroke="black" stroke-width="5"/>
</mask>
<g mask="url(#mask1_7782_16151)">
<rect width="251" height="5" transform="matrix(1.31134e-07 -1 -1 -1.31134e-07 66 254.628)" fill="white"/>
<rect width="285.157" height="5" transform="matrix(1 1.74846e-07 1.74846e-07 -1 105.348 71.042)" fill="white"/>
<rect width="251" height="5" transform="matrix(1.31134e-07 -1 -1 -1.31134e-07 110 254.628)" fill="white"/>
<rect width="285.157" height="5" transform="matrix(1 1.74846e-07 1.74846e-07 -1 105.348 123.571)" fill="white"/>
<rect width="285.157" height="5" transform="matrix(1 1.74846e-07 1.74846e-07 -1 105.348 172.349)" fill="white"/>
</g>
<mask id="mask2_7782_16151" style="mask-type:alpha" maskUnits="userSpaceOnUse" x="229" y="449" width="230" height="234">
<rect x="-2.5" y="-2.5" width="228" height="224" transform="matrix(1.31134e-07 -1 -1 -1.31134e-07 453.043 677.629)" fill="#D9D9D9" stroke="black" stroke-width="5"/>
</mask>
<g mask="url(#mask2_7782_16151)">
<rect width="285.157" height="5" transform="matrix(-0.707107 -0.707107 -0.707107 0.707107 506.014 804.894)" fill="white"/>
<rect width="285.157" height="5" transform="matrix(-0.707107 -0.707107 -0.707107 0.707107 548.473 762.447)" fill="white"/>
<rect width="285.157" height="5" transform="matrix(-0.707107 -0.707107 -0.707107 0.707107 585.613 725.293)" fill="white"/>
<rect width="418.791" height="5" transform="matrix(-0.691947 0.721948 0.721948 0.691947 472.992 427.107)" fill="white"/>
<rect width="359.236" height="5" transform="matrix(-0.691947 0.721948 0.721948 0.691947 388.234 428.808)" fill="white"/>
<rect width="338.346" height="5" transform="matrix(-0.691947 0.721948 0.721948 0.691947 350.303 392.443)" fill="white"/>
</g>
<rect x="-2.5" y="-2.5" width="228" height="225" transform="matrix(1.31134e-07 -1 -1 -1.31134e-07 453.043 677.629)" stroke="white" stroke-width="5"/>
<rect x="-2.5" y="-2.5" width="225" height="225" transform="matrix(1.31134e-07 -1 -1 -1.31134e-07 453.043 449.629)" stroke="white" stroke-width="5"/>
<rect x="-2.5" y="-2.5" width="222" height="228" transform="matrix(1.31134e-07 -1 -1 -1.31134e-07 228 224.629)" stroke="white" stroke-width="5"/>
<rect x="-2.5" y="-2.5" width="228" height="228" transform="matrix(1.31134e-07 -1 -1 -1.31134e-07 228.043 452.629)" stroke="white" stroke-width="5"/>
<rect x="-2.5" y="-2.5" width="225" height="228" transform="matrix(1.31134e-07 -1 -1 -1.31134e-07 228.043 677.629)" stroke="white" stroke-width="5"/>
<mask id="mask3_7782_16151" style="mask-type:alpha" maskUnits="userSpaceOnUse" x="0" y="224" width="234" height="231">
<rect x="-2.5" y="-2.5" width="225" height="228" transform="matrix(1.31134e-07 -1 -1 -1.31134e-07 228.043 449.63)" fill="#D9D9D9" stroke="black" stroke-width="5"/>
</mask>
<g mask="url(#mask3_7782_16151)">
<rect x="2.5" y="-2.5" width="603" height="397" rx="198.5" transform="matrix(1 1.74846e-07 1.74846e-07 -1 0.0429692 449.63)" stroke="white" stroke-width="5"/>
<rect x="2.5" y="-2.5" width="482.769" height="310.174" rx="155.087" transform="matrix(1 1.74846e-07 1.74846e-07 -1 60.3223 399.977)" stroke="white" stroke-width="5"/>
<rect x="2.5" y="-2.5" width="362.702" height="212.62" rx="106.31" transform="matrix(1 1.74846e-07 1.74846e-07 -1 105.348 339.943)" stroke="white" stroke-width="5"/>
</g>
<mask id="mask4_7782_16151" style="mask-type:alpha" maskUnits="userSpaceOnUse" x="1" y="454" width="230" height="229">
<rect x="2.5" y="2.5" width="223" height="224" transform="matrix(-1.31134e-07 1 1 1.31134e-07 1.04297 454.629)" fill="#D9D9D9" stroke="black" stroke-width="5"/>
</mask>
<g mask="url(#mask4_7782_16151)">
<rect x="-2.5" y="2.5" width="636.448" height="400.223" rx="200.112" transform="matrix(-1 -1.72555e-07 -1.77263e-07 1 240.738 450)" stroke="white" stroke-width="5"/>
<rect x="-2.5" y="2.5" width="509.742" height="310.174" rx="155.087" transform="matrix(-1 -1.72555e-07 -1.77263e-07 1 185.305 502.527)" stroke="white" stroke-width="5"/>
<rect x="-2.5" y="2.5" width="383.036" height="212.62" rx="106.31" transform="matrix(-1 -1.72555e-07 -1.77263e-07 1 129.871 562.561)" stroke="white" stroke-width="5"/>
</g>
</g>
</svg>
