<svg width="718" height="508" viewBox="0 0 718 508" fill="none" xmlns="http://www.w3.org/2000/svg">
<mask id="mask0_7470_1549" style="mask-type:alpha" maskUnits="userSpaceOnUse" x="211" y="254" width="258" height="254">
<rect x="2.7677" y="-2.7677" width="252.003" height="246.879" transform="matrix(1 0 0 -1 211.15 501.63)" fill="#D9D9D9" stroke="black" stroke-width="5.53541"/>
</mask>
<g mask="url(#mask0_7470_1549)">
<rect width="309.411" height="5.53541" transform="matrix(-4.45987e-08 -1 -1 4.28418e-08 275.398 531.593)" fill="#161817"/>
<rect width="309.411" height="5.53541" transform="matrix(-4.45987e-08 -1 -1 4.28418e-08 341.859 531.593)" fill="#161817"/>
<rect width="309.411" height="5.53541" transform="matrix(-4.45987e-08 -1 -1 4.28418e-08 402.227 531.593)" fill="#161817"/>
</g>
<mask id="mask1_7470_1549" style="mask-type:alpha" maskUnits="userSpaceOnUse" x="460" y="0" width="258" height="259">
<rect x="2.7677" y="2.7677" width="252.003" height="252.003" transform="matrix(-4.37114e-08 1 1 4.37114e-08 460.107 0.486572)" fill="#D9D9D9" stroke="black" stroke-width="5.53541"/>
</mask>
<g mask="url(#mask1_7470_1549)">
<rect width="277.877" height="5.53541" transform="matrix(1 0 0 -1 435.752 73.1418)" fill="#161817"/>
<rect width="315.692" height="5.53541" transform="matrix(-4.37114e-08 1 1 4.37114e-08 638.996 116.702)" fill="#161817"/>
<rect width="277.877" height="5.53541" transform="matrix(1 0 0 -1 435.752 121.854)" fill="#161817"/>
<rect width="315.692" height="5.53541" transform="matrix(-4.37114e-08 1 1 4.37114e-08 580.842 116.702)" fill="#161817"/>
<rect width="315.692" height="5.53541" transform="matrix(-4.37114e-08 1 1 4.37114e-08 526.842 116.702)" fill="#161817"/>
</g>
<mask id="mask2_7470_1549" style="mask-type:alpha" maskUnits="userSpaceOnUse" x="-39" y="253" width="259" height="255">
<rect x="2.7677" y="-2.7677" width="252.414" height="247.986" transform="matrix(1 0 0 -1 -38.082 501.63)" fill="#D9D9D9" stroke="black" stroke-width="5.53541"/>
</mask>
<g mask="url(#mask2_7470_1549)">
<rect width="315.692" height="5.53541" transform="matrix(0.707107 -0.707107 -0.707107 -0.707107 -173.439 560.273)" fill="#161817"/>
<rect width="315.692" height="5.53541" transform="matrix(0.707107 -0.707107 -0.707107 -0.707107 -126.447 607.278)" fill="#161817"/>
<rect width="315.692" height="5.53541" transform="matrix(0.707107 -0.707107 -0.707107 -0.707107 -85.3164 648.396)" fill="#161817"/>
<rect width="463.635" height="5.53541" transform="matrix(-0.721949 -0.691947 -0.691947 0.721949 244.801 523.715)" fill="#161817"/>
<rect width="397.704" height="5.53541" transform="matrix(-0.721949 -0.691947 -0.691947 0.721949 242.918 429.882)" fill="#161817"/>
<rect width="374.577" height="5.53541" transform="matrix(-0.721949 -0.691947 -0.691947 0.721949 283.176 387.888)" fill="#161817"/>
</g>
<rect x="2.7677" y="-2.7677" width="252.414" height="249.093" transform="matrix(1 0 0 -1 -38.082 501.63)" stroke="#161817" stroke-width="5.53541"/>
<rect x="2.7677" y="-2.7677" width="249.093" height="249.093" transform="matrix(1 0 0 -1 214.332 501.63)" stroke="#161817" stroke-width="5.53541"/>
<rect x="2.7677" y="-2.7677" width="245.772" height="252.414" transform="matrix(1 0 0 -1 463.426 252.488)" stroke="#161817" stroke-width="5.53541"/>
<rect x="2.7677" y="-2.7677" width="252.414" height="252.414" transform="matrix(1 0 0 -1 211.012 252.536)" stroke="#161817" stroke-width="5.53541"/>
<rect x="2.7677" y="-2.7677" width="249.093" height="252.414" transform="matrix(1 0 0 -1 -38.082 252.536)" stroke="#161817" stroke-width="5.53541"/>
<mask id="mask3_7470_1549" style="mask-type:alpha" maskUnits="userSpaceOnUse" x="214" y="0" width="255" height="259">
<rect x="2.7677" y="-2.7677" width="249.093" height="252.414" transform="matrix(1 0 0 -1 214.332 252.536)" fill="#D9D9D9" stroke="black" stroke-width="5.53541"/>
</mask>
<g mask="url(#mask3_7470_1549)">
<rect x="2.7677" y="2.7677" width="667.57" height="439.511" rx="219.756" transform="matrix(-4.37114e-08 1 1 4.37114e-08 214.332 0.121338)" stroke="#161817" stroke-width="5.53541"/>
<rect x="2.7677" y="2.7677" width="534.464" height="343.387" rx="171.694" transform="matrix(-4.37114e-08 1 1 4.37114e-08 269.303 66.8556)" stroke="#161817" stroke-width="5.53541"/>
<rect x="2.7677" y="2.7677" width="401.541" height="235.387" rx="117.694" transform="matrix(-4.37114e-08 1 1 4.37114e-08 335.766 116.702)" stroke="#161817" stroke-width="5.53541"/>
</g>
<mask id="mask4_7470_1549" style="mask-type:alpha" maskUnits="userSpaceOnUse" x="-39" y="1" width="254" height="254">
<rect x="-2.7677" y="2.7677" width="246.879" height="247.986" transform="matrix(-1 0 0 1 208.799 1.22876)" fill="#D9D9D9" stroke="black" stroke-width="5.53541"/>
</mask>
<g mask="url(#mask4_7470_1549)">
<rect x="-2.7677" y="-2.7677" width="704.599" height="443.08" rx="221.54" transform="matrix(4.14208e-08 -1 -1 -4.61286e-08 213.924 266.591)" stroke="#161817" stroke-width="5.53541"/>
<rect x="-2.7677" y="-2.7677" width="564.326" height="343.387" rx="171.694" transform="matrix(4.14208e-08 -1 -1 -4.61286e-08 155.771 205.222)" stroke="#161817" stroke-width="5.53541"/>
<rect x="-2.7677" y="-2.7677" width="424.052" height="235.387" rx="117.694" transform="matrix(4.14208e-08 -1 -1 -4.61286e-08 89.3103 143.853)" stroke="#161817" stroke-width="5.53541"/>
</g>
</svg>
