<svg width="44" height="39" viewBox="0 0 44 39" fill="none" xmlns="http://www.w3.org/2000/svg">
<path d="M2 37H42.3846" stroke="#09A144" stroke-width="2.5" stroke-linecap="round" stroke-linejoin="round"/>
<path d="M11.4241 18.1539H6.03951C5.68249 18.1539 5.34009 18.2958 5.08764 18.5482C4.83519 18.8007 4.69336 19.1431 4.69336 19.5001V37.0001H12.7703V19.5001C12.7703 19.1431 12.6285 18.8007 12.376 18.5482C12.1236 18.2958 11.7812 18.1539 11.4241 18.1539Z" stroke="#09A144" stroke-width="2.5" stroke-linecap="round" stroke-linejoin="round"/>
<path d="M24.8851 2H19.5005C19.1434 2 18.801 2.14183 18.5486 2.39428C18.2961 2.64673 18.1543 2.98913 18.1543 3.34615V37H26.2312V3.34615C26.2312 2.98913 26.0894 2.64673 25.8369 2.39428C25.5845 2.14183 25.2421 2 24.8851 2Z" stroke="#09A144" stroke-width="2.5" stroke-linecap="round" stroke-linejoin="round"/>
<path d="M38.348 10.0768H32.9633C32.6063 10.0768 32.2639 10.2187 32.0115 10.4711C31.759 10.7236 31.6172 11.066 31.6172 11.423V36.9999H39.6941V11.423C39.6941 11.066 39.5523 10.7236 39.2998 10.4711C39.0474 10.2187 38.705 10.0768 38.348 10.0768Z" stroke="#09A144" stroke-width="2.5" stroke-linecap="round" stroke-linejoin="round"/>
</svg>
