<svg width="166" height="33" viewBox="0 0 166 33" fill="none" xmlns="http://www.w3.org/2000/svg">
<path d="M58.1866 13.1374H54.5733C54.4703 12.5449 54.2803 12.02 54.0033 11.5627C53.7263 11.0989 53.3818 10.706 52.9695 10.384C52.5573 10.0619 52.0871 9.8204 51.559 9.65938C51.0373 9.49192 50.4737 9.40819 49.8683 9.40819C48.7926 9.40819 47.8394 9.6787 47.0085 10.2197C46.1777 10.7543 45.5271 11.5401 45.057 12.5771C44.5868 13.6076 44.3517 14.8668 44.3517 16.3546C44.3517 17.8683 44.5868 19.1435 45.057 20.1805C45.5336 21.2111 46.1841 21.9904 47.0085 22.5185C47.8394 23.0403 48.7894 23.3011 49.8586 23.3011C50.4512 23.3011 51.0051 23.2238 51.5204 23.0692C52.0421 22.9082 52.509 22.6731 52.9212 22.364C53.3399 22.0548 53.6909 21.6748 53.9743 21.2239C54.2642 20.7731 54.4638 20.2578 54.5733 19.6781L58.1866 19.6975C58.0514 20.6378 57.7583 21.5202 57.3075 22.3446C56.863 23.1691 56.2801 23.8969 55.5588 24.5281C54.8374 25.1529 53.9936 25.6424 53.0275 25.9966C52.0614 26.3444 50.989 26.5183 49.8103 26.5183C48.0713 26.5183 46.519 26.1158 45.1536 25.3107C43.7881 24.5056 42.7125 23.343 41.9267 21.8229C41.1409 20.3029 40.748 18.4801 40.748 16.3546C40.748 14.2227 41.1441 12.4 41.9364 10.8864C42.7286 9.36632 43.8074 8.20375 45.1729 7.39864C46.5383 6.59353 48.0842 6.19098 49.8103 6.19098C50.9117 6.19098 51.9358 6.34556 52.8826 6.65472C53.8294 6.96388 54.6731 7.41796 55.4138 8.01696C56.1545 8.60952 56.7632 9.33734 57.2398 10.2004C57.7229 11.057 58.0385 12.0361 58.1866 13.1374ZM67.7875 26.5376C66.3383 26.5376 65.0824 26.2188 64.0196 25.5812C62.9569 24.9435 62.1325 24.0515 61.5463 22.905C60.9667 21.7585 60.6768 20.4188 60.6768 18.8859C60.6768 17.353 60.9667 16.0101 61.5463 14.8572C62.1325 13.7042 62.9569 12.809 64.0196 12.1713C65.0824 11.5337 66.3383 11.2148 67.7875 11.2148C69.2367 11.2148 70.4927 11.5337 71.5554 12.1713C72.6182 12.809 73.4394 13.7042 74.0191 14.8572C74.6052 16.0101 74.8982 17.353 74.8982 18.8859C74.8982 20.4188 74.6052 21.7585 74.0191 22.905C73.4394 24.0515 72.6182 24.9435 71.5554 25.5812C70.4927 26.2188 69.2367 26.5376 67.7875 26.5376ZM67.8069 23.7359C68.5926 23.7359 69.2496 23.5201 69.7778 23.0886C70.3059 22.6506 70.6988 22.0645 70.9564 21.3302C71.2205 20.596 71.3525 19.778 71.3525 18.8762C71.3525 17.9681 71.2205 17.1469 70.9564 16.4126C70.6988 15.6719 70.3059 15.0826 69.7778 14.6446C69.2496 14.2066 68.5926 13.9876 67.8069 13.9876C67.0018 13.9876 66.3319 14.2066 65.7973 14.6446C65.2692 15.0826 64.873 15.6719 64.609 16.4126C64.3513 17.1469 64.2225 17.9681 64.2225 18.8762C64.2225 19.778 64.3513 20.596 64.609 21.3302C64.873 22.0645 65.2692 22.6506 65.7973 23.0886C66.3319 23.5201 67.0018 23.7359 67.8069 23.7359ZM77.8667 26.2478V11.4081H81.2095V13.9297H81.3834C81.6925 13.0795 82.2046 12.4161 82.9195 11.9394C83.6345 11.4564 84.4879 11.2148 85.4798 11.2148C86.4845 11.2148 87.3315 11.4596 88.0207 11.9491C88.7163 12.4322 89.2058 13.0924 89.4892 13.9297H89.6438C89.9723 13.1052 90.5262 12.4483 91.3055 11.9588C92.0913 11.4628 93.022 11.2148 94.0976 11.2148C95.4631 11.2148 96.5774 11.6464 97.4404 12.5095C98.3035 13.3725 98.735 14.6317 98.735 16.287V26.2478H95.228V16.8281C95.228 15.907 94.9832 15.2339 94.4937 14.8088C94.0042 14.3773 93.4052 14.1615 92.6967 14.1615C91.853 14.1615 91.1928 14.4256 90.7162 14.9538C90.246 15.4755 90.0109 16.155 90.0109 16.9923V26.2478H86.5811V16.6831C86.5811 15.9167 86.3493 15.3048 85.8855 14.8475C85.4282 14.3902 84.8292 14.1615 84.0885 14.1615C83.5861 14.1615 83.1288 14.2904 82.7166 14.548C82.3044 14.7992 81.9759 15.1567 81.7312 15.6204C81.4864 16.0777 81.3641 16.6123 81.3641 17.2242V26.2478H77.8667ZM102.283 31.8127V11.4081H105.723V13.862H105.925C106.106 13.5014 106.36 13.1181 106.689 12.7123C107.017 12.3001 107.462 11.9491 108.022 11.6593C108.582 11.363 109.297 11.2148 110.167 11.2148C111.313 11.2148 112.347 11.5079 113.268 12.094C114.196 12.6737 114.93 13.5336 115.471 14.6736C116.018 15.8072 116.292 17.1984 116.292 18.8473C116.292 20.4768 116.025 21.8616 115.49 23.0016C114.956 24.1416 114.228 25.0112 113.307 25.6102C112.386 26.2092 111.342 26.5087 110.176 26.5087C109.326 26.5087 108.621 26.367 108.061 26.0836C107.5 25.8002 107.049 25.4588 106.708 25.0595C106.373 24.6537 106.112 24.2705 105.925 23.9098H105.781V31.8127H102.283ZM105.713 18.8279C105.713 19.7876 105.848 20.6282 106.119 21.3495C106.396 22.0709 106.792 22.6345 107.307 23.0403C107.829 23.4396 108.46 23.6393 109.201 23.6393C109.974 23.6393 110.621 23.4331 111.143 23.0209C111.664 22.6023 112.057 22.0323 112.321 21.3109C112.592 20.5831 112.727 19.7554 112.727 18.8279C112.727 17.9069 112.595 17.0889 112.331 16.374C112.067 15.659 111.674 15.0987 111.152 14.6929C110.63 14.2871 109.98 14.0842 109.201 14.0842C108.453 14.0842 107.819 14.2807 107.297 14.6736C106.776 15.0665 106.38 15.6172 106.109 16.3257C105.845 17.0342 105.713 17.8683 105.713 18.8279ZM123.557 26.5473C122.617 26.5473 121.77 26.3798 121.016 26.0449C120.269 25.7036 119.677 25.2012 119.239 24.5378C118.807 23.8743 118.591 23.0564 118.591 22.0838C118.591 21.2465 118.746 20.5541 119.055 20.0066C119.364 19.4591 119.786 19.0212 120.321 18.6927C120.855 18.3642 121.458 18.1162 122.127 17.9488C122.804 17.7749 123.503 17.6493 124.224 17.572C125.093 17.4818 125.799 17.4013 126.34 17.3304C126.881 17.2531 127.274 17.1372 127.518 16.9826C127.77 16.8216 127.895 16.5736 127.895 16.2387V16.1807C127.895 15.4529 127.679 14.8894 127.248 14.49C126.816 14.0907 126.195 13.891 125.383 13.891C124.527 13.891 123.847 14.0778 123.345 14.4514C122.849 14.8249 122.514 15.2661 122.34 15.775L119.074 15.3112C119.332 14.4095 119.757 13.6559 120.35 13.0505C120.942 12.4386 121.667 11.9813 122.524 11.6786C123.38 11.3694 124.327 11.2148 125.364 11.2148C126.079 11.2148 126.791 11.2986 127.499 11.466C128.208 11.6335 128.855 11.9105 129.441 12.2969C130.027 12.6769 130.497 13.1954 130.852 13.8524C131.212 14.5093 131.393 15.3306 131.393 16.316V26.2478H128.03V24.2093H127.915C127.702 24.6215 127.402 25.0079 127.016 25.3686C126.636 25.7229 126.156 26.0095 125.576 26.2285C125.003 26.441 124.33 26.5473 123.557 26.5473ZM124.465 23.9774C125.168 23.9774 125.776 23.8389 126.291 23.562C126.807 23.2786 127.203 22.905 127.48 22.4413C127.763 21.9775 127.905 21.4719 127.905 20.9244V19.1757C127.795 19.2659 127.609 19.3496 127.345 19.4269C127.087 19.5042 126.797 19.5719 126.475 19.6298C126.153 19.6878 125.834 19.7393 125.519 19.7844C125.203 19.8295 124.929 19.8681 124.697 19.9003C124.176 19.9712 123.709 20.0871 123.296 20.2481C122.884 20.4092 122.559 20.6346 122.321 20.9244C122.082 21.2078 121.963 21.575 121.963 22.0258C121.963 22.6699 122.198 23.1562 122.668 23.4847C123.139 23.8132 123.738 23.9774 124.465 23.9774ZM138.407 17.5526V26.2478H134.909V11.4081H138.252V13.9297H138.426C138.767 13.0988 139.312 12.4386 140.059 11.9491C140.812 11.4596 141.743 11.2148 142.851 11.2148C143.875 11.2148 144.767 11.4338 145.527 11.8718C146.294 12.3098 146.886 12.9442 147.305 13.7751C147.73 14.606 147.939 15.614 147.933 16.7991V26.2478H144.435V17.3401C144.435 16.3482 144.178 15.5721 143.662 15.0117C143.154 14.4514 142.448 14.1712 141.547 14.1712C140.935 14.1712 140.39 14.3065 139.914 14.577C139.444 14.841 139.073 15.2243 138.803 15.7267C138.539 16.2291 138.407 16.8377 138.407 17.5526ZM153.13 31.8127C152.654 31.8127 152.213 31.7741 151.807 31.6968C151.408 31.6259 151.089 31.5422 150.85 31.4456L151.662 28.7211C152.171 28.8692 152.625 28.9401 153.024 28.9336C153.424 28.9272 153.775 28.8016 154.077 28.5568C154.386 28.3185 154.647 27.9192 154.86 27.3589L155.159 26.557L149.778 11.4081H153.488L156.908 22.6152H157.063L160.492 11.4081H164.212L158.27 28.0448C157.993 28.8306 157.626 29.5037 157.169 30.064C156.712 30.6308 156.151 31.0623 155.488 31.3586C154.831 31.6613 154.045 31.8127 153.13 31.8127Z" fill="white"/>
<path fill-rule="evenodd" clip-rule="evenodd" d="M11.6548 0.927765C10.4157 0.927765 9.41128 1.93222 9.41128 3.17127V10.1786H2.27476C1.0357 10.1786 0.03125 11.1831 0.03125 12.4221V28.9635C0.03125 30.2026 1.0357 31.207 2.27476 31.207H18.6197C19.8587 31.207 20.8632 30.2026 20.8632 28.9635V21.9562H27.9997C29.2387 21.9562 30.2432 20.9517 30.2432 19.7127V3.17127C30.2432 1.93222 29.2387 0.927765 27.9997 0.927765H11.6548ZM20.8632 21.9562V12.4221C20.8632 11.1831 19.8587 10.1786 18.6197 10.1786H9.41128V19.7127C9.41128 20.9517 10.4157 21.9562 11.6548 21.9562H20.8632Z" fill="white"/>
</svg>
