<svg width="166" height="32" viewBox="0 0 166 32" fill="none" xmlns="http://www.w3.org/2000/svg">
<g clip-path="url(#clip0_7846_10384)">
<g opacity="0.8">
<path d="M58.1866 12.1372H54.5733C54.4703 11.5446 54.2803 11.0197 54.0033 10.5624C53.7263 10.0987 53.3818 9.70577 52.9695 9.38373C52.5573 9.06169 52.0871 8.82016 51.559 8.65914C51.0373 8.49167 50.4737 8.40794 49.8683 8.40794C48.7926 8.40794 47.8394 8.67846 47.0085 9.21949C46.1777 9.75408 45.5271 10.5399 45.057 11.5768C44.5868 12.6074 44.3517 13.8666 44.3517 15.3544C44.3517 16.868 44.5868 18.1433 45.057 19.1803C45.5336 20.2108 46.1841 20.9902 47.0085 21.5183C47.8394 22.04 48.7894 22.3009 49.8586 22.3009C50.4512 22.3009 51.0051 22.2236 51.5204 22.069C52.0421 21.908 52.509 21.6729 52.9212 21.3637C53.3399 21.0546 53.6909 20.6746 53.9743 20.2237C54.2642 19.7728 54.4638 19.2576 54.5733 18.6779L58.1866 18.6972C58.0514 19.6376 57.7583 20.52 57.3075 21.3444C56.863 22.1688 56.2801 22.8966 55.5588 23.5279C54.8374 24.1526 53.9936 24.6421 53.0275 24.9964C52.0614 25.3442 50.989 25.5181 49.8103 25.5181C48.0713 25.5181 46.519 25.1155 45.1536 24.3104C43.7881 23.5053 42.7125 22.3427 41.9267 20.8227C41.1409 19.3026 40.748 17.4799 40.748 15.3544C40.748 13.2225 41.1441 11.3997 41.9364 9.88612C42.7286 8.36608 43.8074 7.2035 45.1729 6.3984C46.5383 5.59329 48.0842 5.19074 49.8103 5.19074C50.9117 5.19074 51.9358 5.34532 52.8826 5.65448C53.8294 5.96364 54.6731 6.41772 55.4138 7.01672C56.1545 7.60928 56.7632 8.33709 57.2398 9.20017C57.7229 10.0568 58.0385 11.0358 58.1866 12.1372ZM67.7875 25.5374C66.3383 25.5374 65.0824 25.2186 64.0196 24.5809C62.9569 23.9433 62.1325 23.0512 61.5463 21.9048C60.9667 20.7583 60.6768 19.4186 60.6768 17.8857C60.6768 16.3527 60.9667 15.0098 61.5463 13.8569C62.1325 12.704 62.9569 11.8087 64.0196 11.1711C65.0824 10.5334 66.3383 10.2146 67.7875 10.2146C69.2367 10.2146 70.4927 10.5334 71.5554 11.1711C72.6182 11.8087 73.4394 12.704 74.0191 13.8569C74.6052 15.0098 74.8982 16.3527 74.8982 17.8857C74.8982 19.4186 74.6052 20.7583 74.0191 21.9048C73.4394 23.0512 72.6182 23.9433 71.5554 24.5809C70.4927 25.2186 69.2367 25.5374 67.7875 25.5374ZM67.8069 22.7356C68.5926 22.7356 69.2496 22.5199 69.7778 22.0883C70.3059 21.6503 70.6988 21.0642 70.9564 20.33C71.2205 19.5957 71.3525 18.7777 71.3525 17.876C71.3525 16.9678 71.2205 16.1466 70.9564 15.4124C70.6988 14.6717 70.3059 14.0823 69.7778 13.6444C69.2496 13.2064 68.5926 12.9874 67.8069 12.9874C67.0018 12.9874 66.3319 13.2064 65.7973 13.6444C65.2692 14.0823 64.873 14.6717 64.609 15.4124C64.3513 16.1466 64.2225 16.9678 64.2225 17.876C64.2225 18.7777 64.3513 19.5957 64.609 20.33C64.873 21.0642 65.2692 21.6503 65.7973 22.0883C66.3319 22.5199 67.0018 22.7356 67.8069 22.7356ZM77.8667 25.2476V10.4078H81.2095V12.9294H81.3834C81.6925 12.0792 82.2046 11.4158 82.9195 10.9392C83.6345 10.4561 84.4879 10.2146 85.4798 10.2146C86.4845 10.2146 87.3315 10.4594 88.0207 10.9489C88.7163 11.4319 89.2058 12.0921 89.4892 12.9294H89.6438C89.9723 12.105 90.5262 11.448 91.3055 10.9585C92.0913 10.4626 93.022 10.2146 94.0976 10.2146C95.4631 10.2146 96.5774 10.6461 97.4404 11.5092C98.3035 12.3723 98.735 13.6315 98.735 15.2868V25.2476H95.228V15.8278C95.228 14.9068 94.9832 14.2337 94.4937 13.8086C94.0042 13.3771 93.4052 13.1613 92.6967 13.1613C91.853 13.1613 91.1928 13.4254 90.7162 13.9535C90.246 14.4752 90.0109 15.1547 90.0109 15.992V25.2476H86.5811V15.6829C86.5811 14.9164 86.3493 14.3045 85.8855 13.8472C85.4282 13.3899 84.8292 13.1613 84.0885 13.1613C83.5861 13.1613 83.1288 13.2901 82.7166 13.5477C82.3044 13.7989 81.9759 14.1564 81.7312 14.6201C81.4864 15.0774 81.3641 15.612 81.3641 16.2239V25.2476H77.8667ZM102.283 30.8125V10.4078H105.723V12.8618H105.925C106.106 12.5011 106.36 12.1179 106.689 11.7121C107.017 11.2999 107.462 10.9489 108.022 10.659C108.582 10.3627 109.297 10.2146 110.167 10.2146C111.313 10.2146 112.347 10.5077 113.268 11.0938C114.196 11.6735 114.93 12.5333 115.471 13.6733C116.018 14.8069 116.292 16.1982 116.292 17.847C116.292 19.4766 116.025 20.8613 115.49 22.0014C114.956 23.1414 114.228 24.0109 113.307 24.6099C112.386 25.2089 111.342 25.5084 110.176 25.5084C109.326 25.5084 108.621 25.3667 108.061 25.0833C107.5 24.7999 107.049 24.4586 106.708 24.0592C106.373 23.6534 106.112 23.2702 105.925 22.9095H105.781V30.8125H102.283ZM105.713 17.8277C105.713 18.7874 105.848 19.6279 106.119 20.3493C106.396 21.0707 106.792 21.6342 107.307 22.04C107.829 22.4393 108.46 22.639 109.201 22.639C109.974 22.639 110.621 22.4329 111.143 22.0207C111.664 21.602 112.057 21.032 112.321 20.3106C112.592 19.5828 112.727 18.7552 112.727 17.8277C112.727 16.9067 112.595 16.0887 112.331 15.3737C112.067 14.6588 111.674 14.0984 111.152 13.6927C110.63 13.2869 109.98 13.084 109.201 13.084C108.453 13.084 107.819 13.2804 107.297 13.6733C106.776 14.0662 106.38 14.6169 106.109 15.3254C105.845 16.0339 105.713 16.868 105.713 17.8277ZM123.557 25.5471C122.617 25.5471 121.77 25.3796 121.016 25.0447C120.269 24.7033 119.677 24.2009 119.239 23.5375C118.807 22.8741 118.591 22.0561 118.591 21.0835C118.591 20.2462 118.746 19.5538 119.055 19.0064C119.364 18.4589 119.786 18.0209 120.321 17.6924C120.855 17.364 121.458 17.116 122.127 16.9485C122.804 16.7746 123.503 16.649 124.224 16.5717C125.093 16.4816 125.799 16.401 126.34 16.3302C126.881 16.2529 127.274 16.137 127.518 15.9824C127.77 15.8214 127.895 15.5734 127.895 15.2385V15.1805C127.895 14.4527 127.679 13.8891 127.248 13.4898C126.816 13.0904 126.195 12.8908 125.383 12.8908C124.527 12.8908 123.847 13.0776 123.345 13.4511C122.849 13.8247 122.514 14.2659 122.34 14.7747L119.074 14.311C119.332 13.4093 119.757 12.6557 120.35 12.0502C120.942 11.4384 121.667 10.9811 122.524 10.6783C123.38 10.3692 124.327 10.2146 125.364 10.2146C126.079 10.2146 126.791 10.2983 127.499 10.4658C128.208 10.6333 128.855 10.9102 129.441 11.2967C130.027 11.6767 130.497 12.1952 130.852 12.8521C131.212 13.5091 131.393 14.3303 131.393 15.3158V25.2476H128.03V23.209H127.915C127.702 23.6212 127.402 24.0077 127.016 24.3684C126.636 24.7226 126.156 25.0092 125.576 25.2282C125.003 25.4408 124.33 25.5471 123.557 25.5471ZM124.465 22.9772C125.168 22.9772 125.776 22.8387 126.291 22.5617C126.807 22.2783 127.203 21.9048 127.48 21.441C127.763 20.9773 127.905 20.4717 127.905 19.9242V18.1755C127.795 18.2657 127.609 18.3494 127.345 18.4267C127.087 18.504 126.797 18.5716 126.475 18.6296C126.153 18.6875 125.834 18.7391 125.519 18.7842C125.203 18.8292 124.929 18.8679 124.697 18.9001C124.176 18.9709 123.709 19.0869 123.296 19.2479C122.884 19.4089 122.559 19.6344 122.321 19.9242C122.082 20.2076 121.963 20.5747 121.963 21.0256C121.963 21.6697 122.198 22.1559 122.668 22.4844C123.139 22.8129 123.738 22.9772 124.465 22.9772ZM138.407 16.5524V25.2476H134.909V10.4078H138.252V12.9294H138.426C138.767 12.0986 139.312 11.4384 140.059 10.9489C140.812 10.4594 141.743 10.2146 142.851 10.2146C143.875 10.2146 144.767 10.4336 145.527 10.8716C146.294 11.3095 146.886 11.944 147.305 12.7748C147.73 13.6057 147.939 14.6137 147.933 15.7988V25.2476H144.435V16.3399C144.435 15.348 144.178 14.5718 143.662 14.0115C143.154 13.4511 142.448 13.171 141.547 13.171C140.935 13.171 140.39 13.3062 139.914 13.5767C139.444 13.8408 139.073 14.224 138.803 14.7264C138.539 15.2288 138.407 15.8375 138.407 16.5524ZM153.13 30.8125C152.654 30.8125 152.213 30.7738 151.807 30.6965C151.408 30.6257 151.089 30.5419 150.85 30.4453L151.662 27.7208C152.171 27.869 152.625 27.9398 153.024 27.9334C153.424 27.927 153.775 27.8014 154.077 27.5566C154.386 27.3183 154.647 26.919 154.86 26.3586L155.159 25.5567L149.778 10.4078H153.488L156.908 21.6149H157.063L160.492 10.4078H164.212L158.27 27.0446C157.993 27.8303 157.626 28.5034 157.169 29.0638C156.712 29.6306 156.151 30.0621 155.488 30.3584C154.831 30.6611 154.045 30.8125 153.13 30.8125Z" fill="white"/>
<path fill-rule="evenodd" clip-rule="evenodd" d="M11.6528 -0.0722656C10.4138 -0.0722656 9.40933 0.932185 9.40933 2.17124V9.17858H2.2728C1.03375 9.17858 0.0292969 10.183 0.0292969 11.4221V27.9635C0.0292969 29.2026 1.03375 30.207 2.2728 30.207H18.6177C19.8568 30.207 20.8612 29.2026 20.8612 27.9635V20.9562H27.9977C29.2368 20.9562 30.2412 19.9517 30.2412 18.7127V2.17124C30.2412 0.932186 29.2368 -0.0722656 27.9977 -0.0722656H11.6528ZM20.8612 20.9562V11.4221C20.8612 10.183 19.8568 9.17858 18.6177 9.17858H9.40933V18.7127C9.40933 19.9517 10.4138 20.9562 11.6528 20.9562H20.8612Z" fill="white"/>
</g>
</g>
<defs>
<clipPath id="clip0_7846_10384">
<rect width="166" height="32" fill="white"/>
</clipPath>
</defs>
</svg>
