<svg width="34" height="34" viewBox="0 0 34 34" fill="none" xmlns="http://www.w3.org/2000/svg">
<g clip-path="url(#clip0_7486_9790)">
<path d="M1.40234 28.0436V26.6414C1.40234 21.2206 5.79679 16.8262 11.2176 16.8262C16.6384 16.8262 21.0329 21.2206 21.0329 26.6414V28.0436" stroke="#090E0B" stroke-width="2" stroke-linecap="round"/>
<path d="M18.2266 19.63C18.2266 15.7581 21.3655 12.6191 25.2375 12.6191C29.1094 12.6191 32.2484 15.7581 32.2484 19.63V20.3311" stroke="#090E0B" stroke-width="2" stroke-linecap="round"/>
<path d="M11.2181 16.8268C14.3157 16.8268 16.8268 14.3157 16.8268 11.2181C16.8268 8.12048 14.3157 5.60938 11.2181 5.60938C8.12048 5.60938 5.60938 8.12048 5.60938 11.2181C5.60938 14.3157 8.12048 16.8268 11.2181 16.8268Z" stroke="#090E0B" stroke-width="2" stroke-linecap="round" stroke-linejoin="round"/>
<path d="M25.2378 12.6199C27.5611 12.6199 29.4443 10.7365 29.4443 8.41333C29.4443 6.09013 27.5611 4.20679 25.2378 4.20679C22.9145 4.20679 21.0312 6.09013 21.0312 8.41333C21.0312 10.7365 22.9145 12.6199 25.2378 12.6199Z" stroke="#090E0B" stroke-width="2" stroke-linecap="round" stroke-linejoin="round"/>
</g>
<defs>
<clipPath id="clip0_7486_9790">
<rect width="33.6523" height="33.6523" fill="white"/>
</clipPath>
</defs>
</svg>
