<svg width="188" height="28" viewBox="0 0 188 28" fill="none" xmlns="http://www.w3.org/2000/svg">
<rect x="5.18359" y="3.99969" width="3.78502" height="14.4398" rx="1.89251" transform="rotate(-30 5.18359 3.99969)" fill="#02413E"/>
<rect y="16.0671" width="3.78502" height="14.4398" rx="1.89251" transform="rotate(-90 0 16.0671)" fill="#02413E"/>
<rect x="16.6094" y="15.8925" width="3.61105" height="9.38873" rx="1.80552" transform="rotate(-90 16.6094 15.8925)" fill="#09A144"/>
<rect x="16.8477" y="11.3852" width="3.61105" height="9.38873" rx="1.80552" transform="rotate(-150 16.8477 11.3852)" fill="#006D4B"/>
<rect x="13.7227" y="18.4203" width="3.61105" height="9.38873" rx="1.80552" transform="rotate(-30 13.7227 18.4203)" fill="#09A144"/>
<rect x="8.33594" y="25.9572" width="3.78502" height="14.4398" rx="1.89251" transform="rotate(-150 8.33594 25.9572)" fill="#02413E"/>
<path d="M46.7624 21L45.8203 18.6449H39.8092L38.8672 21H34.5607L40.6615 5.59097H44.968L51.0688 21H46.7624ZM40.9531 15.7515H44.6764L42.8148 11.0189L40.9531 15.7515ZM58.7202 21.2692C55.2661 21.2692 52.3278 18.4879 52.3278 15.1908C52.3278 11.8936 55.2661 9.13482 58.7875 9.13482C60.7389 9.13482 62.3538 9.94228 63.4528 11.1983L60.9407 13.2843C60.4473 12.7235 59.5726 12.2974 58.7427 12.2974C57.2399 12.2974 55.9838 13.6207 55.9838 15.1683C55.9838 16.7608 57.2399 18.1066 58.7651 18.1066C59.595 18.1066 60.4922 17.6804 61.008 17.0748L63.5201 19.1384C62.3762 20.4393 60.7613 21.2692 58.7202 21.2692ZM71.0301 21.2692C67.576 21.2692 64.6378 18.4879 64.6378 15.1908C64.6378 11.8936 67.576 9.13482 71.0974 9.13482C73.0488 9.13482 74.6637 9.94228 75.7628 11.1983L73.2507 13.2843C72.7572 12.7235 71.8825 12.2974 71.0526 12.2974C69.5498 12.2974 68.2938 13.6207 68.2938 15.1683C68.2938 16.7608 69.5498 18.1066 71.075 18.1066C71.9049 18.1066 72.8021 17.6804 73.318 17.0748L75.83 19.1384C74.6861 20.4393 73.0712 21.2692 71.0301 21.2692ZM83.4073 21.2692C79.8411 21.2692 76.9477 18.5328 76.9477 15.1908C76.9477 11.8488 79.8411 9.13482 83.4073 9.13482C86.9512 9.13482 89.8222 11.8488 89.8222 15.1908C89.8222 18.5328 86.9512 21.2692 83.4073 21.2692ZM83.4073 18.1066C84.955 18.1066 86.211 16.7833 86.211 15.1908C86.211 13.5983 84.955 12.2974 83.4073 12.2974C81.8373 12.2974 80.5588 13.5983 80.5588 15.1908C80.5588 16.7833 81.8373 18.1066 83.4073 18.1066ZM99.4162 9.40397H103.207V21H99.4162V19.6991C98.6984 20.6636 97.4873 21.2692 96.0293 21.2692C93.5172 21.2692 91.7453 19.4075 91.7453 16.7833V9.40397H95.4013V15.9309C95.4013 17.2094 96.2088 18.1066 97.3751 18.1066C98.5414 18.1066 99.4162 17.2319 99.4162 16.088V9.40397ZM113.297 9.13482C115.809 9.13482 117.581 10.9965 117.581 13.6207V21H113.925V14.473C113.925 13.1946 113.117 12.2974 111.951 12.2974C110.785 12.2974 109.91 13.1721 109.91 14.316V21H106.119V9.40397H109.91V10.7049C110.628 9.74042 111.839 9.13482 113.297 9.13482ZM126.639 17.7253L127.379 20.1701C126.684 20.8206 125.563 21.2692 124.576 21.2692C122.4 21.2692 120.875 19.7215 120.875 17.5459V12.4319H119.327V9.40397H120.875V6.21899H124.508V9.40397H126.908V12.4319H124.508V16.8506C124.508 17.5907 124.935 18.1066 125.54 18.1066C125.966 18.1066 126.393 17.9496 126.639 17.7253ZM134.583 9.13482C137.566 9.13482 139.809 11.0189 139.809 14.1142V21H136.153V19.9907C135.346 20.8206 134.135 21.2692 132.946 21.2692C130.456 21.2692 128.572 19.7664 128.572 17.5683C128.572 15.3029 130.703 13.7104 133.439 13.7104C134.292 13.7104 135.256 13.9123 136.153 14.2712V14.1142C136.153 12.9927 135.323 12.1628 133.619 12.1628C132.587 12.1628 131.623 12.4544 130.725 12.903L129.514 10.4582C131.129 9.6507 132.789 9.13482 134.583 9.13482ZM133.843 18.7571C134.987 18.7571 135.996 18.2187 136.153 17.344V16.5365C135.525 16.245 134.763 16.088 133.978 16.088C132.968 16.088 132.183 16.6711 132.183 17.4561C132.183 18.2412 132.901 18.7571 133.843 18.7571ZM149.635 9.13482C152.147 9.13482 153.919 10.9965 153.919 13.6207V21H150.263V14.473C150.263 13.1946 149.456 12.2974 148.289 12.2974C147.123 12.2974 146.248 13.1721 146.248 14.316V21H142.458V9.40397H146.248V10.7049C146.966 9.74042 148.177 9.13482 149.635 9.13482ZM162.978 17.7253L163.718 20.1701C163.022 20.8206 161.901 21.2692 160.914 21.2692C158.738 21.2692 157.213 19.7215 157.213 17.5459V12.4319H155.666V9.40397H157.213V6.21899H160.847V9.40397H163.247V12.4319H160.847V16.8506C160.847 17.5907 161.273 18.1066 161.879 18.1066C162.305 18.1066 162.731 17.9496 162.978 17.7253ZM186.611 5.59097L181.048 13.2618L186.611 21H182.102L178.783 16.402L175.463 21H171.022L176.585 13.3291L171.022 5.59097H175.531L178.85 10.189L182.17 5.59097H186.611Z" fill="#090E0B"/>
</svg>
