<svg width="191" height="28" viewBox="0 0 191 28" fill="none" xmlns="http://www.w3.org/2000/svg">
<rect x="17.6016" y="16.0054" width="3.82649" height="9.94888" rx="1.91325" transform="rotate(-90 17.6016 16.0054)" fill="#09A144"/>
<rect x="17.8555" y="11.2292" width="3.82649" height="9.94888" rx="1.91325" transform="rotate(-150 17.8555 11.2292)" fill="#09A144"/>
<rect x="14.543" y="18.684" width="3.82649" height="9.94888" rx="1.91325" transform="rotate(-30 14.543 18.684)" fill="#09A144"/>
<rect x="5.49219" y="3.40308" width="4.01084" height="15.3013" rx="2.00542" transform="rotate(-30 5.49219 3.40308)" fill="white"/>
<rect y="16.1904" width="4.01084" height="15.3013" rx="2.00542" transform="rotate(-90 0 16.1904)" fill="white"/>
<rect x="8.83203" y="26.6705" width="4.01084" height="15.3013" rx="2.00542" transform="rotate(-150 8.83203 26.6705)" fill="white"/>
<path d="M49.2858 21L48.3438 18.6449H42.3327L41.3906 21H37.0842L43.185 5.59097H47.4914L53.5922 21H49.2858ZM43.4766 15.7515H47.1999L45.3382 11.0189L43.4766 15.7515ZM61.2437 21.2692C57.7895 21.2692 54.8513 18.4879 54.8513 15.1908C54.8513 11.8936 57.7895 9.13482 61.311 9.13482C63.2623 9.13482 64.8772 9.94228 65.9763 11.1983L63.4642 13.2843C62.9707 12.7235 62.096 12.2974 61.2661 12.2974C59.7633 12.2974 58.5073 13.6207 58.5073 15.1683C58.5073 16.7608 59.7633 18.1066 61.2885 18.1066C62.1184 18.1066 63.0156 17.6804 63.5315 17.0748L66.0436 19.1384C64.8997 20.4393 63.2847 21.2692 61.2437 21.2692ZM73.5536 21.2692C70.0994 21.2692 67.1612 18.4879 67.1612 15.1908C67.1612 11.8936 70.0994 9.13482 73.6209 9.13482C75.5722 9.13482 77.1872 9.94228 78.2862 11.1983L75.7741 13.2843C75.2807 12.7235 74.4059 12.2974 73.576 12.2974C72.0732 12.2974 70.8172 13.6207 70.8172 15.1683C70.8172 16.7608 72.0732 18.1066 73.5984 18.1066C74.4283 18.1066 75.3255 17.6804 75.8414 17.0748L78.3535 19.1384C77.2096 20.4393 75.5947 21.2692 73.5536 21.2692ZM85.9308 21.2692C82.3645 21.2692 79.4711 18.5328 79.4711 15.1908C79.4711 11.8488 82.3645 9.13482 85.9308 9.13482C89.4746 9.13482 92.3456 11.8488 92.3456 15.1908C92.3456 18.5328 89.4746 21.2692 85.9308 21.2692ZM85.9308 18.1066C87.4784 18.1066 88.7345 16.7833 88.7345 15.1908C88.7345 13.5983 87.4784 12.2974 85.9308 12.2974C84.3607 12.2974 83.0822 13.5983 83.0822 15.1908C83.0822 16.7833 84.3607 18.1066 85.9308 18.1066ZM101.94 9.40397H105.73V21H101.94V19.6991C101.222 20.6636 100.011 21.2692 98.5528 21.2692C96.0407 21.2692 94.2688 19.4075 94.2688 16.7833V9.40397H97.9248V15.9309C97.9248 17.2094 98.7322 18.1066 99.8985 18.1066C101.065 18.1066 101.94 17.2319 101.94 16.088V9.40397ZM115.82 9.13482C118.332 9.13482 120.104 10.9965 120.104 13.6207V21H116.448V14.473C116.448 13.1946 115.641 12.2974 114.475 12.2974C113.308 12.2974 112.433 13.1721 112.433 14.316V21H108.643V9.40397H112.433V10.7049C113.151 9.74042 114.362 9.13482 115.82 9.13482ZM129.163 17.7253L129.903 20.1701C129.208 20.8206 128.086 21.2692 127.099 21.2692C124.924 21.2692 123.398 19.7215 123.398 17.5459V12.4319H121.851V9.40397H123.398V6.21899H127.032V9.40397H129.432V12.4319H127.032V16.8506C127.032 17.5907 127.458 18.1066 128.064 18.1066C128.49 18.1066 128.916 17.9496 129.163 17.7253ZM137.107 9.13482C140.09 9.13482 142.333 11.0189 142.333 14.1142V21H138.677V19.9907C137.869 20.8206 136.658 21.2692 135.469 21.2692C132.98 21.2692 131.096 19.7664 131.096 17.5683C131.096 15.3029 133.226 13.7104 135.963 13.7104C136.815 13.7104 137.78 13.9123 138.677 14.2712V14.1142C138.677 12.9927 137.847 12.1628 136.142 12.1628C135.111 12.1628 134.146 12.4544 133.249 12.903L132.038 10.4582C133.653 9.6507 135.312 9.13482 137.107 9.13482ZM136.367 18.7571C137.51 18.7571 138.52 18.2187 138.677 17.344V16.5365C138.049 16.245 137.286 16.088 136.501 16.088C135.492 16.088 134.707 16.6711 134.707 17.4561C134.707 18.2412 135.425 18.7571 136.367 18.7571ZM152.159 9.13482C154.671 9.13482 156.443 10.9965 156.443 13.6207V21H152.787V14.473C152.787 13.1946 151.979 12.2974 150.813 12.2974C149.647 12.2974 148.772 13.1721 148.772 14.316V21H144.981V9.40397H148.772V10.7049C149.49 9.74042 150.701 9.13482 152.159 9.13482ZM165.501 17.7253L166.241 20.1701C165.546 20.8206 164.424 21.2692 163.437 21.2692C161.262 21.2692 159.737 19.7215 159.737 17.5459V12.4319H158.189V9.40397H159.737V6.21899H163.37V9.40397H165.77V12.4319H163.37V16.8506C163.37 17.5907 163.796 18.1066 164.402 18.1066C164.828 18.1066 165.254 17.9496 165.501 17.7253ZM189.134 5.59097L183.572 13.2618L189.134 21H184.626L181.306 16.402L177.987 21H173.546L179.108 13.3291L173.546 5.59097H178.054L181.374 10.189L184.693 5.59097H189.134Z" fill="white"/>
</svg>
