<svg width="683" height="459" viewBox="0 0 683 459" fill="none" xmlns="http://www.w3.org/2000/svg">
<g opacity="0.08">
<mask id="mask0_7481_10086" style="mask-type:alpha" maskUnits="userSpaceOnUse" x="224" y="0" width="234" height="228">
<rect x="-2.5" y="2.5" width="227.628" height="223" transform="matrix(-1 0 0 1 452.504 0)" fill="#D9D9D9" stroke="black" stroke-width="5"/>
</mask>
<g mask="url(#mask0_7481_10086)">
<rect width="279.484" height="5" transform="matrix(4.45987e-08 1 1 -4.28418e-08 399.469 -22.0645)" fill="white"/>
<rect width="279.484" height="5" transform="matrix(4.45987e-08 1 1 -4.28418e-08 339.438 -22.0645)" fill="white"/>
<rect width="279.484" height="5" transform="matrix(4.45987e-08 1 1 -4.28418e-08 284.91 -22.0645)" fill="white"/>
</g>
<mask id="mask1_7481_10086" style="mask-type:alpha" maskUnits="userSpaceOnUse" x="0" y="225" width="233" height="233">
<rect x="-2.5" y="-2.5" width="227.628" height="227.628" transform="matrix(4.37114e-08 -1 -1 -4.37114e-08 227.629 452.67)" fill="#D9D9D9" stroke="black" stroke-width="5"/>
</mask>
<g mask="url(#mask1_7481_10086)">
<rect width="251" height="5" transform="matrix(-1 0 0 1 254.629 392.043)" fill="white"/>
<rect width="285.157" height="5" transform="matrix(4.37114e-08 -1 -1 -4.37114e-08 71.043 352.695)" fill="white"/>
<rect width="251" height="5" transform="matrix(-1 0 0 1 254.629 348.043)" fill="white"/>
<rect width="285.157" height="5" transform="matrix(4.37114e-08 -1 -1 -4.37114e-08 123.57 352.695)" fill="white"/>
<rect width="285.157" height="5" transform="matrix(4.37114e-08 -1 -1 -4.37114e-08 172.352 352.695)" fill="white"/>
</g>
<mask id="mask2_7481_10086" style="mask-type:alpha" maskUnits="userSpaceOnUse" x="449" y="0" width="234" height="229">
<rect x="-2.5" y="2.5" width="228" height="224" transform="matrix(-1 0 0 1 677.629 0)" fill="#D9D9D9" stroke="black" stroke-width="5"/>
</mask>
<g mask="url(#mask2_7481_10086)">
<rect width="285.157" height="5" transform="matrix(-0.707107 0.707107 0.707107 0.707107 804.895 -47.9707)" fill="white"/>
<rect width="285.157" height="5" transform="matrix(-0.707107 0.707107 0.707107 0.707107 762.445 -90.4297)" fill="white"/>
<rect width="285.157" height="5" transform="matrix(-0.707107 0.707107 0.707107 0.707107 725.293 -127.57)" fill="white"/>
<rect width="418.791" height="5" transform="matrix(0.721949 0.691947 0.691947 -0.721949 427.109 -14.9492)" fill="white"/>
<rect width="359.236" height="5" transform="matrix(0.721949 0.691947 0.691947 -0.721949 428.809 69.8086)" fill="white"/>
<rect width="338.346" height="5" transform="matrix(0.721949 0.691947 0.691947 -0.721949 392.445 107.74)" fill="white"/>
</g>
<rect x="-2.5" y="2.5" width="228" height="225" transform="matrix(-1 0 0 1 677.629 0)" stroke="white" stroke-width="5"/>
<rect x="-2.5" y="2.5" width="225" height="225" transform="matrix(-1 0 0 1 449.629 0)" stroke="white" stroke-width="5"/>
<rect x="-2.5" y="2.5" width="222" height="228" transform="matrix(-1 0 0 1 224.629 225.043)" stroke="white" stroke-width="5"/>
<rect x="-2.5" y="2.5" width="228" height="228" transform="matrix(-1 0 0 1 452.629 225)" stroke="white" stroke-width="5"/>
<rect x="-2.5" y="2.5" width="225" height="228" transform="matrix(-1 0 0 1 677.629 225)" stroke="white" stroke-width="5"/>
<mask id="mask3_7481_10086" style="mask-type:alpha" maskUnits="userSpaceOnUse" x="224" y="225" width="231" height="233">
<rect x="-2.5" y="2.5" width="225" height="228" transform="matrix(-1 0 0 1 449.629 225)" fill="#D9D9D9" stroke="black" stroke-width="5"/>
</mask>
<g mask="url(#mask3_7481_10086)">
<rect x="-2.5" y="-2.5" width="603" height="397" rx="198.5" transform="matrix(4.37114e-08 -1 -1 -4.37114e-08 449.629 453)" stroke="white" stroke-width="5"/>
<rect x="-2.5" y="-2.5" width="482.769" height="310.174" rx="155.087" transform="matrix(4.37114e-08 -1 -1 -4.37114e-08 399.977 392.721)" stroke="white" stroke-width="5"/>
<rect x="-2.5" y="-2.5" width="362.702" height="212.62" rx="106.31" transform="matrix(4.37114e-08 -1 -1 -4.37114e-08 339.941 347.695)" stroke="white" stroke-width="5"/>
</g>
<mask id="mask4_7481_10086" style="mask-type:alpha" maskUnits="userSpaceOnUse" x="454" y="228" width="229" height="229">
<rect x="2.5" y="-2.5" width="223" height="224" transform="matrix(1 0 0 -1 454.629 452)" fill="#D9D9D9" stroke="black" stroke-width="5"/>
</mask>
<g mask="url(#mask4_7481_10086)">
<rect x="2.5" y="2.5" width="636.448" height="400.223" rx="200.112" transform="matrix(-4.14208e-08 1 1 4.61286e-08 450 212.304)" stroke="white" stroke-width="5"/>
<rect x="2.5" y="2.5" width="509.742" height="310.174" rx="155.087" transform="matrix(-4.14208e-08 1 1 4.61286e-08 502.527 267.738)" stroke="white" stroke-width="5"/>
<rect x="2.5" y="2.5" width="383.036" height="212.62" rx="106.31" transform="matrix(-4.14208e-08 1 1 4.61286e-08 562.562 323.172)" stroke="white" stroke-width="5"/>
</g>
</g>
</svg>
