<svg width="303" height="599" viewBox="0 0 303 599" fill="none" xmlns="http://www.w3.org/2000/svg">
<g opacity="0.08">
<mask id="mask0_7758_10034" style="mask-type:alpha" maskUnits="userSpaceOnUse" x="0" y="148" width="151" height="154">
<rect x="1.64499" y="1.64499" width="149.779" height="146.733" transform="matrix(4.37114e-08 1 1 -4.37114e-08 0.910156 148.845)" fill="#D9D9D9" stroke="white" stroke-width="3.28999"/>
</mask>
<g mask="url(#mask0_7758_10034)">
<rect x="0.822497" y="-0.822497" width="182.255" height="1.64499" transform="matrix(1 -8.83101e-08 -8.65531e-08 -1 -13.6084 185.386)" fill="#024F4C" stroke="white" stroke-width="1.64499"/>
<rect x="0.822497" y="-0.822497" width="182.255" height="1.64499" transform="matrix(1 -8.83101e-08 -8.65531e-08 -1 -13.6084 224.887)" fill="#024F4C" stroke="white" stroke-width="1.64499"/>
<rect x="0.822497" y="-0.822497" width="182.255" height="1.64499" transform="matrix(1 -8.83101e-08 -8.65531e-08 -1 -13.6084 260.766)" fill="#024F4C" stroke="white" stroke-width="1.64499"/>
</g>
<mask id="mask1_7758_10034" style="mask-type:alpha" maskUnits="userSpaceOnUse" x="149" y="445" width="154" height="154">
<rect x="1.64499" y="1.64499" width="149.779" height="149.779" transform="matrix(4.37114e-08 1 1 -4.37114e-08 149.042 445.106)" fill="#D9D9D9" stroke="white" stroke-width="3.28999"/>
</mask>
<g mask="url(#mask1_7758_10034)">
<rect x="-1.96099e-07" y="-1.16319" width="185.988" height="1.64499" transform="matrix(0.707107 -0.707107 -0.707107 -0.707107 52.9568 653.358)" fill="#024F4C" stroke="white" stroke-width="1.64499"/>
<rect x="-1.96099e-07" y="-1.16319" width="224.157" height="1.64499" transform="matrix(0.707107 -0.707107 -0.707107 -0.707107 80.8855 681.287)" fill="#024F4C" stroke="white" stroke-width="1.64499"/>
<rect x="-1.96099e-07" y="-1.16319" width="259.435" height="1.64499" transform="matrix(0.707107 -0.707107 -0.707107 -0.707107 105.333 705.725)" fill="#024F4C" stroke="white" stroke-width="1.64499"/>
<rect x="-1.96099e-07" y="-1.16319" width="259.435" height="1.64499" transform="matrix(0.707107 -0.707107 -0.707107 -0.707107 122.084 739.855)" fill="#024F4C" stroke="white" stroke-width="1.64499"/>
<rect x="0.822497" y="-0.822497" width="185.988" height="1.64499" transform="matrix(1 -8.74228e-08 -8.74228e-08 -1 134.229 482.962)" fill="#024F4C" stroke="white" stroke-width="1.64499"/>
<rect x="0.822497" y="-0.822497" width="185.988" height="1.64499" transform="matrix(1 -8.74228e-08 -8.74228e-08 -1 134.229 522.464)" fill="#024F4C" stroke="white" stroke-width="1.64499"/>
</g>
<mask id="mask2_7758_10034" style="mask-type:alpha" maskUnits="userSpaceOnUse" x="148" y="296" width="155" height="154">
<rect x="-1.64499" y="1.64499" width="149.779" height="149.779" transform="matrix(-1 0 0 1 298.766 296.812)" fill="#D9D9D9" stroke="white" stroke-width="3.28999"/>
</mask>
<g mask="url(#mask2_7758_10034)">
<rect x="0.822497" y="0.822497" width="163.512" height="1.64499" transform="matrix(4.37114e-08 1 1 -4.37114e-08 258.873 282.337)" fill="#024F4C" stroke="white" stroke-width="1.64499"/>
<rect x="-0.822497" y="0.822497" width="185.988" height="1.64499" transform="matrix(-1 0 0 1 231.337 403.136)" fill="#024F4C" stroke="white" stroke-width="1.64499"/>
<rect x="0.822497" y="0.822497" width="163.512" height="1.64499" transform="matrix(4.37114e-08 1 1 -4.37114e-08 229.921 282.337)" fill="#024F4C" stroke="white" stroke-width="1.64499"/>
<rect x="-0.822497" y="0.822497" width="185.988" height="1.64499" transform="matrix(-1 0 0 1 231.337 368.572)" fill="#024F4C" stroke="white" stroke-width="1.64499"/>
<rect x="-0.822497" y="0.822497" width="185.988" height="1.64499" transform="matrix(-1 0 0 1 231.337 336.476)" fill="#024F4C" stroke="white" stroke-width="1.64499"/>
</g>
<mask id="mask3_7758_10034" style="mask-type:alpha" maskUnits="userSpaceOnUse" x="0" y="0" width="152" height="155">
<rect x="1.64499" y="1.64499" width="150.023" height="147.391" transform="matrix(4.37114e-08 1 1 -4.37114e-08 0.910156 0.713501)" fill="#D9D9D9" stroke="white" stroke-width="3.28999"/>
</mask>
<g mask="url(#mask3_7758_10034)">
<rect x="1.16319" y="-9.80493e-08" width="185.988" height="1.64499" transform="matrix(0.707107 0.707107 0.707107 -0.707107 -30.3136 -80.5596)" fill="#024F4C" stroke="white" stroke-width="1.64499"/>
<rect x="1.16319" y="-9.80493e-08" width="185.988" height="1.64499" transform="matrix(0.707107 0.707107 0.707107 -0.707107 -58.2521 -52.6294)" fill="#024F4C" stroke="white" stroke-width="1.64499"/>
<rect x="1.16319" y="-9.80493e-08" width="185.988" height="1.64499" transform="matrix(0.707107 0.707107 0.707107 -0.707107 -82.6906 -28.182)" fill="#024F4C" stroke="white" stroke-width="1.64499"/>
<rect x="-0.0246765" y="-1.16292" width="273.918" height="1.64499" transform="matrix(0.691947 -0.721949 -0.721949 -0.691947 -9.77393 166.861)" fill="#024F4C" stroke="white" stroke-width="1.64499"/>
<rect x="-0.0246765" y="-1.16292" width="234.731" height="1.64499" transform="matrix(0.691947 -0.721949 -0.721949 -0.691947 45.9976 165.741)" fill="#024F4C" stroke="white" stroke-width="1.64499"/>
<rect x="-0.0246765" y="-1.16292" width="220.986" height="1.64499" transform="matrix(0.691947 -0.721949 -0.721949 -0.691947 70.9556 189.669)" fill="#024F4C" stroke="white" stroke-width="1.64499"/>
</g>
<rect x="1.64499" y="1.64499" width="150.023" height="148.049" transform="matrix(4.37114e-08 1 1 -4.37114e-08 0.910156 0.713501)" stroke="white" stroke-width="3.28999"/>
<rect x="1.64499" y="1.64499" width="148.049" height="148.049" transform="matrix(4.37114e-08 1 1 -4.37114e-08 0.910156 150.737)" stroke="white" stroke-width="3.28999"/>
<rect x="1.64499" y="1.64499" width="149.779" height="149.779" transform="matrix(4.37114e-08 1 1 -4.37114e-08 149.042 445.106)" stroke="white" stroke-width="3.28999"/>
<rect x="1.64499" y="1.64499" width="146.075" height="150.023" transform="matrix(4.37114e-08 1 1 -4.37114e-08 148.987 298.786)" stroke="white" stroke-width="3.28999"/>
<rect x="1.64499" y="1.64499" width="150.023" height="150.023" transform="matrix(4.37114e-08 1 1 -4.37114e-08 148.96 148.763)" stroke="white" stroke-width="3.28999"/>
<rect x="1.64499" y="1.64499" width="148.049" height="150.023" transform="matrix(4.37114e-08 1 1 -4.37114e-08 148.96 0.713501)" stroke="white" stroke-width="3.28999"/>
<mask id="mask4_7758_10034" style="mask-type:alpha" maskUnits="userSpaceOnUse" x="148" y="150" width="155" height="153">
<rect x="1.64499" y="1.64499" width="148.049" height="150.023" transform="matrix(4.37114e-08 1 1 -4.37114e-08 148.96 150.737)" fill="#D9D9D9" stroke="white" stroke-width="3.28999"/>
</mask>
<g mask="url(#mask4_7758_10034)">
<rect x="-1.64499" y="1.64499" width="396.772" height="261.225" rx="130.613" transform="matrix(-1 0 0 1 298.983 150.737)" stroke="white" stroke-width="3.28999"/>
<rect x="-1.64499" y="1.64499" width="317.66" height="204.093" rx="102.047" transform="matrix(-1 0 0 1 259.319 183.408)" stroke="white" stroke-width="3.28999"/>
<rect x="-1.64499" y="1.64499" width="238.657" height="139.903" rx="69.9517" transform="matrix(-1 0 0 1 229.693 222.91)" stroke="white" stroke-width="3.28999"/>
</g>
<mask id="mask5_7758_10034" style="mask-type:alpha" maskUnits="userSpaceOnUse" x="150" y="0" width="152" height="151">
<rect x="-1.64499" y="-1.64499" width="146.733" height="147.391" transform="matrix(-4.37114e-08 -1 -1 4.37114e-08 298.325 147.447)" fill="#D9D9D9" stroke="white" stroke-width="3.28999"/>
</mask>
<g mask="url(#mask5_7758_10034)">
<rect x="1.64499" y="-1.64499" width="418.781" height="263.346" rx="131.673" transform="matrix(1 -2.29055e-09 2.41722e-09 -1 140.606 150.493)" stroke="white" stroke-width="3.28999"/>
<rect x="1.64499" y="-1.64499" width="335.409" height="204.093" rx="102.047" transform="matrix(1 -2.29055e-09 2.41722e-09 -1 177.082 115.929)" stroke="white" stroke-width="3.28999"/>
<rect x="1.64499" y="-1.64499" width="252.037" height="139.903" rx="69.9517" transform="matrix(1 -2.29055e-09 2.41722e-09 -1 213.558 76.4278)" stroke="white" stroke-width="3.28999"/>
</g>
</g>
</svg>
