<svg width="573" height="387" viewBox="0 0 573 387" fill="none" xmlns="http://www.w3.org/2000/svg">
<g opacity="0.08">
<mask id="mask0_7798_16710" style="mask-type:alpha" maskUnits="userSpaceOnUse" x="186" y="0" width="197" height="195">
<rect x="-1.22088" y="1.22088" width="194.054" height="192.085" transform="matrix(-1 0 0 1 380.4 0.000854492)" fill="#D9D9D9" stroke="black" stroke-width="2.44176"/>
</mask>
<g mask="url(#mask0_7798_16710)">
<rect width="238.453" height="2.44176" transform="matrix(4.41538e-08 1 1 -4.32734e-08 336.963 -18.7192)" fill="white"/>
<rect width="238.453" height="2.44176" transform="matrix(4.41538e-08 1 1 -4.32734e-08 284.873 -18.7192)" fill="white"/>
<rect width="238.453" height="2.44176" transform="matrix(4.41538e-08 1 1 -4.32734e-08 237.055 -18.8242)" fill="white"/>
</g>
<mask id="mask1_7798_16710" style="mask-type:alpha" maskUnits="userSpaceOnUse" x="0" y="193" width="189" height="194">
<rect x="-1.22088" y="-1.22088" width="190.457" height="186.388" transform="matrix(4.37114e-08 -1 -1 -4.37114e-08 186.388 384.171)" fill="#D9D9D9" stroke="black" stroke-width="2.44176"/>
</mask>
<g mask="url(#mask1_7798_16710)">
<rect width="207.628" height="2.39671" transform="matrix(-1 0 0 1 207.029 332.986)" fill="white"/>
<rect width="236.422" height="2.39125" transform="matrix(4.37114e-08 -1 -1 -4.37114e-08 55.1641 297.108)" fill="white"/>
<rect width="207.628" height="2.39671" transform="matrix(-1 0 0 1 207.029 296.506)" fill="white"/>
<rect width="236.422" height="2.39125" transform="matrix(4.37114e-08 -1 -1 -4.37114e-08 98.6191 297.108)" fill="white"/>
<rect width="236.422" height="2.39125" transform="matrix(4.37114e-08 -1 -1 -4.37114e-08 138.969 297.108)" fill="white"/>
</g>
<mask id="mask2_7798_16710" style="mask-type:alpha" maskUnits="userSpaceOnUse" x="380" y="0" width="194" height="197">
<rect x="-1.22088" y="1.22088" width="190.457" height="193.713" transform="matrix(-1 0 0 1 570.56 0.000854492)" fill="#D9D9D9" stroke="black" stroke-width="2.44176"/>
</mask>
<g mask="url(#mask2_7798_16710)">
<rect width="240.866" height="2.44176" transform="matrix(-0.707107 0.707107 0.707107 0.707107 676.275 -40.5188)" fill="white"/>
<rect width="240.866" height="2.44176" transform="matrix(-0.707107 0.707107 0.707107 0.707107 640.422 -76.3838)" fill="white"/>
<rect width="240.866" height="2.44176" transform="matrix(-0.707107 0.707107 0.707107 0.707107 609.037 -107.755)" fill="white"/>
<rect width="353.743" height="2.44176" transform="matrix(0.721949 0.691947 0.691947 -0.721949 357.166 -12.6277)" fill="white"/>
<rect width="303.439" height="2.44176" transform="matrix(0.721949 0.691947 0.691947 -0.721949 358.604 58.9673)" fill="white"/>
<rect width="285.794" height="2.44176" transform="matrix(0.721949 0.691947 0.691947 -0.721949 327.889 91.0059)" fill="white"/>
</g>
<rect x="-1.22088" y="1.22088" width="190.457" height="193.713" transform="matrix(-1 0 0 1 570.558 0)" stroke="white" stroke-width="2.44176"/>
<rect x="-1.22088" y="1.22088" width="193.713" height="193.713" transform="matrix(-1 0 0 1 380.101 0)" stroke="white" stroke-width="2.44176"/>
<rect x="-1.22088" y="1.22088" width="186.388" height="190.457" transform="matrix(-1 0 0 1 186.388 193.713)" stroke="white" stroke-width="2.44176"/>
<rect x="-1.22088" y="1.22088" width="193.713" height="190.457" transform="matrix(-1 0 0 1 380.101 193.713)" stroke="white" stroke-width="2.44176"/>
<rect x="-1.22088" y="1.22088" width="190.457" height="190.457" transform="matrix(-1 0 0 1 570.558 193.713)" stroke="white" stroke-width="2.44176"/>
<mask id="mask3_7798_16710" style="mask-type:alpha" maskUnits="userSpaceOnUse" x="186" y="193" width="197" height="194">
<rect x="-1.22088" y="1.22088" width="193.713" height="190.457" transform="matrix(-1 0 0 1 380.101 193.712)" fill="#D9D9D9" stroke="black" stroke-width="2.44176"/>
</mask>
<g mask="url(#mask3_7798_16710)">
<rect x="-1.22088" y="-1.22088" width="501.573" height="348.777" rx="174.389" transform="matrix(4.60688e-08 -1 -1 -4.14746e-08 384.632 384.42)" stroke="white" stroke-width="2.44176"/>
<rect x="-1.22088" y="-1.22088" width="401.905" height="272.919" rx="136.46" transform="matrix(4.60688e-08 -1 -1 -4.14746e-08 337.181 334.45)" stroke="white" stroke-width="2.44176"/>
<rect x="-1.22088" y="-1.22088" width="302.373" height="187.688" rx="93.8441" transform="matrix(4.60688e-08 -1 -1 -4.14746e-08 284.734 297.125)" stroke="white" stroke-width="2.44176"/>
</g>
<mask id="mask4_7798_16710" style="mask-type:alpha" maskUnits="userSpaceOnUse" x="380" y="194" width="193" height="192">
<rect x="1.22088" y="-1.22088" width="190.457" height="188.83" transform="matrix(1 0 0 -1 380.102 383.357)" fill="#D9D9D9" stroke="black" stroke-width="2.44176"/>
</mask>
<g mask="url(#mask4_7798_16710)">
<rect x="1.22088" y="1.22088" width="510.983" height="339.841" rx="169.921" transform="matrix(-4.37114e-08 1 1 4.37114e-08 376.502 190.162)" stroke="white" stroke-width="2.44176"/>
<rect x="1.22088" y="1.22088" width="409.566" height="263.778" rx="131.889" transform="matrix(-4.37114e-08 1 1 4.37114e-08 420.871 234.533)" stroke="white" stroke-width="2.44176"/>
<rect x="1.22088" y="1.22088" width="308.148" height="181.377" rx="90.6885" transform="matrix(-4.37114e-08 1 1 4.37114e-08 471.58 278.903)" stroke="white" stroke-width="2.44176"/>
</g>
</g>
</svg>
