<svg width="204" height="32" viewBox="0 0 204 32" fill="none" xmlns="http://www.w3.org/2000/svg">
<g clip-path="url(#clip0_7846_10383)">
<g opacity="0.8">
<path d="M57.8561 15.2871C57.8561 17.3801 57.4641 19.1729 56.68 20.6652C55.9022 22.1512 54.8398 23.2895 53.4929 24.0799C52.1523 24.8704 50.6315 25.2656 48.9305 25.2656C47.2295 25.2656 45.7055 24.8704 44.3586 24.0799C43.018 23.2832 41.9556 22.1418 41.1715 20.6557C40.3937 19.1634 40.0048 17.3738 40.0048 15.2871C40.0048 13.194 40.3937 11.4044 41.1715 9.91838C41.9556 8.42603 43.018 7.28463 44.3586 6.49419C45.7055 5.70375 47.2295 5.30853 48.9305 5.30853C50.6315 5.30853 52.1523 5.70375 53.4929 6.49419C54.8398 7.28463 55.9022 8.42603 56.68 9.91838C57.4641 11.4044 57.8561 13.194 57.8561 15.2871ZM54.3181 15.2871C54.3181 13.8137 54.0873 12.5711 53.6257 11.5593C53.1704 10.5412 52.5381 9.77294 51.7286 9.25441C50.9192 8.72956 49.9865 8.46713 48.9305 8.46713C47.8745 8.46713 46.9417 8.72956 46.1323 9.25441C45.3229 9.77294 44.6874 10.5412 44.2258 11.5593C43.7705 12.5711 43.5428 13.8137 43.5428 15.2871C43.5428 16.7604 43.7705 18.0062 44.2258 19.0243C44.6874 20.036 45.3229 20.8043 46.1323 21.3292C46.9417 21.8477 47.8745 22.107 48.9305 22.107C49.9865 22.107 50.9192 21.8477 51.7286 21.3292C52.5381 20.8043 53.1704 20.036 53.6257 19.0243C54.0873 18.0062 54.3181 16.7604 54.3181 15.2871ZM61.0314 25V10.4306H64.3607V12.8588H64.5125C64.778 12.0178 65.2333 11.3696 65.8783 10.9143C66.5297 10.4527 67.2727 10.2219 68.1074 10.2219C68.2971 10.2219 68.5089 10.2314 68.7429 10.2504C68.9832 10.263 69.1824 10.2851 69.3405 10.3168V13.4754C69.195 13.4248 68.9642 13.3805 68.648 13.3426C68.3382 13.2983 68.0378 13.2762 67.7469 13.2762C67.1209 13.2762 66.5581 13.4121 66.0586 13.684C65.5653 13.9496 65.1764 14.3196 64.8919 14.7938C64.6073 15.2681 64.465 15.8151 64.465 16.4348V25H61.0314ZM77.3579 30.7671C76.1248 30.7671 75.0656 30.5995 74.1803 30.2643C73.295 29.9355 72.5836 29.4929 72.0461 28.9364C71.5086 28.3799 71.1356 27.7634 70.9269 27.0868L74.0191 26.3374C74.1582 26.622 74.3606 26.9034 74.6261 27.1816C74.8917 27.4662 75.249 27.7001 75.698 27.8835C76.1533 28.0732 76.7256 28.1681 77.4148 28.1681C78.3887 28.1681 79.1949 27.931 79.8336 27.4567C80.4723 26.9888 80.7916 26.2173 80.7916 25.1423V22.3821H80.6209C80.4438 22.7362 80.1845 23.0998 79.8431 23.4729C79.5079 23.846 79.0621 24.159 78.5056 24.4119C77.9555 24.6649 77.2631 24.7913 76.4284 24.7913C75.3091 24.7913 74.2942 24.5289 73.3836 24.004C72.4793 23.4729 71.7584 22.6824 71.2209 21.6327C70.6898 20.5767 70.4242 19.2551 70.4242 17.6679C70.4242 16.068 70.6898 14.7179 71.2209 13.6176C71.7584 12.511 72.4825 11.6732 73.3931 11.104C74.3036 10.5286 75.3186 10.2409 76.4378 10.2409C77.2915 10.2409 77.9934 10.3863 78.5436 10.6772C79.1 10.9618 79.5427 11.3064 79.8715 11.7111C80.2003 12.1095 80.4501 12.4857 80.6209 12.8399H80.8106V10.4306H84.1968V25.2371C84.1968 26.4829 83.8996 27.5136 83.3052 28.3293C82.7108 29.1451 81.8982 29.7553 80.8675 30.16C79.8367 30.5647 78.6669 30.7671 77.3579 30.7671ZM77.3864 22.0975C78.1136 22.0975 78.7333 21.9204 79.2455 21.5663C79.7577 21.2122 80.1466 20.7032 80.4122 20.0392C80.6778 19.3752 80.8106 18.5785 80.8106 17.6489C80.8106 16.732 80.6778 15.9289 80.4122 15.2396C80.1529 14.5504 79.7672 14.016 79.255 13.6366C78.7491 13.2509 78.1262 13.058 77.3864 13.058C76.6212 13.058 75.9825 13.2572 75.4703 13.6556C74.9581 14.054 74.5724 14.601 74.3131 15.2965C74.0539 15.9858 73.9242 16.7699 73.9242 17.6489C73.9242 18.5405 74.0539 19.3215 74.3131 19.9918C74.5787 20.6557 74.9676 21.1743 75.4798 21.5474C75.9984 21.9141 76.6339 22.0975 77.3864 22.0975ZM91.9084 25.294C90.9851 25.294 90.1536 25.1296 89.4137 24.8008C88.6802 24.4657 88.0984 23.9724 87.6684 23.3211C87.2448 22.6698 87.0329 21.8667 87.0329 20.9118C87.0329 20.0898 87.1847 19.41 87.4882 18.8725C87.7917 18.335 88.2059 17.905 88.7308 17.5825C89.2556 17.26 89.8469 17.0165 90.5045 16.8521C91.1685 16.6814 91.8546 16.5581 92.5628 16.4822C93.4165 16.3937 94.1089 16.3146 94.6401 16.2451C95.1713 16.1692 95.557 16.0554 95.7973 15.9036C96.0439 15.7455 96.1673 15.5021 96.1673 15.1732V15.1163C96.1673 14.4018 95.9554 13.8485 95.5317 13.4564C95.1081 13.0643 94.4978 12.8683 93.7011 12.8683C92.86 12.8683 92.1929 13.0517 91.6997 13.4185C91.2128 13.7852 90.8839 14.2184 90.7132 14.7179L87.5072 14.2626C87.7601 13.3774 88.1775 12.6375 88.7592 12.0431C89.341 11.4424 90.0524 10.9934 90.8934 10.6962C91.7345 10.3926 92.664 10.2409 93.6821 10.2409C94.384 10.2409 95.0828 10.3231 95.7784 10.4875C96.4739 10.6519 97.1095 10.9238 97.6849 11.3032C98.2603 11.6763 98.722 12.1854 99.0698 12.8304C99.4239 13.4754 99.6009 14.2816 99.6009 15.2491V25H96.3V22.9986H96.1862C95.9775 23.4033 95.6835 23.7827 95.3041 24.1368C94.931 24.4846 94.4599 24.766 93.8908 24.981C93.328 25.1897 92.6672 25.294 91.9084 25.294ZM92.8 22.771C93.4892 22.771 94.0868 22.635 94.5927 22.3631C95.0986 22.0849 95.4875 21.7181 95.7594 21.2628C96.0376 20.8075 96.1767 20.3111 96.1767 19.7736V18.0568C96.0692 18.1453 95.8859 18.2275 95.6266 18.3034C95.3737 18.3793 95.0891 18.4457 94.7729 18.5026C94.4567 18.5595 94.1437 18.6101 93.8339 18.6543C93.524 18.6986 93.2553 18.7365 93.0276 18.7682C92.5154 18.8377 92.057 18.9515 91.6523 19.1096C91.2475 19.2677 90.9282 19.489 90.6942 19.7736C90.4603 20.0518 90.3433 20.4123 90.3433 20.8549C90.3433 21.4873 90.5741 21.9647 91.0357 22.2872C91.4973 22.6097 92.0854 22.771 92.8 22.771ZM106.487 16.4632V25H103.054V10.4306H106.335V12.9062H106.506C106.841 12.0905 107.376 11.4424 108.109 10.9618C108.849 10.4812 109.763 10.2409 110.85 10.2409C111.856 10.2409 112.732 10.4559 113.478 10.8859C114.23 11.3159 114.812 11.9387 115.223 12.7545C115.641 13.5702 115.846 14.5599 115.84 15.7234V25H112.406V16.2546C112.406 15.2807 112.153 14.5187 111.647 13.9686C111.148 13.4185 110.455 13.1434 109.57 13.1434C108.969 13.1434 108.435 13.2762 107.967 13.5418C107.505 13.801 107.142 14.1773 106.876 14.6705C106.617 15.1637 106.487 15.7613 106.487 16.4632ZM119.33 25V10.4306H122.764V25H119.33ZM121.057 8.36279C120.513 8.36279 120.045 8.18257 119.653 7.82213C119.261 7.45537 119.065 7.01588 119.065 6.50368C119.065 5.98515 119.261 5.54566 119.653 5.18522C120.045 4.81845 120.513 4.63507 121.057 4.63507C121.607 4.63507 122.075 4.81845 122.46 5.18522C122.853 5.54566 123.049 5.98515 123.049 6.50368C123.049 7.01588 122.853 7.45537 122.46 7.82213C122.075 8.18257 121.607 8.36279 121.057 8.36279ZM126.105 25V22.8184L133.618 13.3995V13.2762H126.352V10.4306H137.82V12.7735L130.668 22.0311V22.1544H138.066V25H126.105ZM145.486 25.294C144.563 25.294 143.731 25.1296 142.991 24.8008C142.258 24.4657 141.676 23.9724 141.246 23.3211C140.822 22.6698 140.611 21.8667 140.611 20.9118C140.611 20.0898 140.762 19.41 141.066 18.8725C141.369 18.335 141.784 17.905 142.308 17.5825C142.833 17.26 143.425 17.0165 144.082 16.8521C144.746 16.6814 145.432 16.5581 146.141 16.4822C146.994 16.3937 147.687 16.3146 148.218 16.2451C148.749 16.1692 149.135 16.0554 149.375 15.9036C149.622 15.7455 149.745 15.5021 149.745 15.1732V15.1163C149.745 14.4018 149.533 13.8485 149.109 13.4564C148.686 13.0643 148.076 12.8683 147.279 12.8683C146.438 12.8683 145.771 13.0517 145.277 13.4185C144.79 13.7852 144.462 14.2184 144.291 14.7179L141.085 14.2626C141.338 13.3774 141.755 12.6375 142.337 12.0431C142.919 11.4424 143.63 10.9934 144.471 10.6962C145.312 10.3926 146.242 10.2409 147.26 10.2409C147.962 10.2409 148.66 10.3231 149.356 10.4875C150.052 10.6519 150.687 10.9238 151.263 11.3032C151.838 11.6763 152.3 12.1854 152.647 12.8304C153.002 13.4754 153.179 14.2816 153.179 15.2491V25H149.878V22.9986H149.764C149.555 23.4033 149.261 23.7827 148.882 24.1368C148.509 24.4846 148.038 24.766 147.468 24.981C146.906 25.1897 146.245 25.294 145.486 25.294ZM146.378 22.771C147.067 22.771 147.664 22.635 148.17 22.3631C148.676 22.0849 149.065 21.7181 149.337 21.2628C149.615 20.8075 149.754 20.3111 149.754 19.7736V18.0568C149.647 18.1453 149.464 18.2275 149.204 18.3034C148.951 18.3793 148.667 18.4457 148.351 18.5026C148.034 18.5595 147.721 18.6101 147.412 18.6543C147.102 18.6986 146.833 18.7365 146.605 18.7682C146.093 18.8377 145.635 18.9515 145.23 19.1096C144.825 19.2677 144.506 19.489 144.272 19.7736C144.038 20.0518 143.921 20.4123 143.921 20.8549C143.921 21.4873 144.152 21.9647 144.613 22.2872C145.075 22.6097 145.663 22.771 146.378 22.771ZM163.906 10.4306V13.0865H155.531V10.4306H163.906ZM157.599 6.94H161.032V20.6178C161.032 21.0794 161.102 21.4335 161.241 21.6801C161.387 21.9204 161.576 22.0849 161.81 22.1734C162.044 22.2619 162.303 22.3062 162.588 22.3062C162.803 22.3062 162.999 22.2904 163.176 22.2587C163.359 22.2271 163.499 22.1987 163.593 22.1734L164.172 24.8577C163.989 24.921 163.726 24.9905 163.385 25.0664C163.05 25.1423 162.639 25.1865 162.152 25.1992C161.292 25.2245 160.517 25.0949 159.828 24.8103C159.139 24.5194 158.592 24.0704 158.187 23.4634C157.788 22.8563 157.592 22.0975 157.599 21.1869V6.94ZM166.778 25V10.4306H170.212V25H166.778ZM168.504 8.36279C167.961 8.36279 167.493 8.18257 167.101 7.82213C166.709 7.45537 166.513 7.01588 166.513 6.50368C166.513 5.98515 166.709 5.54566 167.101 5.18522C167.493 4.81845 167.961 4.63507 168.504 4.63507C169.055 4.63507 169.523 4.81845 169.908 5.18522C170.3 5.54566 170.496 5.98515 170.496 6.50368C170.496 7.01588 170.3 7.45537 169.908 7.82213C169.523 8.18257 169.055 8.36279 168.504 8.36279ZM180.098 25.2846C178.675 25.2846 177.442 24.9715 176.399 24.3455C175.355 23.7195 174.546 22.8437 173.97 21.7181C173.401 20.5925 173.117 19.2772 173.117 17.7722C173.117 16.2672 173.401 14.9487 173.97 13.8168C174.546 12.6849 175.355 11.806 176.399 11.1799C177.442 10.5539 178.675 10.2409 180.098 10.2409C181.521 10.2409 182.754 10.5539 183.797 11.1799C184.841 11.806 185.647 12.6849 186.216 13.8168C186.791 14.9487 187.079 16.2672 187.079 17.7722C187.079 19.2772 186.791 20.5925 186.216 21.7181C185.647 22.8437 184.841 23.7195 183.797 24.3455C182.754 24.9715 181.521 25.2846 180.098 25.2846ZM180.117 22.5338C180.888 22.5338 181.533 22.322 182.052 21.8983C182.57 21.4683 182.956 20.8929 183.209 20.172C183.468 19.4511 183.598 18.648 183.598 17.7627C183.598 16.8711 183.468 16.0649 183.209 15.344C182.956 14.6168 182.57 14.0382 182.052 13.6082C181.533 13.1782 180.888 12.9632 180.117 12.9632C179.326 12.9632 178.669 13.1782 178.144 13.6082C177.625 14.0382 177.236 14.6168 176.977 15.344C176.724 16.0649 176.598 16.8711 176.598 17.7627C176.598 18.648 176.724 19.4511 176.977 20.172C177.236 20.8929 177.625 21.4683 178.144 21.8983C178.669 22.322 179.326 22.5338 180.117 22.5338ZM193.427 16.4632V25H189.993V10.4306H193.275V12.9062H193.446C193.781 12.0905 194.316 11.4424 195.049 10.9618C195.789 10.4812 196.703 10.2409 197.79 10.2409C198.796 10.2409 199.672 10.4559 200.418 10.8859C201.17 11.3159 201.752 11.9387 202.163 12.7545C202.58 13.5702 202.786 14.5599 202.78 15.7234V25H199.346V16.2546C199.346 15.2807 199.093 14.5187 198.587 13.9686C198.088 13.4185 197.395 13.1434 196.51 13.1434C195.909 13.1434 195.375 13.2762 194.907 13.5418C194.445 13.801 194.082 14.1773 193.816 14.6705C193.557 15.1637 193.427 15.7613 193.427 16.4632Z" fill="white"/>
<path d="M13.7706 3.75475C13.7706 2.65699 12.8761 1.75239 11.7898 1.91029C10.6627 2.07412 9.55774 2.37751 8.50079 2.81531C6.83007 3.50735 5.31202 4.52168 4.0333 5.80039C2.75459 7.07911 1.74026 8.59716 1.04822 10.2679C0.356185 11.9386 -7.23013e-07 13.7293 -7.66142e-07 15.5376C-8.09272e-07 17.346 0.356185 19.1367 1.04822 20.8074C1.74026 22.4781 2.75459 23.9962 4.0333 25.2749C5.31202 26.5536 6.83007 27.5679 8.50079 28.26C10.1715 28.952 11.9622 29.3082 13.7706 29.3082L13.7706 22.6983C12.8302 22.6983 11.8991 22.5131 11.0303 22.1533C10.1615 21.7934 9.37211 21.2659 8.70718 20.601C8.04225 19.9361 7.5148 19.1467 7.15494 18.2779C6.79508 17.4091 6.60987 16.478 6.60987 15.5376C6.60987 14.5973 6.79508 13.6661 7.15494 12.7974C7.5148 11.9286 8.04225 11.1392 8.70718 10.4743C9.37211 9.80934 10.1615 9.28189 11.0303 8.92203C11.2847 8.81664 11.5445 8.72622 11.8083 8.65106C12.864 8.35024 13.7706 7.48705 13.7706 6.3893L13.7706 3.75475Z" fill="white"/>
<path d="M25.3678 15.5376C26.4656 15.5376 27.3702 16.432 27.2123 17.5184C27.0484 18.6455 26.7451 19.7504 26.3072 20.8074C25.6152 22.4781 24.6009 23.9961 23.3222 25.2749C22.0435 26.5536 20.5254 27.5679 18.8547 28.2599C17.184 28.952 15.3933 29.3082 13.5849 29.3082L13.5849 22.6983C14.5253 22.6983 15.4564 22.5131 16.3252 22.1532C17.194 21.7934 17.9834 21.2659 18.6483 20.601C19.3132 19.936 19.8407 19.1467 20.2005 18.2779C20.3059 18.0234 20.3963 17.7636 20.4715 17.4998C20.7723 16.4441 21.6355 15.5376 22.7333 15.5376L25.3678 15.5376Z" fill="white"/>
<path d="M27.6901 1.77344C28.7878 1.77344 29.6924 2.66788 29.5345 3.75421C29.3707 4.88129 29.0673 5.98625 28.6295 7.0432C27.9375 8.71392 26.9231 10.232 25.6444 11.5107C24.3657 12.7894 22.8477 13.8037 21.1769 14.4958C20.12 14.9336 19.015 15.237 17.888 15.4008C16.8016 15.5587 15.9072 14.6541 15.9072 13.5563L15.9072 10.9218C15.9072 9.82403 16.8137 8.96084 17.8694 8.66003C18.1332 8.58486 18.393 8.49445 18.6475 8.38905C19.5162 8.02919 20.3056 7.50174 20.9706 6.83681C21.6355 6.17188 22.1629 5.38249 22.5228 4.51372C22.6282 4.25927 22.7186 3.99948 22.7938 3.73568C23.0946 2.67995 23.9578 1.77344 25.0555 1.77344L27.6901 1.77344Z" fill="white"/>
</g>
</g>
<defs>
<clipPath id="clip0_7846_10383">
<rect width="204" height="32" fill="white"/>
</clipPath>
</defs>
</svg>
