<svg width="95" height="24" viewBox="0 0 95 24" fill="none" xmlns="http://www.w3.org/2000/svg">
<path d="M39.3829 8.41141C39.3146 7.77244 39.0268 7.27492 38.5195 6.91885C38.0171 6.56278 37.3635 6.38475 36.5587 6.38475C35.9929 6.38475 35.5076 6.47011 35.1027 6.64082C34.6979 6.81154 34.3882 7.04323 34.1736 7.33589C33.9589 7.62855 33.8492 7.96267 33.8443 8.33824C33.8443 8.65041 33.915 8.92112 34.0565 9.15037C34.2028 9.37962 34.4004 9.57473 34.6491 9.73569C34.8979 9.89177 35.1735 10.0235 35.4759 10.1308C35.7783 10.2381 36.0831 10.3283 36.3904 10.4015L37.7952 10.7527C38.361 10.8844 38.9049 11.0624 39.4268 11.2868C39.9536 11.5112 40.4243 11.7941 40.8389 12.1355C41.2583 12.4769 41.59 12.8891 41.8339 13.372C42.0778 13.8549 42.1997 14.4207 42.1997 15.0694C42.1997 15.9474 41.9753 16.7205 41.5266 17.3887C41.0779 18.0521 40.4291 18.5715 39.5804 18.9471C38.7366 19.3178 37.7147 19.5032 36.5148 19.5032C35.3491 19.5032 34.337 19.3227 33.4785 18.9618C32.6249 18.6008 31.9567 18.074 31.4738 17.3814C30.9958 16.6888 30.7372 15.8449 30.6982 14.8499H33.3687C33.4078 15.3718 33.5687 15.8059 33.8516 16.1522C34.1345 16.4985 34.5028 16.7571 34.9564 16.9278C35.4149 17.0985 35.9271 17.1839 36.4929 17.1839C37.0831 17.1839 37.6001 17.0961 38.044 16.9205C38.4927 16.74 38.8439 16.4912 39.0975 16.1742C39.3512 15.8523 39.4804 15.4767 39.4853 15.0474C39.4804 14.6572 39.3658 14.3353 39.1414 14.0817C38.9171 13.8232 38.6025 13.6085 38.1976 13.4378C37.7976 13.2622 37.3294 13.1061 36.7928 12.9696L35.0881 12.5306C33.8541 12.2135 32.8785 11.7331 32.1615 11.0892C31.4494 10.4405 31.0933 9.57961 31.0933 8.50652C31.0933 7.62367 31.3323 6.85056 31.8103 6.1872C32.2932 5.52384 32.9493 5.00925 33.7785 4.64343C34.6077 4.27273 35.5466 4.08737 36.5953 4.08737C37.6586 4.08737 38.5903 4.27273 39.3902 4.64343C40.195 5.00925 40.8267 5.51896 41.2852 6.17257C41.7437 6.8213 41.9802 7.56758 41.9949 8.41141H39.3829ZM50.1143 8.03827V10.0869H43.6539V8.03827H50.1143ZM45.2489 5.34581H47.8974V15.8962C47.8974 16.2522 47.9511 16.5254 48.0584 16.7156C48.1706 16.901 48.3169 17.0278 48.4974 17.0961C48.6778 17.1643 48.8778 17.1985 49.0973 17.1985C49.2632 17.1985 49.4144 17.1863 49.5509 17.1619C49.6924 17.1375 49.7997 17.1156 49.8729 17.0961L50.3192 19.1666C50.1777 19.2154 49.9753 19.2691 49.7119 19.3276C49.4534 19.3861 49.1363 19.4203 48.7608 19.43C48.0974 19.4495 47.4999 19.3495 46.9682 19.13C46.4366 18.9057 46.0146 18.5594 45.7025 18.0911C45.3952 17.6228 45.244 17.0375 45.2489 16.3351V5.34581ZM59.4922 14.5499V8.03827H62.1408V19.2764H59.5727V17.279H59.4556C59.202 17.9082 58.7849 18.4228 58.2045 18.8227C57.6289 19.2227 56.9192 19.4227 56.0754 19.4227C55.3389 19.4227 54.6877 19.2593 54.1219 18.9325C53.561 18.6008 53.122 18.1204 52.8049 17.4911C52.4879 16.8571 52.3294 16.0913 52.3294 15.1938V8.03827H54.9779V14.7841C54.9779 15.4962 55.173 16.062 55.5633 16.4815C55.9535 16.901 56.4656 17.1107 57.0997 17.1107C57.4899 17.1107 57.8679 17.0156 58.2338 16.8253C58.5996 16.6351 58.8996 16.3522 59.1337 15.9766C59.3727 15.5962 59.4922 15.1206 59.4922 14.5499ZM69.0347 19.4739C68.1518 19.4739 67.3617 19.2471 66.6642 18.7935C65.9667 18.3399 65.4155 17.6814 65.0106 16.818C64.6058 15.9547 64.4034 14.906 64.4034 13.672C64.4034 12.4233 64.6082 11.3697 65.018 10.5112C65.4326 9.64789 65.991 8.99673 66.6934 8.55774C67.3958 8.11387 68.1787 7.89194 69.042 7.89194C69.7005 7.89194 70.2419 8.00413 70.6663 8.2285C71.0906 8.44799 71.4272 8.71382 71.6759 9.02599C71.9247 9.33328 72.1174 9.6235 72.2539 9.89665H72.3637V4.29224H75.0196V19.2764H72.4149V17.5058H72.2539C72.1174 17.7789 71.9198 18.0691 71.6613 18.3764C71.4028 18.6789 71.0614 18.9374 70.637 19.152C70.2127 19.3666 69.6785 19.4739 69.0347 19.4739ZM69.7737 17.3009C70.3346 17.3009 70.8126 17.1497 71.2077 16.8473C71.6028 16.54 71.9028 16.1132 72.1076 15.5669C72.3125 15.0206 72.4149 14.3841 72.4149 13.6573C72.4149 12.9305 72.3125 12.2989 72.1076 11.7624C71.9076 11.2258 71.6101 10.8088 71.215 10.5112C70.8248 10.2137 70.3443 10.0649 69.7737 10.0649C69.1835 10.0649 68.6908 10.2186 68.2957 10.5259C67.9006 10.8332 67.6031 11.2575 67.4031 11.7989C67.2031 12.3404 67.1032 12.9598 67.1032 13.6573C67.1032 14.3597 67.2031 14.9865 67.4031 15.5377C67.608 16.0839 67.908 16.5156 68.3031 16.8327C68.703 17.1448 69.1932 17.3009 69.7737 17.3009ZM77.8419 19.2764V8.03827H80.4905V19.2764H77.8419ZM79.1735 6.44328C78.754 6.44328 78.3931 6.30427 78.0907 6.02624C77.7882 5.74334 77.637 5.40434 77.637 5.00925C77.637 4.60928 77.7882 4.27029 78.0907 3.99226C78.3931 3.70936 78.754 3.56791 79.1735 3.56791C79.5979 3.56791 79.9588 3.70936 80.2563 3.99226C80.5587 4.27029 80.71 4.60928 80.71 5.00925C80.71 5.40434 80.5587 5.74334 80.2563 6.02624C79.9588 6.30427 79.5979 6.44328 79.1735 6.44328ZM88.1161 19.4959C87.0186 19.4959 86.0674 19.2544 85.2626 18.7715C84.4578 18.2886 83.8335 17.6131 83.3896 16.7449C82.9506 15.8766 82.7311 14.8621 82.7311 13.7012C82.7311 12.5403 82.9506 11.5233 83.3896 10.6502C83.8335 9.77715 84.4578 9.09916 85.2626 8.61627C86.0674 8.13338 87.0186 7.89194 88.1161 7.89194C89.2135 7.89194 90.1647 8.13338 90.9695 8.61627C91.7743 9.09916 92.3962 9.77715 92.8352 10.6502C93.279 11.5233 93.501 12.5403 93.501 13.7012C93.501 14.8621 93.279 15.8766 92.8352 16.7449C92.3962 17.6131 91.7743 18.2886 90.9695 18.7715C90.1647 19.2544 89.2135 19.4959 88.1161 19.4959ZM88.1307 17.3741C88.7258 17.3741 89.2233 17.2107 89.6232 16.8839C90.0232 16.5522 90.3208 16.1083 90.5159 15.5523C90.7158 14.9962 90.8158 14.3768 90.8158 13.6939C90.8158 13.0062 90.7158 12.3843 90.5159 11.8282C90.3208 11.2673 90.0232 10.821 89.6232 10.4893C89.2233 10.1576 88.7258 9.99177 88.1307 9.99177C87.521 9.99177 87.0137 10.1576 86.6089 10.4893C86.2089 10.821 85.9089 11.2673 85.7089 11.8282C85.5138 12.3843 85.4163 13.0062 85.4163 13.6939C85.4163 14.3768 85.5138 14.9962 85.7089 15.5523C85.9089 16.1083 86.2089 16.5522 86.6089 16.8839C87.0137 17.2107 87.521 17.3741 88.1307 17.3741Z" fill="white"/>
<mask id="mask0_7635_9941" style="mask-type:alpha" maskUnits="userSpaceOnUse" x="0" y="0" width="23" height="23">
<circle cx="11.4462" cy="11.4462" r="11.4462" fill="#D9D9D9"/>
</mask>
<g mask="url(#mask0_7635_9941)">
<rect x="-3.04688" y="14.3936" width="11.9543" height="11.9543" rx="1.25804" transform="rotate(-15 -3.04688 14.3936)" fill="white"/>
<rect x="11.3008" y="14.3936" width="11.9543" height="11.9543" rx="1.25804" transform="rotate(-15 11.3008 14.3936)" fill="white"/>
<rect x="11.3008" y="0.0467224" width="11.9543" height="11.9543" rx="1.25804" transform="rotate(-15 11.3008 0.0467224)" fill="white"/>
<rect x="-3.04688" y="0.0467224" width="11.9543" height="11.9543" rx="1.25804" transform="rotate(-15 -3.04688 0.0467224)" fill="white"/>
</g>
</svg>
